<?xml version="1.0" encoding="utf-8"?>
<!-- Generator: Adobe Illustrator 23.0.1, SVG Export Plug-In . SVG Version: 6.00 Build 0)  -->
<svg version="1.1" id="Layer_1" xmlns="http://www.w3.org/2000/svg" xmlns:xlink="http://www.w3.org/1999/xlink" x="0px" y="0px"
	 viewBox="0 0 916.6 397.6" style="enable-background:new 0 0 916.6 397.6;" xml:space="preserve">
<style type="text/css">
	.st0{opacity:0.35;fill:#640B18;stroke:#640B18;stroke-width:1.87;stroke-miterlimit:10;enable-background:new    ;}
	.st1{fill:#CDE0DE;stroke:#640B18;stroke-width:1.87;stroke-miterlimit:10;}
	.st2{fill:#FFFFFF;stroke:#640B18;stroke-width:1.87;stroke-miterlimit:10;}
	.st3{fill:none;stroke:#640B18;stroke-width:1.87;stroke-miterlimit:10;}
	.st4{fill:#ED8622;stroke:#640B18;stroke-width:1.99;stroke-linecap:round;stroke-linejoin:round;}
	.st5{opacity:0.15;fill:#640B18;enable-background:new    ;}
	.st6{opacity:0.2;fill:#640B18;enable-background:new    ;}
	.st7{fill:#640B18;}
	.st8{fill:#CDE0DE;stroke:#640B18;stroke-width:2.16;stroke-linecap:round;stroke-miterlimit:10;}
	.st9{fill:#FFFFFF;}
	.st10{fill:none;stroke:#640B18;stroke-width:2.16;stroke-linejoin:round;}
	.st11{fill:none;stroke:#640B18;stroke-width:2.16;stroke-linecap:round;stroke-miterlimit:10;}
	.st12{opacity:0.46;}
	.st13{fill:none;stroke:#640B18;stroke-width:2.16;stroke-linecap:round;stroke-linejoin:round;}
	.st14{fill:#E05959;stroke:#640B18;stroke-width:2.16;stroke-linecap:round;stroke-miterlimit:10;}
	.st15{opacity:0.74;fill:#FFFFFF;enable-background:new    ;}
	.st16{fill:#505B67;stroke:#640B18;stroke-width:2.85;stroke-linecap:round;stroke-miterlimit:10;}
	.st17{fill:#3F4040;stroke:#640B18;stroke-width:2.85;stroke-linejoin:round;}
	.st18{opacity:0.45;fill:#596E7F;enable-background:new    ;}
	.st19{opacity:0.65;}
	.st20{fill:#FFFFFF;stroke:#630C18;stroke-width:1.58;stroke-linecap:round;stroke-miterlimit:10;}
	.st21{fill:#95AEAC;stroke:#630C18;stroke-width:1.58;stroke-linecap:round;stroke-miterlimit:10;}
	.st22{fill:#E0D7D4;}
	.st23{fill:none;stroke:#630C18;stroke-width:1.58;stroke-linecap:round;stroke-miterlimit:10;}
	.st24{fill:#A55E55;stroke:#630C18;stroke-width:1.58;stroke-linecap:round;stroke-miterlimit:10;}
	.st25{fill:#C48471;stroke:#630C18;stroke-width:1.58;stroke-linecap:round;stroke-miterlimit:10;}
	.st26{fill:none;stroke:#630C18;stroke-width:1.58;stroke-miterlimit:10;}
	.st27{fill:#BBD3D0;stroke:#640B18;stroke-width:1.42;stroke-linecap:round;stroke-miterlimit:10;}
	.st28{fill:#9D6754;stroke:#640B18;stroke-width:2.11;stroke-linecap:round;stroke-miterlimit:10;}
	.st29{fill:#FFECD9;stroke:#640B18;stroke-width:2.24;stroke-linecap:round;stroke-miterlimit:10;}
	.st30{opacity:0.3;fill:#640B18;enable-background:new    ;}
	.st31{fill:#FFECD9;}
	.st32{fill:#FBD2B5;stroke:#640B18;stroke-width:2.11;stroke-linecap:round;stroke-miterlimit:10;}
	.st33{fill:#FFD571;stroke:#640B18;stroke-width:2.29;stroke-miterlimit:10;}
	.st34{opacity:0.1;fill:#640B18;enable-background:new    ;}
	.st35{opacity:0.12;fill:#640B18;enable-background:new    ;}
	.st36{fill:#FFD571;}
	.st37{fill:none;stroke:#640B18;stroke-width:2.29;stroke-miterlimit:10;}
	.st38{fill:none;stroke:#640B18;stroke-width:2.59;stroke-linecap:round;stroke-miterlimit:10;}
	.st39{fill:none;stroke:#E05959;stroke-width:2.36;stroke-linecap:round;stroke-miterlimit:10;}
	.st40{fill:none;stroke:#640B18;stroke-width:2.29;stroke-linecap:round;stroke-miterlimit:10;}
	.st41{fill:#FFECD9;stroke:#640B18;stroke-width:2.09;stroke-linecap:round;stroke-miterlimit:10;}
	.st42{fill:none;stroke:#640B18;stroke-width:2.65;stroke-linecap:round;stroke-miterlimit:10;}
	.st43{fill:#BBD3D0;}
	.st44{fill:#AF4645;stroke:#640B18;stroke-width:2.17;stroke-linecap:round;stroke-miterlimit:10;}
	.st45{fill:#E05959;stroke:#640B18;stroke-width:2.17;stroke-linecap:round;stroke-miterlimit:10;}
	.st46{fill:#9D6754;stroke:#640B18;stroke-width:1.94;stroke-linecap:round;stroke-miterlimit:10;}
	.st47{fill:#BBD3D0;stroke:#640B18;stroke-width:2.11;stroke-linecap:round;stroke-miterlimit:10;}
	.st48{fill:#FBD2B5;stroke:#640B18;stroke-width:1.94;stroke-linecap:round;stroke-miterlimit:10;}
	.st49{fill:#FFFFFF;stroke:#640B18;stroke-width:1.94;stroke-linecap:round;stroke-linejoin:round;}
	.st50{fill:none;stroke:#640B18;stroke-width:1.94;stroke-linecap:round;stroke-miterlimit:10;}
	.st51{fill:#FFFFFF;stroke:#640B18;stroke-width:1.94;stroke-linecap:round;stroke-miterlimit:10;}
	.st52{fill:#FFECD9;stroke:#640B18;stroke-width:2.11;stroke-linecap:round;stroke-miterlimit:10;}
	.st53{fill:#505B67;stroke:#640B18;stroke-width:1.77;stroke-linecap:round;stroke-miterlimit:10;}
	.st54{fill:#FCD4B5;stroke:#640B18;stroke-width:2.11;stroke-linecap:round;stroke-miterlimit:10;}
	.st55{fill:#414141;stroke:#640B18;stroke-width:2.05;stroke-linecap:round;stroke-miterlimit:10;}
	.st56{opacity:8.000000e-02;fill:#640B18;enable-background:new    ;}
	.st57{fill:#9D6754;}
	.st58{opacity:0.5;fill:#FFFFFF;enable-background:new    ;}
	.st59{opacity:7.000000e-02;fill:#640B18;enable-background:new    ;}
	.st60{fill:#414141;}
	.st61{fill:#5E3D37;stroke:#640B18;stroke-width:1.72;stroke-linecap:round;stroke-linejoin:round;}
	.st62{fill:#515D67;}
	.st63{opacity:0.35;fill:#AAC8C6;enable-background:new    ;}
	.st64{fill:none;stroke:#640B18;stroke-width:2.11;stroke-linecap:round;stroke-miterlimit:10;}
</style>
<title>fistbump-compressedAsset 1</title>
<circle class="st0" cx="786.6" cy="79.2" r="49.1"/>
<circle class="st1" cx="789.2" cy="71.7" r="49.1"/>
<ellipse transform="matrix(0.7071 -0.7071 0.7071 0.7071 180.4448 579.0422)" class="st2" cx="789.2" cy="71.7" rx="36.1" ry="36.1"/>
<line class="st3" x1="789.2" y1="71.7" x2="796.7" y2="77"/>
<line class="st3" x1="789.2" y1="54.4" x2="789.2" y2="71.7"/>
<line class="st3" x1="789.9" y1="98.4" x2="789.9" y2="101.6"/>
<line class="st3" x1="789.2" y1="43.1" x2="789.2" y2="46.3"/>
<line class="st3" x1="763.1" y1="72.1" x2="759.9" y2="72.1"/>
<line class="st3" x1="818.4" y1="71.3" x2="815.2" y2="71.3"/>
<path class="st4" d="M168.6,228.6c-8.3,18.2-15.2,37-20.8,56.2"/>
<path class="st5" d="M167.8,230.2c0,0-28.1,31.1-43.2,87.6l1.4,13l10,4C136.1,334.8,156.2,245.7,167.8,230.2z"/>
<rect x="198.2" y="181.2" class="st6" width="114.5" height="26.4"/>
<rect x="173.1" y="95.5" class="st7" width="81.3" height="65.4"/>
<rect x="182.2" y="104.4" class="st8" width="62.6" height="47.4"/>
<polygon class="st9" points="199.2,151.8 193.5,151.8 211,104.4 216.7,104.4 "/>
<polygon class="st9" points="216.7,151.8 205.1,151.8 222.6,104.4 234.1,104.4 "/>
<line class="st10" x1="182.2" y1="104.4" x2="244.8" y2="104.4"/>
<line class="st10" x1="182.2" y1="151.8" x2="244.8" y2="151.8"/>
<rect x="70.7" y="55.8" class="st7" width="72.8" height="105.2"/>
<rect x="80.4" y="66.1" class="st8" width="53.4" height="85.3"/>
<rect x="80.4" y="66.1" class="st11" width="53.4" height="85.3"/>
<g class="st12">
	<line class="st13" x1="94.3" y1="79.2" x2="121.2" y2="79.2"/>
	<line class="st13" x1="91.6" y1="91.4" x2="122.6" y2="91.4"/>
	<line class="st13" x1="91.6" y1="98.9" x2="122.6" y2="98.9"/>
	<line class="st13" x1="91.6" y1="106.4" x2="122.6" y2="106.4"/>
	<line class="st13" x1="91.6" y1="113.8" x2="122.6" y2="113.8"/>
	<circle class="st14" cx="116.5" cy="135.5" r="6.1"/>
</g>
<g class="st12">
	<line class="st13" x1="194.8" y1="114.8" x2="229.9" y2="114.8"/>
	<line class="st13" x1="191.8" y1="122.4" x2="232.3" y2="122.4"/>
	<line class="st13" x1="191.2" y1="129.6" x2="231.8" y2="129.6"/>
	<path class="st14" d="M237.9,139.6c0,3.4-2.7,6.1-6.1,6.1c-3.4,0-6.1-2.7-6.1-6.1s2.7-6.1,6.1-6.1c0,0,0,0,0,0
		C235.2,133.5,237.9,136.2,237.9,139.6z"/>
</g>
<polygon class="st15" points="88.6,151.4 83.2,151.4 111.3,66.1 116.7,66.1 "/>
<polygon class="st15" points="105.2,151.4 94.3,151.4 122.8,66.1 133.8,66.1 "/>
<polyline class="st10" points="84.2,66.1 133.8,66.1 133.8,77.9 "/>
<line class="st10" x1="81.2" y1="151.4" x2="130.9" y2="151.4"/>
<rect x="322.3" y="1.4" class="st16" width="208.5" height="245.1"/>
<rect x="333.9" y="13.3" class="st17" width="185.2" height="220.7"/>
<path class="st18" d="M410.5,211.6h18.2c0.2,0,0.3,0.1,0.3,0.3v1.2c0,0.2-0.1,0.3-0.3,0.3h-18.2c-0.2,0-0.3-0.1-0.3-0.3v-1.2
	C410.2,211.7,410.4,211.6,410.5,211.6z"/>
<path class="st18" d="M406,217.5H444c0.2,0,0.3,0.1,0.3,0.3v1.2c0,0.2-0.1,0.3-0.3,0.3H406c-0.2,0-0.3-0.1-0.3-0.3v-1.2
	C405.6,217.6,405.8,217.5,406,217.5z"/>
<path class="st18" d="M432.4,211.6h6.6c0.2,0,0.3,0.1,0.3,0.3v1.2c0,0.2-0.1,0.3-0.3,0.3h-6.6c-0.2,0-0.3-0.1-0.3-0.3v-1.2
	C432,211.7,432.2,211.6,432.4,211.6z"/>
<g class="st19">
	<path class="st9" d="M375.9,38.2h2.2V64h-2.2V38.2z"/>
	<path class="st9" d="M384.8,60.4V47h-3.1v-1.8h3.1v-5.1h2v5.1h3.8V47h-3.8v13c0,1.5,0.6,2.5,1.9,2.5c0.8,0,1.5-0.3,2.1-0.9l0.8,1.5
		c-0.8,0.8-2,1.2-3.2,1.2C386,64.4,384.8,62.9,384.8,60.4z"/>
	<path class="st9" d="M398.1,40.2c-0.1,2.1-1.1,4-2.8,5.3l-1.1-0.9c1.2-0.8,2-2.1,2.2-3.6c0,0-0.3,0.1-0.4,0.1
		c-0.9,0-1.6-0.7-1.6-1.5c0,0,0-0.1,0-0.1c0-0.9,0.8-1.7,1.7-1.7C397.2,37.8,398.1,38.7,398.1,40.2z"/>
	<path class="st9" d="M402,60c1.5,1.8,3.7,2.8,6,2.8c3.1,0,5-1.5,5-3.7c0-2.4-2.6-3.1-5.2-3.8c-3.1-0.8-6.6-1.6-6.6-5.2
		c0-2.9,2.4-5.2,6.7-5.2c2.5-0.1,5,0.9,6.7,2.8l-1.1,1.4c-1.4-1.7-3.4-2.6-5.6-2.5c-2.9,0-4.7,1.4-4.7,3.4c0,2.1,2.4,2.7,5,3.4
		c3.2,0.8,6.8,1.7,6.8,5.7c0,3-2.3,5.5-7,5.5c-2.7,0.2-5.4-0.9-7.2-2.9L402,60z"/>
	<path class="st9" d="M442.9,51.3c0-3.6-1.8-4.7-4.5-4.7c-2.4,0.1-4.6,1.3-6.1,3.2V64h-2V45.3h2v2.8c1.7-2,4.1-3.2,6.8-3.3
		c3.8,0,5.9,1.9,5.9,6.1V64h-2L442.9,51.3z"/>
	<path class="st9" d="M450,54.6c0-5.5,3.5-9.8,9-9.8s9,4.3,9,9.8s-3.5,9.8-9,9.8S450,60.1,450,54.6z M465.9,54.6c0-4.1-2.4-8-6.9-8
		s-6.8,3.8-6.8,8s2.5,8,6.8,8S465.9,58.8,465.9,54.6L465.9,54.6z"/>
	<path class="st9" d="M473.6,60.4V47h-3.1v-1.8h3.1v-5.1h2v5.1h3.8V47h-3.8v13c0,1.5,0.6,2.5,1.9,2.5c0.8,0,1.5-0.3,2.1-0.9l0.8,1.5
		c-0.9,0.8-2,1.2-3.2,1.2C474.8,64.4,473.6,62.9,473.6,60.4z"/>
	<path class="st9" d="M374.4,76.9h10.9c8.1,0,14,4.9,14,12.9s-5.9,12.9-14,12.9h-10.9V76.9z M385.2,96.9c3.8,0.2,7-2.8,7.2-6.5
		c0-0.2,0-0.4,0-0.6c0-4-2.4-7.1-7.1-7.1h-4.2v14.2L385.2,96.9z"/>
	<path class="st9" d="M415.1,76.4c7.9,0,13.8,5.5,13.8,13.4s-5.9,13.4-13.8,13.4s-13.8-5.5-13.8-13.4S407.2,76.4,415.1,76.4z
		 M415.1,82.3c-4.3,0-7,3.2-7,7.5s2.8,7.5,7,7.5s7-3.3,7-7.5S419.3,82.3,415.1,82.3z"/>
	<path class="st9" d="M438.9,87.1v15.6h-6.7V76.9h6.9l10.5,14.9V76.9h6.7v25.8h-6.4L438.9,87.1z"/>
	<path class="st9" d="M460.9,76.9h18.9v5.6h-12.3v4.3h12v5.7h-12v4.6h12.3v5.6h-18.9V76.9z"/>
	<path class="st9" d="M390.5,138.4c-1.9,2.1-4.5,3.4-7.4,3.5c-4.2,0-6.4-1.9-6.4-6.6V121h2.2v13.9c0,4,2,5.1,4.9,5.1
		c2.6-0.1,5-1.3,6.6-3.4V121h2.2v20.4h-2.2L390.5,138.4z"/>
	<path class="st9" d="M413.3,127.6c0-3.9-2-5.1-4.9-5.1c-2.6,0.1-5.1,1.4-6.6,3.5v15.4h-2.2V121h2.2v3.1c1.9-2.2,4.5-3.5,7.4-3.6
		c4.1,0,6.4,2,6.4,6.6v14.3h-2.2L413.3,127.6z"/>
	<path class="st9" d="M422.7,137.5V123h-3.4v-2h3.4v-5.6h2.3v5.6h4.1v2H425v14.2c0,1.6,0.7,2.8,2.1,2.8c0.9,0,1.7-0.4,2.3-1l0.9,1.7
		c-0.9,0.9-2.2,1.3-3.5,1.3C424,142,422.7,140.3,422.7,137.5z"/>
	<path class="st9" d="M433.3,115.9c0-0.9,0.8-1.7,1.7-1.7c0.9,0,1.7,0.8,1.7,1.7c0,0.9-0.8,1.7-1.7,1.7
		C434.1,117.6,433.3,116.8,433.3,115.9z M433.9,121h2.2v20.4h-2.2V121z"/>
	<path class="st9" d="M443,113.3h2.2v28.2H443V113.3z"/>
	<path class="st9" d="M462.4,115.9c0-0.9,0.8-1.7,1.7-1.7c0.9,0,1.7,0.8,1.7,1.7c0,0.9-0.8,1.7-1.7,1.7
		C463.1,117.6,462.4,116.8,462.4,115.9z M463,121h2.2v20.4H463V121z"/>
	<path class="st9" d="M472.4,137.5V123H469v-2h3.4v-5.6h2.2v5.6h4.1v2h-4.1v14.2c0,1.6,0.7,2.8,2.1,2.8c0.9,0,1.7-0.4,2.3-1l0.8,1.7
		c-0.9,0.9-2.2,1.4-3.5,1.3C473.7,142,472.4,140.3,472.4,137.5z"/>
	<path class="st9" d="M374.8,171.5c2.2,2.2,5.2,3.4,8.2,3.4c2.3,0,3.7-1,3.7-2.2c0-1.5-1.7-2.1-4.4-2.6c-4.3-0.9-10.2-1.9-10.2-8
		c0-4.3,3.7-8.1,10.3-8.1c3.8-0.1,7.6,1.2,10.5,3.6l-3.6,4.8c-2.1-1.7-4.6-2.6-7.3-2.7c-2.2,0-3.1,0.9-3.1,2c0,1.4,1.6,1.8,4.5,2.4
		c4.3,0.9,10.1,2.1,10.1,8c0,5.2-3.8,8.6-10.8,8.6c-5.2,0-8.9-1.6-11.5-4.1L374.8,171.5z"/>
	<path class="st9" d="M414,169.8h-10.8v10.4h-6.7v-25.8h6.7v9.7H414v-9.6h6.7v25.8H414V169.8z"/>
	<path class="st9" d="M425.3,154.3h6.7v25.8h-6.7L425.3,154.3z"/>
	<path class="st9" d="M436.6,154.3h12.9c5.8,0,9,3.9,9,8.6s-3.2,8.5-9,8.5h-6.3v8.8h-6.7V154.3z M448.6,160h-5.4v5.8h5.4
		c1.6,0.1,3-1,3.1-2.6c0-0.1,0-0.2,0-0.3c0-1.6-1.2-2.9-2.8-2.9C448.8,160,448.7,160,448.6,160z"/>
	<path class="st9" d="M463.2,171.5c2.2,2.2,5.2,3.4,8.2,3.4c2.3,0,3.7-1,3.7-2.2c0-1.5-1.7-2.1-4.4-2.6c-4.3-0.9-10.2-1.9-10.2-8
		c0-4.3,3.7-8.1,10.3-8.1c3.8-0.1,7.6,1.2,10.5,3.6l-3.6,4.8c-2.1-1.7-4.6-2.6-7.3-2.7c-2.2,0-3.1,0.9-3.1,2c0,1.4,1.6,1.8,4.5,2.4
		c4.3,0.9,10.1,2.1,10.1,8c0,5.2-3.8,8.6-10.8,8.6c-5.2,0-8.9-1.6-11.5-4.1L463.2,171.5z"/>
</g>
<path class="st20" d="M63.6,318.7l-4.8,62.9c-0.2,2-1.8,3.5-3.8,3.5H21.4c-2,0-3.6-1.5-3.8-3.5l-5-63H63.6z"/>
<path class="st21" d="M59.9,313.9H16.3v-2.8c0-2.8,2.1-5.2,4.9-5.5l32.4-3.9c3.1-0.4,5.8,1.8,6.2,4.9c0,0.2,0,0.4,0,0.7V313.9z"/>
<path class="st22" d="M63.6,318.7l-4.8,62.9c-0.2,2-1.8,3.5-3.8,3.5h-6.1l4.7-66.5H63.6z"/>
<path class="st23" d="M63.6,318.7l-4.8,62.9c-0.2,2-1.8,3.5-3.8,3.5H21.4c-2,0-3.6-1.5-3.8-3.5l-5-63H63.6z"/>
<path class="st24" d="M64.8,329.2l-3.2,44.3c-0.1,1-1,1.8-2,1.8h-9.9l3.5-48.3h9.6c1.1,0,2,0.9,2,2
	C64.8,329.1,64.8,329.2,64.8,329.2z"/>
<path class="st25" d="M53.3,327.1l-3.5,48.3h-33c-1,0-1.9-0.8-2-1.8l-3.4-44.3c-0.1-1.1,0.8-2.1,1.9-2.1c0,0,0.1,0,0.1,0H53.3z"/>
<path class="st26" d="M13.4,327.1h49.5c1.1,0,2,0.9,2,2c0,0,0,0.1,0,0.1l-3.2,44.3c-0.1,1-1,1.8-2,1.8H16.8c-1,0-1.9-0.8-2-1.8
	l-3.4-44.3c-0.1-1.1,0.8-2.1,1.9-2.1C13.3,327.1,13.4,327.1,13.4,327.1z"/>
<path class="st27" d="M11.3,312.1h53.6c0.8,0,1.5,0.7,1.5,1.5v4.4c0,0.8-0.7,1.5-1.5,1.5H11.3c-0.8,0-1.5-0.7-1.5-1.5v-4.4
	C9.9,312.7,10.5,312.1,11.3,312.1z"/>
<path class="st28" d="M401.3,199.2l-44.7,186.5l-2.9,11.9H168.9l2.9-11.9l47-195.9c2.2-9.1,10.3-15.4,19.6-15.4h143.4
	c11.1,0,20.1,9,20.1,20.1C401.9,196.1,401.7,197.7,401.3,199.2z"/>
<path class="st25" d="M366.8,199.2l-44.7,186.5l-2.9,11.9H134.4l2.9-11.9l47-195.9c2.2-9.1,10.3-15.4,19.6-15.4h143.4
	c11.1,0,20.1,9,20.1,20.1C367.4,196.1,367.2,197.7,366.8,199.2z"/>
<path class="st29" d="M326.8,266.9l34.9,25.4c0,0-3.2-12.5-8-28.5c-7.1-23.8-17.5-55.4-25.5-65.4C314.9,181.8,297.7,177,249,177
	s-47.5-3.1-66.7,4.4c-12.5,4.9-42.9,51.2-65.3,87.8c-11.8,19.3-21.4,35.8-25,42.1l13.5,49l28.4-10.4l0.5-0.2l136.8-50.3l19.7-21.9
	l5-5.5l3.6-4l11.4-12.6L326.8,266.9"/>
<polygon class="st30" points="294.5,384.9 197.8,384.8 235.7,215.1 332.4,215.1 "/>
<path class="st31" d="M368.4,291.4l-4.4,51.9l-10.8,7.8c-5.2,1.7-10.9,1.8-16.1,0.3c-16.5-3.9-31.7-35.4-41.4-60.6
	c-1.4-3.8-2.8-7.4-3.9-10.7c-0.3-0.9-0.6-1.7-0.9-2.5c-1.4-4-2.5-7.5-3.5-10.5v-11.2l34-6.4l39.6,40.7L368.4,291.4z"/>
<path class="st31" d="M363.1,338.6l0.6,4.8l4-4.2L363.1,338.6z"/>
<path class="st32" d="M299.8,267.9c0,0-1.2,1.6-3.3,4.8c-1.3,1.9-2.9,4.4-4.8,7.3c-12.2,19.4-35,59.9-45.3,105.7
	c-0.4,1.8-0.8,3.5-1.1,5.3H126.7c0.2-1.5,0.5-3.3,0.9-5.3c1.5-8.8,3.6-21.5,6.4-36c0.8-4.3,1.7-8.8,2.6-13.4c0,0,0,0,0-0.1
	c3.3-16.8,7.1-35,11.3-51.5l0,0c3.9-15.6,8.1-29.8,12.2-40.1L287,265.8l4.5,0.8l8,1.3H299.8z"/>
<path class="st4" d="M353.7,263.8c-9.1-0.8-18.3,0.2-26.9,3c-8.8,2.9-16.7,7.9-23.2,14.5c-2.9,2.9-5.5,6-7.9,9.4
	c-0.2-0.5-0.4-1.1-0.6-1.6c-1.2-3.2-2.3-6.2-3.3-9.1c-12.2,19.4-17.9,58.9-28.2,104.8c-0.2,1,0.8,2.2,1.7,3.4c0.8,1,1.5,2,1.3,2.8
	H128.7c1.4-10.8,3.4-25.9,5.7-41.4c0.7-4.4,1.4-8.8,2.1-13.2c0,0,0,0,0-0.1c3.6-22.5,11.3-51.5,11.3-51.5s-14.9,4-30.7-15.6
	c22.4-36.5,52.8-82.8,65.3-87.8c19.1-7.6,18-4.4,66.7-4.4s65.8,4.8,79.2,21.5C336.3,208.4,346.7,240,353.7,263.8z"/>
<path class="st33" d="M233.5,148.9c0,0-29.3-0.2-28-38S222,75.8,222,75.8s-2.4-39.2,57.5-29.5c21.4,3,52.2,26.1,66.2,30.6
	c0.1,0,0.2,0.1,0.1,0.2c0,0.1-0.1,0.1-0.1,0.1c-2.9,0.6-14.1,2.4-21.7-1c0,0,13.9,12.6,21.9,14.6c0.1,0,0.1,0.1,0.1,0.2
	c0,0-0.1,0.1-0.1,0.1c-3.9,1.1-29,8-46.1,4.4l-15-4.6l6.6,9.5c0,0-31.3-5-38.3-9.5c0,0,1,35.6-16,34.8"/>
<path class="st6" d="M291.8,280c-12.2,19.4-17.9,58.9-28.2,104.8c-0.2,1,0.8,2.2,1.7,3.4l-0.8,2.8h-17.7
	c22.6-121.5,37.5-132.8,37.5-132.8"/>
<path class="st29" d="M366.1,341.5l46.4-116.8c3.5-10.1-1.9-21.1-12.1-24.6c-9.8-3.4-20.5,1.6-24.3,11.3l-40.7,84.6"/>
<path class="st34" d="M295.7,290.7c12.9,37.2,33.4,65.9,49.9,61.9c6.1-1.1,13-3.9,16.1-7.1l3.6-3l1-0.6l45.4-116.6
	c3-8.1,0.2-17.3-6.8-22.3c0,2.2-9.1,26.7-9.9,28.9l-33.1,85l-0.8,2l-3.4,6.6l-1.3,2.5l-1.5,2.9c-3.9,3.9-8.9,6.5-14.3,7.6
	c-16.5,4-27.1-30.1-38.1-54.6"/>
<path class="st29" d="M381.3,204.2c0,0,11.9-11.5,46.7-3.4c7.6,1.7,15.1,3.8,22.4,6.5c0,0,6.5,32.7,3.1,39.8s-20.7,5.4-20.7,5.4
	l-25.9-14.6"/>
<path class="st34" d="M453.3,246.5c-3.4,7.1-20.7,5.4-20.7,5.4L411.5,240l18.4,4.3c0,0,17.3,1.6,20.7-5.4c2.4-5-0.1-22.7-1.8-32.7
	l1.4,0.5C450.2,206.7,456.7,239.5,453.3,246.5z"/>
<path class="st29" d="M418.1,231.1c0,0,2.1-2.8,16.8,1.5"/>
<path class="st29" d="M428.1,217.6c-0.1,0.1-15,10.5-0.5,13.2"/>
<path class="st29" d="M413.5,218.1c0,0,11.9,5.7,6,24.8l16.8,9.6c0.2,0.1,0.2,0.4,0.1,0.5c-0.1,0.1-0.2,0.2-0.4,0.2
	c-8.4-1.2-39.6-6.8-41.9-19.2"/>
<path class="st29" d="M271.1,157.1c-0.3-11.8-10-21.1-21.8-20.9c-11.4,0.2-20.6,9.5-20.9,20.9v25.1c-2.8,3.1-4.9,6.7-6.1,10.7
	c-3.6,12.3,4,22.3,17.1,22.4c11.1,0,22.6-7.2,28-17c2.4-3.5,3.7-7.7,3.7-11.9L271.1,157.1z"/>
<path class="st29" d="M240.2,367.3l27.6,16c2.5,1.8,6,1.2,7.8-1.3l0,0c1.8-2.5,1.2-6-1.3-7.8l-31.9-24c0,0-3.5-5.1-45.5-4.2
	c-50.3,1-90.2-25.5-90.2-25.5l-7.6,60.1h88.2C187.2,380.6,187.2,396.1,240.2,367.3z"/>
<path class="st29" d="M268.9,182.8L268.9,182.8c-22,0-39.8-17.8-39.8-39.8v-42.7c0-22,17.8-39.8,39.8-39.8h0
	c22,0,39.8,17.8,39.8,39.8v42.7C308.6,165,290.8,182.8,268.9,182.8z"/>
<path class="st35" d="M308,152.3c-5.2,21.3-26.7,34.4-48.1,29.2c-17.8-4.4-30.3-20.3-30.3-38.7v-42.7c0-6.2,1.4-12.2,4.2-17.7
	c-0.8,3.1-1.1,6.3-1.1,9.4v42.7c0,21.9,17.8,39.7,39.7,39.7C287.5,174.3,301.3,165.8,308,152.3z"/>
<path class="st34" d="M271.1,183.1v3.6c0,1.6-0.2,3.2-0.6,4.8c-16.4,3.5-33.3-3.7-42.1-18v-16.1c0-2.4,0.4-4.9,1.2-7.2
	c3.4,19,19.9,32.8,39.2,32.9C269.6,183.1,270.4,183.1,271.1,183.1z"/>
<path class="st36" d="M320,91.1l-11,5.6c-4.3,0.1-8.5-0.2-12.7-1l-15-4.6l6.6,9.5c0,0-31.2-4.9-38.3-9.5c0,0,0.9,31.1-12.9,34.5
	l-19-17.1l17.8-42.7l24.2-15.5L299.1,64L320,91.1z"/>
<path class="st37" d="M233.6,125.8c1,0.1,2.1,0,3.1-0.3c13.9-3.4,12.9-34.5,12.9-34.5c5.9,3.8,28.5,7.8,35.9,9.1
	c0.5,0.1,1.1-0.2,1.2-0.8c0.1-0.3,0-0.6-0.2-0.8l-5.2-7.5l15,4.6c4.2,0.8,8.4,1.1,12.7,1c17.1-0.2,36.1-5.3,36.1-5.3"/>
<path class="st38" d="M304.5,129.6c0-0.9-0.3-1.9-0.7-2.7c-1.5-2.6-4.8-3.4-7.3-1.9c-0.8,0.5-1.5,1.1-1.9,1.9
	c-0.5,0.8-0.8,1.8-0.8,2.7"/>
<ellipse class="st39" cx="304.5" cy="128" rx="11.1" ry="6.5"/>
<path class="st38" d="M272,129.6c0-0.9-0.3-1.9-0.7-2.7c-1.5-2.6-4.8-3.4-7.3-1.9c-0.8,0.5-1.5,1.1-1.9,1.9
	c-0.5,0.8-0.8,1.8-0.8,2.7"/>
<path class="st40" d="M285.6,148.9c3.8,0,10-1.8,7-9.5V118"/>
<ellipse class="st39" cx="266.6" cy="128" rx="11.1" ry="6.5"/>
<path class="st39" d="M277.7,126.9c0,0,13.3-9.5,16.8-0.9"/>
<line class="st39" x1="255.5" y1="128" x2="233.5" y2="120.9"/>
<path class="st33" d="M275.2,113.4H258c-1.4,0-2.5-1.1-2.5-2.5v0c0-1.4,1.1-2.5,2.5-2.5h17.2c1.4,0,2.5,1.1,2.5,2.5v0
	C277.7,112.3,276.6,113.4,275.2,113.4z"/>
<path class="st33" d="M306.1,113.4h-9.8c-1.4,0-2.5-1.1-2.5-2.5v0c0-1.4,1.1-2.5,2.5-2.5h9.8c1.4,0,2.5,1.1,2.5,2.5v0
	C308.6,112.3,307.5,113.4,306.1,113.4z"/>
<path class="st9" d="M225.8,227.1c-21.2-2.1-45.4,13.6-54.1,35.2s1.5,40.8,22.7,43s45.4-13.6,54.1-35.2S247,229.3,225.8,227.1z
	 M203.3,285.4c-7.1-0.7-11.1-3.5-13.3-7.3l7.6-6.4c1.9,3.4,5.4,5.6,9.3,5.9c3.1,0.3,5.5-0.8,6.2-2.5c0.8-2-1.1-3.1-4.5-4.2
	c-5.3-1.8-12.8-4.1-9.4-12.6c2.4-6,9.5-10.7,18.5-9.8c5.6,0.6,9.8,2.8,12.3,6.4l-7.6,6.1c-2-2.7-5.1-4.4-8.4-4.7
	c-3-0.3-4.6,0.8-5.3,2.4c-0.8,1.9,1.1,2.7,4.7,3.9c5.3,1.8,12.6,4.4,9.4,12.5C219.8,282.1,212.7,286.3,203.3,285.4z"/>
<path class="st32" d="M277.8,160.7c0,0-9,2.2-16.6-1.2"/>
<path class="st41" d="M237.7,129.5c0-6.6-5.4-12-12-12c-6.6,0-12,5.4-12,12c0,6.6,5.4,12,12,12c2.1,0,4.2-0.6,6-1.6"/>
<path class="st42" d="M225.7,124.7c-2.7,0-4.9,2.2-4.9,4.9"/>
<path class="st31" d="M390.8,229.2c0,0,6.5,6.4,8.6,7.2s2.9-10.4,2.9-10.4l-9.8-2.2L390.8,229.2z"/>
<rect x="716.7" y="88" class="st43" width="25" height="25"/>
<path class="st44" d="M766,395.8H581.2l-2.8-11.9l-44.7-186.5c-2.6-10.8,4.1-21.7,14.9-24.3c1.5-0.4,3.1-0.6,4.7-0.6h143.5
	c9.3,0,17.4,6.4,19.6,15.4l3.5,14.6l43.5,181.2L766,395.8z"/>
<path class="st45" d="M800.5,395.8H615.7l-2.8-11.9l-44.7-186.5c-2.6-10.8,4.1-21.7,14.9-24.3c1.5-0.4,3.1-0.6,4.7-0.6h143.4
	c9.3,0,17.4,6.4,19.6,15.4l6.7,28.1l4.1,17.1l6.2,25.8l14.1,59l7.4,30.8l8.4,35.1L800.5,395.8z"/>
<polygon class="st30" points="632.9,383.1 729.6,383 691.7,213.3 614.1,213.4 "/>
<path class="st46" d="M738,85.3c0,0,10.2-2.6,15.9,24s6.6,58.4,14.5,78.6s19.2,43.9,15.7,89.7S668,179.8,668,179.8
	s-21-6.2-29.9-22.6s-16.4-47.4,3.8-80.3S731.2,45.9,738,85.3z"/>
<path class="st30" d="M771.9,238.8c0,0-7.5-31.1-19.5-48.9S722.5,124,722.5,124l-48.8,90.8l83.7,26L771.9,238.8z"/>
<path class="st47" d="M877.6,367.7c-1.1,1.2-2.3,2.3-3.6,3.2h-25.8c-0.5-0.3-0.9-0.7-1.4-1.1l-45.5-39.7l-70.6-61.6
	c-0.7-0.6-1.4-1.2-2-1.9c-11.1-11.7-10.5-30.2,1.2-41.3c2.8-2.7,6.2-4.7,9.8-6.1c13.6-5.1,28.8,1.7,35,14.8l25.8,54.2l10.3,61.9
	C818.4,358.2,885.1,359.2,877.6,367.7z"/>
<path class="st7" d="M894.9,365.4c-0.2,1.9-0.6,3.8-1.3,5.5H849l-35.7-31.1l-11.8-10.3l-58.8-51.2c-0.7-0.6-1.4-1.2-2-1.9
	c-11.1-11.7-10.6-30.1,1.1-41.2c0,0,0,0,0,0c2.5-2.4,5.3-4.2,8.5-5.6c-4.6,10.7-2.5,23.2,5.6,31.6c0.6,0.7,1.3,1.3,2,1.9l49.8,43.5
	l20.8,18.1l45.5,39.7c0.4,0.4,0.9,0.7,1.4,1.1L894.9,365.4z"/>
<path class="st47" d="M760.8,255.2c2.4,1.1,4.7,2.3,6.9,3.8c6,3.9,14.6,10.8,19.5,21.2c10.6,22.1,0,33.6-5.4,37.8
	c-1.6,1.2-7.5,3.3-7.5,3.3c-0.1,3.5-6.1,14.2-0.2,28.1c4.8,11.3,10.6,24.1,15.7,35.1c2,4.3,3.9,8.3,5.5,11.9l-133.4-0.5
	c-0.5-4.1-0.9-8.1-1.4-11.9c-11.9-93.4-33.1-107.2-33.1-107.2l19.9-84c0,0,20.3,2.4,64.1,8.6c2.9,0.4,5.8,0.9,8.5,1.4
	c17.2,3.3,29.5,8.6,37.7,13.4c5.6,3.1,10.4,7.5,14.1,12.7"/>
<path class="st48" d="M694.2,222.8L694.2,222.8c-10.2-1.1-17.5-10.3-16.3-20.4l4.7-41.7c1.1-10.1,10.3-17.4,20.4-16.3l0,0
	c10.1,1.1,17.4,10.3,16.3,20.4l-4.7,41.7C713.5,216.7,704.3,224,694.2,222.8z"/>
<path class="st5" d="M718.4,171.4l-2,16.3c0,0-13.8,26.6-38.5,17c0,0-0.1-5.3,1-8.3l33.3-24.9L718.4,171.4z"/>
<path class="st48" d="M716.2,136.9l-0.2-8.4c0.7-11.8-8.4-24.3-20.2-24.9l-39.8-2.3c-5.2-0.3-7.9,2.8-9.5,4.8l0,0
	c-2.1,4.6-3.3,9.6-3.5,14.7l-1.5,34.7c-0.6,21.7,16.5,39.7,38.2,40.3c21.2,0.6,39-15.8,40.3-37l0.3-6.6"/>
<path class="st5" d="M719.1,156.4l-0.1,2.2c-0.9,21.7-19.2,38.5-40.9,37.5c-16.6-0.7-31-11.8-35.8-27.7c10.6,18.9,34.5,25.6,53.4,15
	c11.8-6.7,19.4-19,20-32.5l0.3-6.6L719.1,156.4z"/>
<ellipse transform="matrix(0.2581 -0.9661 0.9661 0.2581 377.9799 768.2441)" class="st49" cx="689.2" cy="138" rx="6.3" ry="6.3"/>
<path class="st7" d="M685.7,135.4c-4.2,1.2-2.3,7.6,1.9,6.3S689.9,134.2,685.7,135.4z"/>
<path class="st48" d="M662.5,138c0,0-1.8,9.8-3.3,12.2s-4,3.8-4,5.8s4.3,5.4,7.2,5.1"/>
<path class="st7" d="M651,133.6c-3.2,0.7-6.5,0.5-9.6-0.6c0,0,3.3,3.8,7.9,3.7C649.7,135.6,650.3,134.6,651,133.6z"/>
<path class="st7" d="M693.6,133.1c3.2,0.7,6.5,0.5,9.6-0.6c0,0-3.3,3.8-7.9,3.7C694.9,135.1,694.3,134,693.6,133.1z"/>
<path class="st46" d="M662,121.5l-14-0.7c-1.1-0.1-2-1-2-2.2v0c0.1-1.1,1-2,2.2-2l14,0.7c1.1,0.1,2,1,2,2.2v0
	C664.1,120.7,663.1,121.6,662,121.5z"/>
<path class="st46" d="M700.4,123.6l-15.8-0.8c-1.1-0.1-2-1-2-2.2v0c0.1-1.1,1-2,2.2-2l15.8,0.8c1.1,0.1,2,1,2,2.2l0,0
	C702.5,122.8,701.5,123.6,700.4,123.6z"/>
<path class="st48" d="M719.3,152.3c1.3,0.9,2.7,1.7,4.2,2.3c6.2,1.7,12.6-2,14.3-8.2s-2-12.6-8.2-14.3c-0.1,0-0.3-0.1-0.4-0.1
	c-2.8-0.7-5.7-0.3-8.2,1.1c-2,1.1-3.6,2.7-4.8,4.7c-0.5,0.9-0.9,1.9-1.2,2.9"/>
<path class="st6" d="M718.7,152.3c1.3,0.9,2.7,1.7,4.2,2.3c6.2,1.7,12.6-2,14.3-8.2c1.7-6.2-2-12.6-8.2-14.3c-0.1,0-0.3-0.1-0.4-0.1
	c-2.8-0.7-5.7-0.3-8.2,1.1c-2,1.1-3.6,2.7-4.8,4.7c-0.5,0.9-0.9,1.9-1.2,2.9"/>
<path class="st50" d="M723.2,139.4c2.1-1.9,5.1-1.9,6.7,0"/>
<circle class="st9" cx="726" cy="153.3" r="3.5"/>
<path class="st51" d="M664.7,170.2l18.2,1.5c0,0,0.5,9.6-10,8.8S664.7,170.2,664.7,170.2z"/>
<path class="st47" d="M644,270l-70,92.6c-5.9,7.9-21,11.5-30.6,4.2c-8.9-6.8-11.3-19.3-5.4-28.9l80.8-131.2
	c6.3-10.1,17.9-15.5,29.6-14"/>
<path class="st32" d="M568.9,313.9l-28-95c-2.6-10.4-13-16.7-23.4-14.2c-10.4,2.6-16.7,13-14.2,23.4l32.6,128.2"/>
<path class="st43" d="M567.5,313.6l3.5,6.9l-32.7,39.1l-2.4-6.6C535.9,353,563.1,329.1,567.5,313.6z"/>
<polyline class="st5" points="520.2,236.1 547.2,342.6 535.5,352 504.1,229.5 "/>
<path class="st32" d="M537.8,212.8c0,0-15.1-19.7-55.4-11.1c-7.6,1.6-15.1,3.7-22.5,6.3c0,0-6.8,32.7-3.5,39.8s20.7,5.6,20.7,5.6
	l26-14.4"/>
<path class="st5" d="M644,270l-70,92.6c-5.9,7.9-21,11.5-30.5,4.3c-5.2-4-6.1-9.3-8.6-14.9c1,1.2,11.5-10.4,12.2-8.9
	c5.6,11.8,14.4,14.2,23.5,6.8l73.3-97c0,0,49.2,43.7,65.2,131l0,0l-40.3-1.3c0,0-27.7-91.4-34.7-97.9"/>
<path class="st52" d="M491.9,232.1c0,0-2.1-2.8-16.8,1.3"/>
<path class="st32" d="M482.1,218.6c0.1,0.1,14.9,10.7,0.4,13.2"/>
<path class="st53" d="M874.1,383.5H733.9c-1.9,0-3.5-1.6-3.5-3.5c0-0.3,0-0.6,0.1-0.9l28-102.5c0.4-1.5,1.8-2.6,3.4-2.6h140.1
	c1.9,0,3.5,1.6,3.5,3.5c0,0.3,0,0.6-0.1,0.9l-28,102.6C877.1,382.4,875.7,383.5,874.1,383.5z"/>
<path class="st54" d="M915.5,326.4l-0.3,3.6l0,0v0.1l-0.3,3.5c0,0.2-0.1,0.4,0,0.5c-0.3,2.8-1.1,5.4-2.4,7.9
	c-0.2,0.5-0.5,0.9-0.8,1.3c-2.7,4.5-7,8-12,9.7c-0.4,0.2-0.8,0.3-1.2,0.4c-0.3,0.1-0.7,0.2-1,0.3l-1.2,0.3l-2.6,0.6l-1.9,0.4
	l-0.6,0.2l-10,2.3l-0.2,0.1l-0.3,0c0-0.6,0.1-1.2,0.2-1.8c0.1-0.2,0.1-0.3,0.2-0.5l0,0c0.3-0.6,0.7-1.1,1.2-1.6
	c-0.2,0-0.4-0.1-0.6-0.1l-0.6-0.2c-0.1,0-0.2,0-0.2,0c-1.1-0.3-2.1-0.8-2.9-1.5l0,0c-0.4-0.3-0.7-0.6-1-1c-1.8-2-2-4.9-0.4-7.1
	c0.1-0.1,0.2-0.2,0.3-0.3c0.6-0.7,1.5-1.3,2.4-1.6l-1.1-0.2c-1-0.2-1.9-0.5-2.8-1c-0.2-0.1-0.5-0.3-0.7-0.4c-0.4-0.3-0.7-0.6-1-0.9
	l0,0c-0.8-0.8-1.3-1.8-1.6-2.9c-0.6-2.1,0.2-4.3,1.9-5.5c0.3-0.2,0.6-0.4,1-0.6l0.1-0.1c0.3-0.2,0.7-0.3,1.1-0.4l0,0
	c0.3-0.1,0.5-0.1,0.8-0.2c0.6-0.1,1.2-0.1,1.8-0.1c0.2,0,0.4,0,0.5,0c0.2,0,0.3,0,0.5,0h0.2c-1.6-1.1-2.5-3-2.6-4.9
	c0-1.7,0.8-3.3,2.1-4.3c0.1-0.1,0.3-0.2,0.4-0.3c0.1-0.1,0.3-0.2,0.4-0.2c0.4-0.2,0.9-0.4,1.3-0.5c0.6-0.2,1.3-0.3,2-0.3
	c0.4,0,0.8,0,1.2,0c0.1,0,0.3,0,0.4,0h0.2c0.4,0,0.8,0.1,1.3,0.1s1,0.1,1.6,0.2h0.2c2.3,0.3,5.1,0.6,7.5,1c0.2,0,0.5,0.1,0.8,0.1
	c1.3,0.2,2.6,0.3,3.6,0.4c0.7,0.1,1.4,0.1,2.1,0.1l0,0l-1.5-8.4c0,0-21.2-4-21.6-4s-6.1,6-10.8,10.8v-0.9v-0.4v-0.3l0.1-1.1l0.3-6.1
	l0.1-1.4v-0.5l0.1-1.4v-0.1c0.2-3.1,1.2-6,2.8-8.6c0,0,0.1-0.1,0.1-0.1c2.1-2.9,5-4.9,8.4-6c0.4-0.1,0.8-0.2,1.2-0.4
	c2.5-0.7,5.1-1,7.7-1.1c0.1,0,0.2,0,0.2,0h0.8c1.3,0,2.6,0.1,4,0.2l-0.5,5.6l-0.3,3.3l-0.5,6.3c1.5,0.1,3,0.4,4.4,0.7
	c0.1,0,0.2,0,0.3,0.1c1.3,0.3,2.6,0.8,3.9,1.3c0.7,0.3,1.3,0.6,2,0.9C911.2,313.5,916,320.4,915.5,326.4z"/>
<path class="st55" d="M915.1,277.1l-28.6,104.6c-0.3,1.1-1.3,1.8-2.4,1.8H735.9l11.2-40.8l0.2-0.7l6.2-23l1-3.5l7.8-28.5l3.6-13.2
	h146.8c1.4,0,2.5,1.1,2.5,2.5C915.2,276.6,915.1,276.8,915.1,277.1z"/>
<ellipse transform="matrix(0.9791 -0.2035 0.2035 0.9791 -42.7671 144.7465)" class="st43" cx="682.6" cy="280.4" rx="29.2" ry="40.5"/>
<path class="st32" d="M911.1,362.2c-0.2,1.7-1.4,3-3.1,3.5c-2.6,0.9-6.5,0.8-11,0.2c-0.7-0.1-1.4-0.2-2-0.3s-1.4-0.2-2.1-0.4
	s-1.4-0.2-2.2-0.4c-1.2-0.2-2.5-0.5-3.7-0.7c-2.4-0.4-4.4-1.8-5.6-3.8c-0.1-0.2-0.2-0.4-0.3-0.6l0,0c-0.3-0.6-0.4-1.3-0.4-2
	c0-0.6,0.1-1.2,0.2-1.8c0.1-0.2,0.1-0.3,0.2-0.5l0,0c0.3-0.6,0.7-1.1,1.2-1.6c1.3-1.2,3.4-2,6.3-1.8c1.2,0.1,2.5,0.3,3.6,0.5
	c0.6,0.1,1.2,0.2,1.8,0.3c0.9,0.2,1.8,0.3,2.5,0.4c0.7,0.2,1.4,0.2,2.1,0.1c0.1,0,0.2,0,0.3,0l0.9-0.1l6.7-0.9l3.5-0.5
	c0.9,0.8,1.4,1.9,1.6,3.1C911.8,357.3,911.7,359.8,911.1,362.2z"/>
<path class="st33" d="M634,334.1L634,334.1c-11.3-0.3-20.7,8.7-21,20.1c-0.3,11.3,8.7,20.7,20.1,21c0.3,0,0.6,0,0.9,0
	c1.6,0,3.2-0.2,4.8-0.6l0,0L634,334.1z M636.7,367.6c-7.2,1.5-14.3-3.2-15.7-10.4c-1.5-7.2,3.2-14.3,10.4-15.7
	c0.9-0.2,1.8-0.3,2.6-0.3h0v0.1L636.7,367.6L636.7,367.6z M634.1,346c0.1,2.2,0.2,4.4,0.4,6.7C634.3,350.4,634.2,348.1,634.1,346z
	 M634.1,346c0.1,2.2,0.2,4.4,0.4,6.7C634.3,350.4,634.2,348.1,634.1,346z"/>
<path class="st33" d="M689.1,373.2c-3.8,7.3-8.3,11.2-25,11.2c-16.5,0-21.2-3.9-25-11.2c-0.3-0.5-0.5-1.1-0.8-1.7l0,0
	c-0.9-2.2-1.6-4.5-2.1-6.9l0,0c-1.9-8.2-2.5-18.4-2.6-26.3v-0.1c-0.1-2.7-0.1-5.2,0-7.2l0,0c0-3.4,0.1-5.6,0.1-5.6h61
	C694.6,325.5,696.2,359.6,689.1,373.2z"/>
<path class="st7" d="M652.4,308.6c1.1,2.5,1.1,5.4,0,7.9c-0.2,0.6,0,1.2,0.6,1.5c0,0,0,0,0,0c0.1,0.1,0.3,0.1,0.4,0.1
	c0.5,0,0.9-0.3,1-0.7c1.3-3.1,1.3-6.5,0-9.6c0,0,0,0,0-0.1c-1.1-2.5-1.1-5.4,0-7.9c0.2-0.6-0.1-1.2-0.7-1.4
	c-0.5-0.2-1.1,0.1-1.4,0.6C651.1,302.1,651.1,305.5,652.4,308.6L652.4,308.6z"/>
<path class="st7" d="M663,308.6c1.1,2.5,1.1,5.4,0,7.9c-0.2,0.6,0,1.2,0.6,1.5c0.1,0.1,0.3,0.1,0.4,0.1c0.4,0,0.8-0.3,1-0.7
	c1.3-3.1,1.3-6.5,0-9.6v-0.1c-1-2.5-1-5.4,0-7.9c0.3-0.5,0.2-1.2-0.3-1.6c-0.5-0.3-1.2-0.2-1.6,0.3c-0.1,0.1-0.1,0.2-0.1,0.3
	C661.7,302.1,661.7,305.5,663,308.6L663,308.6z"/>
<path class="st7" d="M673.6,308.6c1.1,2.5,1.1,5.4,0,7.9c-0.2,0.6,0,1.2,0.6,1.5c0.1,0.1,0.3,0.1,0.4,0.1c0.4,0,0.8-0.3,1-0.7
	c1.3-3.1,1.3-6.5,0-9.6c0,0,0,0,0,0c-1-2.5-1-5.4,0-7.9c0.2-0.6,0-1.2-0.6-1.5c-0.6-0.2-1.2,0-1.5,0.6
	C672.3,302.1,672.3,305.5,673.6,308.6L673.6,308.6z"/>
<path class="st56" d="M694.7,337.9L694.7,337.9c-0.2,8-0.8,18.2-2.6,26.4l0,0c-0.5,2.4-1.2,4.7-2.1,6.9l0,0
	c-0.3,0.6-0.5,1.2-0.8,1.7c-3.8,7.3-8.6,11.2-25,11.2c-15.1,0-20.2-3.1-23.8-9.1c49.5-1.6,54.4-49.9,54.4-49.9s0.1,2.2,0.1,5.6l0,0
	C694.7,332.7,694.7,335.1,694.7,337.9z"/>
<path class="st35" d="M633.8,368c-1.2,0-2.4-0.2-3.6-0.5c1.4,2.9,3.4,5.5,6,7.5c0.8-0.1,1.6-0.2,2.5-0.4l0,0l-3-11.5l-1.3-8.2
	l-0.8-9.9l0.3-11l0,0c-1.6,0-3.2,0.2-4.8,0.6c-1.6,2.8-2.6,5.9-2.9,9.1c2.3-1.6,4.9-2.5,7.7-2.5h0.1v0.1l2.6,26.3l0,0
	C635.6,367.9,634.7,368,633.8,368z"/>
<path class="st46" d="M707.7,103.1c0,0-0.3,48.8,11.3,59.8l3.6-41.5"/>
<path class="st32" d="M913.4,352.4c-0.2,1.1-0.9,2-1.9,2.4c-1.5,0.7-3,1.1-4.7,1.2c-2.9,0.3-5.8,0.3-8.7,0c-0.7-0.1-1.4-0.1-2.1-0.2
	s-1.6-0.2-2.4-0.3c-0.6-0.1-1.2-0.2-1.9-0.2l-0.5-0.1c-3.1-0.4-6.2-1-9-1.5c-0.2,0-0.4-0.1-0.6-0.1l-0.6-0.2c-0.1,0-0.2,0-0.2,0
	c-1.1-0.3-2.1-0.8-2.9-1.5l0,0c-0.4-0.3-0.7-0.6-1-1c-1.8-2-2-4.9-0.4-7.1c0.1-0.1,0.2-0.2,0.3-0.3c0.6-0.7,1.5-1.3,2.4-1.6
	c0.4-0.2,0.9-0.3,1.3-0.3c0.6-0.1,1.1-0.2,1.7-0.2c0.1,0,0.2,0,0.2,0c0.3,0,0.6,0,0.9,0c2.3,0.2,6.4,0.8,10,1.2c0.5,0,1,0.1,1.5,0.2
	c1,0.1,2,0.2,2.8,0.3s1.5,0.2,2.1,0.2c0.5,0.1,1,0.1,1.4-0.1l4.1-0.5l7.1-1c0.1,0.1,0.2,0.1,0.2,0.2c0.2,0.2,0.4,0.4,0.5,0.7
	C915.1,345.9,913.4,352.4,913.4,352.4z"/>
<path class="st5" d="M456.7,247.2c3.3,7.1,20.7,5.6,20.7,5.6l21.2-11.7l-18.4,4.1c0,0-17.4,1.5-20.7-5.6c-2.3-5,0.3-22.6,2.1-32.7
	l-1.4,0.5C460.2,207.4,453.4,240.1,456.7,247.2z"/>
<path class="st32" d="M914.4,340.9c-0.1,0.8-0.6,1.5-1.3,1.9c-0.4,0.3-0.8,0.5-1.3,0.6c-2,0.7-4.2,1-6.3,1.1c-1.8,0.1-3.8,0.1-5.8,0
	c-0.7,0-1.4-0.1-2.1-0.1c-0.9-0.1-1.9-0.1-2.8-0.2c-0.5,0-1-0.1-1.5-0.1c-3.8-0.4-7.7-0.9-11.1-1.5c-0.1,0-0.1,0-0.2,0
	c-0.5,0-1-0.2-1.4-0.2s-0.9-0.2-1.3-0.2l-1.1-0.2c-1-0.2-1.9-0.5-2.8-1c-0.2-0.1-0.5-0.3-0.7-0.4c-0.4-0.3-0.7-0.6-1-0.9l0,0
	c-0.8-0.8-1.3-1.8-1.6-2.9c-0.6-2.1,0.2-4.3,1.9-5.5c0.3-0.2,0.6-0.4,1-0.6l0.1-0.1c0.3-0.2,0.7-0.3,1.1-0.4l0,0
	c0.3-0.1,0.5-0.1,0.8-0.2c0.6-0.1,1.2-0.1,1.8-0.1c0.2,0,0.4,0,0.5,0c0.2,0,0.3,0,0.5,0h0.2c0.9,0.1,2.1,0.2,3.5,0.4l0.7,0.1l0,0
	l7.6,0.9c1,0.1,2,0.2,3,0.3c0.4,0.1,0.8,0.1,1.2,0.1c1.2,0.1,2.3,0.2,3.2,0.3c0.7,0.1,1.4,0.1,2.1,0.2c0.3,0,0.7,0,1-0.1l1.7-0.2
	l9.4-1.3c0.5,0.4,0.8,0.8,1.1,1.4c0.3,0.8,0.5,1.6,0.6,2.4C915.1,336.5,914.9,338.7,914.4,340.9z"/>
<path class="st57" d="M712.9,93.1c-4.3-0.5-69.2-2.1-69.2-2.1l-7.3,29l2.8,5l22.4-11.9l26.1-8.3l-12.2,20.1l18.7-6.6l25.2-18.1
	L712.9,93.1z"/>
<path class="st32" d="M915.3,330v0.1c-0.1,0.6-0.5,1.2-0.9,1.6c-1.7,1.6-5.6,2.1-10.2,2c-1,0-2.1,0-3.2-0.1
	c-0.7-0.1-1.3-0.1-2.1-0.2c-1-0.1-2.1-0.2-3.1-0.3l-1.2-0.1c-2.5-0.3-4.9-0.7-7.2-1.1h-0.2l-2.2-0.4h-0.2c-0.4-0.1-0.8-0.2-1.2-0.2
	c-0.9-0.2-1.7-0.5-2.5-0.9c-0.3-0.2-0.6-0.3-0.9-0.6c-0.1-0.1-0.1-0.1-0.2-0.1c-1.6-1.1-2.5-3-2.6-4.9c0-1.7,0.8-3.3,2.1-4.3
	c0.1-0.1,0.3-0.2,0.4-0.3c0.1-0.1,0.3-0.2,0.4-0.2c0.4-0.2,0.9-0.4,1.3-0.5c0.6-0.2,1.3-0.3,2-0.3c0.4,0,0.8,0,1.2,0
	c0.1,0,0.3,0,0.4,0h0.2c0.4,0,0.8,0.1,1.3,0.1s1,0.1,1.6,0.2h0.2c2.3,0.3,5.1,0.6,7.5,1c0.2,0,0.5,0.1,0.8,0.1
	c1.3,0.2,2.6,0.3,3.6,0.4c0.7,0.1,1.4,0.1,2.1,0.1l0,0c0.2,0,0.4,0,0.6-0.1"/>
<path class="st32" d="M496.7,219.1c0,0-12,5.6-6.2,24.8l-16.9,9.5c-0.2,0.1-0.3,0.3-0.2,0.5c0.1,0.1,0.2,0.2,0.4,0.2
	c8.4-1.2,39.7-6.4,42.1-18.9"/>
<path class="st50" d="M717.2,97.1c0,0-14.8,23.6-41.7,27.8c0,0,9.8-12.2,12.7-20.3c0,0-47,12.4-50.7,23"/>
<ellipse transform="matrix(0.7036 -0.7106 0.7106 0.7036 9.5366 687.2935)" class="st58" cx="828.7" cy="332.2" rx="35.5" ry="27.4"/>
<polygon class="st9" points="688.5,292.3 702.6,291.9 713.5,270.9 709.2,252.8 "/>
<polygon class="st9" points="692.1,234.6 710.3,276 718.5,262.6 707.1,234.2 "/>
<polygon class="st9" points="712.6,291.7 726.7,291.3 737.5,270.2 733.2,252.2 "/>
<polygon class="st9" points="716.2,234 734.3,275.4 742.5,262 731.1,233.6 "/>
<polygon class="st7" points="655.2,355.7 659.8,355.6 663.5,348.7 662.1,342.7 "/>
<polygon class="st7" points="656.5,336.6 662.4,350.4 665.2,346 661.5,336.6 "/>
<polygon class="st7" points="663.1,355.6 667.8,355.5 671.4,348.6 670.1,342.6 "/>
<polygon class="st7" points="664.5,336.5 670.4,350.3 673.1,345.9 669.4,336.4 "/>
<path class="st59" d="M908,365.7c-2.6,0.9-6.5,0.8-11,0.2c-0.7-0.1-1.4-0.2-2-0.3s-1.4-0.2-2.1-0.4s-1.4-0.2-2.2-0.4
	c-1.2-0.2-2.5-0.5-3.7-0.7c-2.4-0.4-4.4-1.8-5.6-3.8c-0.1-0.2-0.2-0.4-0.3-0.6l0,0c-0.3-0.6-0.4-1.3-0.4-2c0-0.6,0.1-1.2,0.2-1.8
	c0.1-0.2,0.1-0.3,0.2-0.5l0,0c0.3-0.6,0.7-1.1,1.2-1.6c-0.2,0-0.4-0.1-0.6-0.1l-0.6-0.2c-0.1,0-0.2,0-0.2,0
	c-1.1-0.3-2.1-0.8-2.9-1.5l0,0c-0.4-0.3-0.7-0.6-1-1c-1.8-2-2-4.9-0.4-7.1c0.1-0.1,0.2-0.2,0.3-0.3c0.6-0.7,1.5-1.3,2.4-1.6
	l-1.1-0.2c-1-0.2-1.9-0.5-2.8-1c-0.2-0.1-0.5-0.3-0.7-0.4c-0.4-0.3-0.7-0.6-1-0.9l0,0c-0.8-0.8-1.3-1.8-1.6-2.9
	c-0.6-2.1,0.2-4.3,1.9-5.5c0.3-0.2,0.6-0.4,1-0.6l0.1-0.1c0.3-0.2,0.7-0.3,1.1-0.4l0,0c0.3-0.1,0.5-0.1,0.8-0.2
	c0.6-0.1,1.2-0.1,1.8-0.1c0.2,0,0.4,0,0.5,0c0.2,0,0.3,0,0.5,0h0.2c-1.6-1.1-2.5-3-2.6-4.9c0-1.7,0.8-3.3,2.1-4.3
	c0.1-0.1,0.3-0.2,0.4-0.3c0.1-0.1,0.3-0.2,0.4-0.2c0.4-0.2,0.9-0.4,1.3-0.5c0.6-0.2,1.3-0.3,2-0.3c0.4,0,0.8,0,1.2,0
	c0.1,0,0.3,0,0.4,0h0.2c0.4,0,0.8,0.1,1.3,0.1s1,0.1,1.6,0.2h0.2c2.3,0.3,5.1,0.6,7.5,1c0.2,0,0.5,0.1,0.8,0.1
	c1.3,0.2,2.6,0.3,3.6,0.4c0.7,0.1,1.4,0.1,2.1,0.1l0,0l0.1,0.5c0,0,0.5,4.2,1.3,10.1c0.1,0.7,0.2,1.4,0.3,2.1c0.3,2.8,0.8,5.9,1.1,9
	l0.2,1.6c0.2,1.8,0.4,3.5,0.7,5.3c0.1,0.8,0.2,1.7,0.3,2.5c0.2,1.3,0.3,2.6,0.5,3.8C907.3,359.9,907.8,363.3,908,365.7z"/>
<path class="st50" d="M660.4,139.1c0-1-0.2-2.1-0.7-3c-1.5-2.9-5.1-4-8-2.5c-0.9,0.5-1.7,1.2-2.2,2c-0.6,0.9-0.9,1.9-1,2.9"/>
<path class="st9" d="M703.7,299.4l-1.7,5.5l-2.6,0.2l2.7-9l2.6-0.2l2.5,5l1.6-5.2l2.6-0.2l-2.7,9l-2.5,0.1L703.7,299.4z"/>
<path class="st9" d="M715.8,297.4c2.1-0.1,3.3,1.2,2.6,3.4l-0.1,0.4l-5.1,0.3c0,0.6,0.4,1.1,1.5,1.1c0.7-0.1,1.3-0.3,1.9-0.7
	l0.6,1.2c-1,0.6-2.1,1-3.3,1c-2.2,0.1-3.5-1.1-2.9-3.2C711.7,299,713.6,297.6,715.8,297.4z M713.5,300.3l3-0.2
	c0.1-0.5-0.1-1.1-1.2-1C714.6,299.1,713.9,299.6,713.5,300.3L713.5,300.3z"/>
<path class="st9" d="M724.8,299.5l-2.6,4.1l-2.5,0.2l-0.2-6.4l2.4-0.1v3.9l2.6-4.1l2-0.1l0.2,3.9l2.4-4.1l2.4-0.1l-4.1,6.7l-2.5,0.1
	L724.8,299.5z"/>
<path class="st9" d="M731.2,298.6c1-2.9,3.7-4.8,6.7-5c2.5-0.1,3.4,1,3.7,2.2l-2.5,1.1c-0.2-0.8-1-1.3-1.8-1.2
	c-1.6,0.2-3,1.2-3.5,2.8c-0.4,0.9,0,1.9,0.9,2.3c0.3,0.2,0.7,0.2,1,0.1c1-0.1,2-0.6,2.6-1.5l1.9,0.8c-1.3,1.6-3.1,2.6-5.1,2.7
	C732.2,303.2,730.4,301.4,731.2,298.6z"/>
<path class="st9" d="M741.2,299.3c0.8-2.1,2.7-3.6,5-3.7c2.5-0.1,3.5,1.3,2.9,3.2c-0.8,2.1-2.7,3.6-5,3.7
	C741.6,302.6,740.6,301.1,741.2,299.3z M746.7,298.9c0.3-0.9-0.1-1.5-1.1-1.5c-0.9,0.1-1.7,0.8-2,1.7c-0.3,0.9,0.1,1.6,1.1,1.5
	C745.6,300.5,746.4,299.9,746.7,298.9L746.7,298.9z"/>
<path class="st60" d="M832.7,323.9c-0.5,0.2-0.7,0.7-0.5,1.2c0,0,0,0.1,0,0.1l0.9,1.8c0.3,0.5,0.8,0.7,1.4,0.5
	c0.4-0.1,0.8-0.1,1.2-0.1c2.8,0,5,2.2,5,5s-2.2,5-5,5s-5-2.2-5-5c0-4.9-4-8.9-8.9-8.9c-4.9,0-8.9,4-8.9,8.9c0,4.9,4,8.9,8.9,8.9l0,0
	c1,0,2-0.2,2.9-0.5c0.5-0.2,0.7-0.7,0.5-1.2c0,0,0-0.1,0-0.1l-0.9-1.8c-0.3-0.5-0.8-0.7-1.4-0.5c-0.4,0.1-0.8,0.1-1.2,0.1
	c-2.8,0-5-2.2-5-5s2.2-5,5-5s5,2.2,5,5v0.9c0.5,4.9,4.8,8.5,9.7,8.1c4.9-0.5,8.5-4.8,8.1-9.7c-0.4-4.6-4.3-8.1-8.9-8.1
	C834.6,323.5,833.7,323.6,832.7,323.9z"/>
<path class="st7" d="M648.6,362.3v4.6h-1.9v-7.5h2l3.1,4.4v-4.4h2v7.5h-1.9L648.6,362.3z"/>
<path class="st7" d="M657.5,361.3c1.5,0,2.8,1.2,2.8,2.8c0,0.1,0,0.2,0,0.2v0.4h-3.9c0.2,0.6,0.7,1.1,1.4,1c0.5,0,1-0.2,1.3-0.5
	l0.7,1.1c-0.7,0.5-1.5,0.8-2.3,0.7c-1.6,0-2.9-1.2-2.9-2.8C654.6,362.6,655.9,361.3,657.5,361.3L657.5,361.3z M656.4,363.5h2.2
	c-0.1-0.6-0.6-1-1.1-0.9C656.9,362.6,656.5,363,656.4,363.5z"/>
<path class="st7" d="M665,363.5l-1,3.4h-1.9l-1.6-5.5h1.8l0.9,3.4l1.1-3.4h1.5l1.1,3.4l0.9-3.4h1.8l-1.6,5.5H666L665,363.5z"/>
<path class="st7" d="M669.7,363.1c0-2.1,1.7-3.9,3.8-3.9c0.1,0,0.1,0,0.2,0c1.4-0.1,2.7,0.7,3.3,2l-1.7,0.8c-0.3-0.7-1-1.1-1.7-1.1
	c-1.2,0.1-2.1,1.1-2,2.3c0.1,1.1,0.9,2,2,2c0.7,0,1.4-0.4,1.7-1.1l1.7,0.8c-0.6,1.3-1.9,2.1-3.3,2c-2.1,0.1-3.9-1.6-4-3.7
	C669.7,363.2,669.7,363.1,669.7,363.1z"/>
<path class="st7" d="M677.5,364.1c-0.1-1.7,1.2-3.1,2.9-3.1c1.7-0.1,3.1,1.2,3.1,2.9c0.1,1.7-1.2,3.1-2.9,3.1c0,0-0.1,0-0.1,0
	c-1.5,0.1-2.9-1.1-3-2.6C677.5,364.3,677.5,364.2,677.5,364.1z M681.7,364.1c0.1-0.7-0.4-1.2-1.1-1.3c0,0-0.1,0-0.1,0
	c-0.7,0.1-1.3,0.8-1.2,1.5c0.1,0.6,0.6,1.1,1.2,1.2c0.7,0,1.2-0.5,1.2-1.2C681.7,364.2,681.7,364.2,681.7,364.1z"/>
<path class="st61" d="M914,390.6c0,3.7-0.9,6.7-2.1,6.7H535.1c-1.2,0-2.1-3-2.1-6.7s0.9-6.7,2.1-6.7H912
	C913.1,383.9,914,386.9,914,390.6z"/>
<path class="st61" d="M381.9,390.6c0,3.7-0.9,6.7-2.1,6.7H2.9c-1.1,0-2.1-3-2.1-6.7s0.9-6.7,2.1-6.7h376.9
	C380.9,383.9,381.9,386.9,381.9,390.6z"/>
<circle class="st27" cx="30.9" cy="351.2" r="11.4"/>
<path class="st62" d="M261.4,384.7h-70v-8.9h62.3C257.9,375.9,261.3,379.9,261.4,384.7L261.4,384.7z"/>
<path class="st7" d="M262.5,384c-0.3-5.2-4.2-9.3-8.8-9.3h-63.4v11.1h72.2v-1.3C262.5,384.4,262.5,384.2,262.5,384z M253.6,377
	c3.3,0,6,2.9,6.5,6.6h-67.6V377H253.6z"/>
<path class="st62" d="M198,384.5H46.2l-17-100.8c-1.5-8.6,4.3-16.6,11.9-16.6h127.2c5.8,0,10.8,4.7,11.9,11.3L198,384.5z"/>
<path class="st7" d="M36.5,319.9v4.8c0,0.5,0.4,0.8,0.8,0.8h0.1L36.5,319.9z M199.2,384.8L199.2,384.8v-0.2l-0.2-1v-0.1l-0.2-1.4
	l-0.5-3.1l-0.3-2l-0.1-0.4l-0.1-0.8l-0.1-0.6l-0.1-0.5l-0.1-0.7l-3.1-18.7l-11.8-70.1l-0.5-2.9l-0.7-4.1c-0.3-1.9-1-3.8-1.9-5.4
	c-1.5-2.6-3.8-4.7-6.5-5.9c-0.9-0.4-1.9-0.6-2.9-0.8c-0.2,0-0.3-0.1-0.5-0.1c-0.4,0-0.8-0.1-1.2-0.1H41.1c-1.4,0-2.7,0.2-4,0.7
	c-0.3,0.1-0.7,0.3-1.1,0.5c-0.6,0.3-1.1,0.6-1.7,1c-1,0.7-2,1.6-2.8,2.5c-2,2.3-3.2,5.2-3.6,8.2c-0.3,1.7-0.2,3.5,0,5.2l3.7,22.3
	l0.2,1l0.2,1l4.2,25.3l1.3,7.8l0.1,0.5l0.4,2.3l0.1,0.8l0.1,0.9l5.3,31.5l0.2,1l0.2,1l0.6,3.8l0.1,0.6v0.3l0.1,0.6l0.1,0.3v0.3
	l0.1,0.6h154.3L199.2,384.8z M46.1,377.4l-0.2-1l-0.2-1.1l-1.3-7.8l-0.5-2.9l-0.6-3.7l-0.1-0.7l-2.4-14.4l-0.2-0.9l-0.2-0.8
	l-0.1-0.4l-0.3-1.9l-0.1-0.5l-0.8-4.8l-0.5-3l-1.3-7.8l-1-5.7l-1.6-9.6l-0.3-1.6l-0.2-1.3l-4-24c-0.3-1.5-0.3-3.1,0-4.6
	c0.3-2.6,1.4-5,3-7c1.9-2.4,4.8-3.8,7.8-3.8h127.2c0.3,0,0.6,0,0.9,0.1c0.5,0,1.1,0.1,1.6,0.3c0.6,0.2,1.1,0.4,1.6,0.6
	c1.6,0.8,3,1.9,4.1,3.4c1.3,1.8,2.2,3.9,2.6,6.1l0.6,3.7l0.2,1.2l12.2,72.4l3.1,18.3l0.1,0.5l0.1,0.6l0.1,0.6l0.1,0.6l0.1,0.5
	l0.4,2.2l0.7,4.2l0,0H47.1l-0.1-0.6l-0.1-0.9L46.1,377.4z"/>
<path class="st55" d="M192.4,384.5H40.6l-17-100.8c-1.5-8.6,4.3-16.6,11.9-16.6h127.2c5.8,0,10.8,4.7,11.9,11.3L192.4,384.5z"/>
<path class="st9" d="M106.5,303.9c1.2-1.6,3.1-2.5,5.1-2.6c0.8,3.6-1.5,7.2-5.1,8c-0.4,0.1-0.8,0.1-1.3,0.2
	C104.9,307.5,105.3,305.5,106.5,303.9z"/>
<path class="st9" d="M102.8,311.2c3.9-0.5,7.5,2.3,8,6.3l0.4,2.8c0.2,1.3,0.7,2.4,1.7,3.3c2.7,2,4.5,5.1,4.9,8.4
	c0.8,6.8-4,13-10.8,13.9s-13-4-13.8-10.9l0,0c-0.4-3.4,0.6-6.7,2.7-9.4c0.7-1.1,1-2.3,0.8-3.6l-0.2-2.8
	C95.9,315.2,98.8,311.6,102.8,311.2L102.8,311.2z"/>
<polygon class="st63" points="192.4,384.5 40.6,384.5 32.8,333.5 182.5,332.1 "/>
<path class="st60" d="M200.6,379.8c0,2.6-1.8,4.7-4.1,4.7s-4.1-2.1-4.1-4.7s1.8-4.7,4.1-4.7S200.6,377.2,200.6,379.8z"/>
<path class="st7" d="M201.6,378.6c-0.1-0.6-0.3-1.1-0.5-1.6c-0.2-0.4-0.4-0.8-0.7-1.1c-0.4-0.5-0.8-0.8-1.3-1.1
	c-0.5-0.3-1.1-0.6-1.6-0.7c-0.3-0.1-0.6-0.1-0.9-0.1c-0.1,0-0.2,0-0.2,0c-0.4,0-0.8,0.1-1.1,0.2c-0.4,0.1-0.8,0.3-1.2,0.5
	c-0.5,0.3-0.9,0.7-1.3,1.1l-0.1,0.2c-0.5,0.7-0.9,1.5-1.1,2.4l0,0c0,0,0,0.2,0,0.3c0,0.2,0,0.5-0.1,0.7c0,0.1,0,0.1,0,0.2
	c0,0.4,0,0.9,0.1,1.3c0.1,0.7,0.4,1.3,0.7,1.9c0,0,0,0,0,0.1c0,0.1,0.1,0.2,0.2,0.3c0,0.1,0.1,0.1,0.2,0.2c0.2,0.3,0.5,0.6,0.9,0.9
	c0,0,0.1,0.1,0.1,0.1c0.1,0,0.1,0.1,0.2,0.1c0.1,0.1,0.2,0.1,0.3,0.2c0.8,0.5,1.6,0.7,2.6,0.7c1,0,1.9-0.3,2.7-0.9
	c0,0,0.1,0,0.1-0.1c0.1,0,0.1-0.1,0.2-0.1c0.4-0.3,0.7-0.6,1-1c0.8-1.1,1.3-2.4,1.2-3.8C201.8,379.4,201.7,379,201.6,378.6z
	 M195.5,376.4c0.3-0.1,0.7-0.2,1-0.2h0.1c0.4,0,0.9,0.2,1.2,0.4c0.2,0.1,0.3,0.2,0.5,0.4c0.5,0.5,0.9,1.2,1,1.9
	c0.1,0.3,0.1,0.6,0.1,1c0,0.8-0.2,1.6-0.7,2.3c-0.3,0.4-0.6,0.7-1,1c-0.3,0.2-0.7,0.3-1.1,0.3c-0.1,0-0.1,0-0.2,0
	c-1.6,0-3-1.6-3-3.6c0-0.1,0-0.3,0-0.4c0-0.9,0.4-1.8,1.1-2.4C194.8,376.7,195.2,376.5,195.5,376.4z"/>
<path class="st7" d="M194.1,385.9v-0.2l-0.1-0.7v-0.2v-0.1v-0.1l-0.1-0.9v-0.2v-0.1l-0.6-3.8l-0.3-1.6l-0.1-0.9l-0.1-0.9v-0.2
	l-0.2-1.1l-3-18L177,282.2l-0.3-1.9L176,278c-0.3-2-1-3.9-2.1-5.7c-0.5-0.8-1-1.5-1.6-2.2c-0.5-0.6-1-1.1-1.6-1.5
	c-0.5-0.4-1-0.8-1.5-1.1c-0.2-0.1-0.4-0.3-0.6-0.4c-0.1,0-0.2-0.1-0.2-0.1c-0.9-0.5-1.9-0.8-2.9-1c-0.8-0.2-1.6-0.3-2.5-0.3H35.6
	c-1,0-2,0.1-2.9,0.4c-2.6,0.7-4.9,2.1-6.6,4.2c-1.8,2.2-3,4.9-3.5,7.7c-0.3,1.9-0.3,3.8,0,5.7l3.7,22.2l0.1,0.8l0.1,0.9l5.7,33.7
	l0.1,0.5v0l0.2,1.2l0.2,1.1l0.1,0.8l0.1,0.9l1.7,9.8l0.7,4.2l1.8,11l1,5.7l0.7,4.4l0.1,0.9l0.2,0.9l0.3,2l0.1,0.4l0.1,0.4l0.1,0.5
	h154.5L194.1,385.9z M41.6,383.6l-0.4-2.2l-0.2-0.9l-0.2-1l-3.5-21v-0.1l-1-6l-1.1-6.8l-0.2-0.9L35,344l-0.4-2.3l-0.1-0.5l-1.3-7.8
	l-0.4-2.4l-1-6.1l0,0l-3-17.7l-0.1-0.9l-0.1-0.9l-3.7-22.2c-0.3-1.7-0.3-3.3,0-5c0.4-2.4,1.4-4.6,3-6.5c1.6-2.1,4-3.4,6.6-3.8
	c0.4-0.1,0.8-0.1,1.2-0.1H163c0.7,0,1.5,0.1,2.2,0.3c0.3,0.1,0.6,0.2,0.9,0.3c1,0.4,1.9,0.9,2.8,1.5c0.9,0.7,1.8,1.5,2.4,2.5
	c1.3,1.7,2.1,3.8,2.4,5.9l0.6,3.7l10.9,64.9l1.7,10.4l3.2,19.1l0.5,3.1l0.6,3.7v0l0.1,0.3L41.6,383.6z"/>
<path class="st52" d="M234.4,354.7l28.7,21.3c2.2,1.6,2.7,4.7,1.1,6.9l0,0c-1.6,2.2-4.7,2.7-6.9,1.1l-24.4-14.2"/>
<path class="st52" d="M220.6,356.4l27.3,20.2c2.1,1.5,2.6,4.5,1.1,6.6l0,0c-1.5,2.1-4.5,2.6-6.6,1.1l-23.2-13.5"/>
<path class="st52" d="M207.8,359.3l24.9,18.4c1.9,1.4,2.4,4.1,1,6c0,0,0,0,0,0l0,0c-1.4,1.9-4.1,2.4-6,1c0,0,0,0,0,0l-21.2-12.3"/>
<path class="st64" d="M366.1,341.5c-2,3-7.9,7-7.9,7c-1.5,1.2-3.2,2.1-5,2.6c-5.2,1.7-10.9,1.8-16.1,0.3
	c-16.5-3.9-31.7-35.4-41.4-60.6c-1.4-3.8-2.8-7.4-3.9-10.7c-0.3-0.9-0.6-1.7-0.9-2.5c-1.4-4-2.5-7.5-3.5-10.5
	c-0.1-0.4-0.2-0.8-0.4-1.2c-1.5-4.7-2.3-7.6-2.3-7.6"/>
<path class="st64" d="M534.9,352.4c0,0,27.1-18.3,33.1-41.6"/>
</svg>
