<svg id="Capa_1" enable-background="new 0 0 512 512" height="512" viewBox="0 0 512 512" width="512" xmlns="http://www.w3.org/2000/svg"><g><g><path d="m458.15 55.87v448.63h-404.3v-448.63l204.372-5.537z" fill="#ddeafb"/><path d="m458.15 55.87v448.63h-30.19v-448.63l12.373-5.537z" fill="#cbe2ff"/><path d="m458.15 28.44v27.43h-404.3v-27.43c0-11.57 9.38-20.94 20.94-20.94h362.42c11.56 0 20.94 9.37 20.94 20.94z" fill="#528fd8"/><path d="m458.15 28.44v27.43h-30.19v-27.43c0-11.57-9.37-20.94-20.94-20.94h30.19c11.56 0 20.94 9.37 20.94 20.94z" fill="#0473ce"/><path d="m207.91 55.87v197.42h-29.28l-69.43-9.54-69.436 9.54h-29.274v-197.42z" fill="#fff9df"/><path d="m185.91 55.87h22v197.42h-22z" fill="#fff0ad"/><path d="m243.55 93.03h168.37v27.07h-168.37z" fill="#528fd8"/><path d="m349.12 346.76 4.38 20.74-4.38 16.07h-244.48v-36.81z" fill="#fe646f"/><path d="m385.49 93.03h26.43v27.07h-26.43z" fill="#0473ce"/><path d="m349.12 346.76h58.24v36.81h-58.24z" fill="#528fd8"/><path d="m385.89 346.76h21.47v36.81h-21.47z" fill="#0473ce"/><path d="m306.17 423.64 4.83 18.405-4.83 18.405h-201.53v-36.81z" fill="#fe646f"/><path d="m306.17 423.64h101.19v36.81h-101.19z" fill="#528fd8"/><path d="m385.89 423.64h21.47v36.81h-21.47z" fill="#0473ce"/><g fill="#fe646f"><path d="m287.762 149.339h27.07v27.07h-27.07z"/><path d="m349.122 187.778h27.07v27.07h-27.07z"/><path d="m243.548 226.218h27.07v27.07h-27.07z"/></g><path d="m169.5 184.998v58.752h-120.61v-60.468c0-8.007 1.039-15.981 3.09-23.721l.052-.196c2.514-9.487 4.671-19.082 5.978-28.81.743-5.533 2.221-10.956 4.401-16.116 4.11-9.72 10.67-17.71 18.69-23.26 8.03-5.56 17.52-8.68 27.46-8.68s19.43 3.12 27.46 8.68c8.02 5.55 14.58 13.54 18.69 23.26 1.63 3.87 2.87 7.89 3.71 11.99.138.683.265 1.369.381 2.057 1.674 9.973 3.743 19.876 6.688 29.551 2.658 8.741 4.01 17.826 4.01 26.961z" fill="#87523e"/><path d="m178.63 228.6v24.69h-138.87v-24.69c0-22.07 17.88-39.95 39.95-39.95h58.97c22.06 0 39.95 17.88 39.95 39.95z" fill="#fe646f"/><path d="m178.63 228.6v24.69h-24.5v-24.69c0-22.07-17.89-39.95-39.95-39.95h24.5c22.06 0 39.95 17.88 39.95 39.95z" fill="#fd4755"/><path d="m141.87 140.88v14.47c0 18.39-14.9 33.3-33.3 33.3-3.1 0-6.1-.42-8.95-1.23-.65-.17-1.27-.37-1.9-.59-13.05-4.48-22.44-16.89-22.44-31.48v-13.62c9.28-.68 33.15-4.5 42.72-25.73 0 0 7.38 20.12 23.87 24.88z" fill="#ffcebf"/></g><g><path d="m501.511 497h-35.864v-468.562c0-15.681-12.757-28.438-28.438-28.438h-362.418c-15.681 0-28.438 12.757-28.438 28.438v19.932h-35.864c-4.142 0-7.5 3.357-7.5 7.5v197.419c0 4.143 3.358 7.5 7.5 7.5h35.864v236.211h-35.864c-4.142 0-7.5 3.357-7.5 7.5s3.358 7.5 7.5 7.5h87.711c4.142 0 7.5-3.357 7.5-7.5s-3.358-7.5-7.5-7.5h-36.847v-236.212h146.555c4.142 0 7.5-3.357 7.5-7.5v-189.919h147.258c4.142 0 7.5-3.357 7.5-7.5s-3.358-7.5-7.5-7.5h-301.313v-19.931c0-7.41 6.028-13.438 13.438-13.438h362.418c7.41 0 13.438 6.028 13.438 13.438v19.932h-52.647c-4.142 0-7.5 3.357-7.5 7.5s3.358 7.5 7.5 7.5h52.646v433.63h-316.646c-4.142 0-7.5 3.357-7.5 7.5s3.358 7.5 7.5 7.5h367.511c4.142 0 7.5-3.357 7.5-7.5s-3.358-7.5-7.5-7.5zm-339.511-309.719c-6.545-3.692-14.01-5.86-21.877-6.096 5.775-7.041 9.247-16.039 9.247-25.835v-14.47c0-3.341-2.21-6.279-5.42-7.206-12.556-3.624-18.855-20.112-18.909-20.257-1.05-2.861-3.726-4.803-6.772-4.912-3.037-.089-5.855 1.636-7.107 4.413-7.852 17.418-28.093 20.721-36.431 21.333-3.918.287-6.951 3.55-6.951 7.479v13.619c0 9.675 3.412 18.755 9.254 25.884-7.472.417-14.483 2.577-20.645 6.07 0-8.825.621-17.445 2.891-26.018 3-11.318 4.958-20.766 6.161-29.732 2.942-21.883 19.902-41.553 43.119-41.553 22.467 0 39.309 18.554 42.844 39.729 1.99 11.855 4.186 21.544 6.909 30.492 2.683 8.816 3.729 17.87 3.687 27.06zm-27.63-31.931c0 14.041-11.76 25.8-25.8 25.801-14.049.001-25.79-11.744-25.79-25.801v-6.977c10.041-1.674 24.418-6.099 34.635-17.723 3.801 5.525 9.372 11.648 16.955 15.345zm66.038-91.981v182.419h-153.144v-17.191c0-17.889 14.554-32.442 32.442-32.442h21.364v18.694c0 4.143 3.358 7.5 7.5 7.5s7.5-3.357 7.5-7.5v-18.694h22.612c9.885 0 18.931 4.464 24.953 11.689.055.069.11.136.167.202 2.901 3.538 5.085 7.722 6.292 12.366 1.041 4.01 5.138 6.412 9.145 5.373 4.009-1.041 6.415-5.136 5.373-9.145-1.538-5.919-4.158-11.331-7.612-16.05 0-15.171.143-30.015-4.336-44.735-2.531-8.315-4.585-17.406-6.466-28.605-4.749-28.351-27.888-52.25-57.638-52.25-30.676 0-54.051 25.275-57.984 54.558-1.119 8.329-2.959 17.19-5.794 27.887-3.84 14.213-3.392 28.667-3.392 43.222-5.732 7.842-9.126 17.495-9.126 27.931v17.191h-14.275v-182.42z"/><path d="m243.548 127.603h168.377c4.142 0 7.5-3.357 7.5-7.5v-27.07c0-4.143-3.358-7.5-7.5-7.5h-168.377c-4.142 0-7.5 3.357-7.5 7.5v27.07c0 4.142 3.358 7.5 7.5 7.5zm7.5-27.071h153.377v12.07h-153.377z"/><path d="m97.137 346.758v36.815c0 4.143 3.358 7.5 7.5 7.5h302.726c4.142 0 7.5-3.357 7.5-7.5v-36.815c0-4.143-3.358-7.5-7.5-7.5h-302.726c-4.142 0-7.5 3.357-7.5 7.5zm302.726 29.315h-43.241v-21.815h43.241zm-287.726-21.815h229.484v21.815h-229.484z"/><path d="m97.137 460.453c0 4.143 3.358 7.5 7.5 7.5h302.726c4.142 0 7.5-3.357 7.5-7.5v-36.816c0-4.143-3.358-7.5-7.5-7.5h-302.726c-4.142 0-7.5 3.357-7.5 7.5zm302.726-7.5h-86.193v-21.816h86.193zm-287.726-21.816h186.533v21.816h-186.533z"/><path d="m243.548 170.374h36.714v6.035c0 4.143 3.358 7.5 7.5 7.5h27.07c4.142 0 7.5-3.357 7.5-7.5v-6.035h89.592c4.142 0 7.5-3.357 7.5-7.5s-3.358-7.5-7.5-7.5h-89.592v-6.035c0-4.143-3.358-7.5-7.5-7.5h-27.07c-4.142 0-7.5 3.357-7.5 7.5v6.035h-36.714c-4.142 0-7.5 3.357-7.5 7.5s3.358 7.5 7.5 7.5zm51.714-13.535h12.07v12.07h-12.07z"/><path d="m243.548 208.813h98.074v6.035c0 4.143 3.358 7.5 7.5 7.5h27.07c4.142 0 7.5-3.357 7.5-7.5v-6.035h28.233c4.142 0 7.5-3.357 7.5-7.5s-3.358-7.5-7.5-7.5h-28.233v-6.035c0-4.143-3.358-7.5-7.5-7.5h-27.07c-4.142 0-7.5 3.357-7.5 7.5v6.035h-98.074c-4.142 0-7.5 3.357-7.5 7.5s3.358 7.5 7.5 7.5zm113.074-13.535h12.07v12.07h-12.07z"/><path d="m236.048 253.288c0 4.143 3.358 7.5 7.5 7.5h27.07c4.142 0 7.5-3.357 7.5-7.5v-6.035h133.807c4.142 0 7.5-3.357 7.5-7.5s-3.358-7.5-7.5-7.5h-133.807v-6.035c0-4.143-3.358-7.5-7.5-7.5h-27.07c-4.142 0-7.5 3.357-7.5 7.5zm15-19.57h12.07v12.07h-12.07z"/><path d="m181.207 306.694c0 4.143 3.358 7.5 7.5 7.5h139.029c4.142 0 7.5-3.357 7.5-7.5s-3.358-7.5-7.5-7.5h-139.029c-4.142 0-7.5 3.358-7.5 7.5z"/></g></g></svg>