<svg height="512" viewBox="0 0 512 512" width="512" xmlns="http://www.w3.org/2000/svg"><g id="Filled_outline" data-name="Filled outline"><path d="m392 24v432h-304v-368l64-64z" fill="#60d1e0"/><path d="m392 54.51v401.49h-304v-15.17z" fill="#5ac6d4"/><path d="m392 24h32v432h-32z" fill="#348fd9"/><path d="m400 392-43.875-65.812a24.563 24.563 0 0 1 -4.125-13.625 24.563 24.563 0 0 1 24.563-24.563h2.291a24.562 24.562 0 0 1 20.438 10.938l24.708 37.062v-96a36 36 0 0 1 33.231 22.154 400.013 400.013 0 0 1 30.769 153.846v72h-80l-2.232-3.348a92.474 92.474 0 0 1 -5.768-92.652z" fill="#fec9a3"/><path d="m272 64h80v88h-80z" fill="#f35244"/><path d="m323.606 122.992a16 16 0 1 0 -23.212 0 23.991 23.991 0 0 0 -12.394 21.008v8h48v-8a23.991 23.991 0 0 0 -12.394-21.008z" fill="#7a432a"/><path d="m88 88h64v-64z" fill="#b7e7eb"/><path d="m112 392 43.875-65.812a24.563 24.563 0 0 0 4.125-13.625 24.563 24.563 0 0 0 -24.563-24.563h-2.291a24.562 24.562 0 0 0 -20.438 10.938l-24.708 37.062v-96a36 36 0 0 0 -33.231 22.154 400.013 400.013 0 0 0 -30.769 153.846v72h80l2.232-3.348a92.474 92.474 0 0 0 5.768-92.652z" fill="#fec9a3"/><path d="m464.616 259.077a43.867 43.867 0 0 0 -32.616-26.348v-208.729a8 8 0 0 0 -8-8h-272a8 8 0 0 0 -5.657 2.343l-64 64a8 8 0 0 0 -2.343 5.657v208h16v-200h56a8 8 0 0 0 8-8v-56h224v248.422a32.669 32.669 0 0 0 -5.146-.422h-2.291a32.563 32.563 0 0 0 -27.094 50.626l34.531 51.796v17.578h-240v16h239.778a100.942 100.942 0 0 0 -.434 32h-239.344v16h243.052a100.078 100.078 0 0 0 12.06 25.09l2.232 3.348a8 8 0 0 0 6.656 3.562h80a8 8 0 0 0 8-8v-72a405.946 405.946 0 0 0 -31.384-156.923zm-357.302-179.077 36.686-36.686v36.686zm292.686-48h16v277.577l-10.052-15.077a32.611 32.611 0 0 0 -5.948-6.688zm80 448h-67.718a84.664 84.664 0 0 1 -5.127-84.422 8 8 0 0 0 -.5-8.016l-43.874-65.811a16.563 16.563 0 0 1 13.782-25.751h2.291a16.531 16.531 0 0 1 13.782 7.375l24.708 37.063c.083.124.186.229.275.348l-.019.014 24 32 12.8-9.6-22.4-29.867v-84.176a27.922 27.922 0 0 1 17.846 16.074 390.013 390.013 0 0 1 30.154 150.769z"/><path d="m162.531 330.626a32.563 32.563 0 0 0 -27.094-50.626h-2.291a32.5 32.5 0 0 0 -27.094 14.5l-48.452 68.7 12.8 9.6 48.964-69.425a16.531 16.531 0 0 1 13.782-7.375h2.291a16.563 16.563 0 0 1 13.781 25.751l-43.874 65.811a8 8 0 0 0 -.5 8.016 84.666 84.666 0 0 1 -5.126 84.422h-67.718v-64a390.03 390.03 0 0 1 30.153-150.769 27.764 27.764 0 0 1 7.179-10.1l-10.665-11.931a44.263 44.263 0 0 0 -11.283 15.874 405.946 405.946 0 0 0 -31.384 156.926v72a8 8 0 0 0 8 8h80a8 8 0 0 0 6.656-3.562l2.232-3.348a100.715 100.715 0 0 0 8.273-96.409z"/><path d="m352 160a8 8 0 0 0 8-8v-88a8 8 0 0 0 -8-8h-80a8 8 0 0 0 -8 8v88a8 8 0 0 0 8 8zm-56-16a16.023 16.023 0 0 1 8.269-14.009 8 8 0 0 0 1.932-12.5 8 8 0 1 1 11.6 0 8 8 0 0 0 1.932 12.5 16.023 16.023 0 0 1 8.267 14.009zm-16-72h64v72a32.017 32.017 0 0 0 -9.752-23 24 24 0 1 0 -44.5 0 32.017 32.017 0 0 0 -9.748 23z"/><path d="m184 80h40v16h-40z"/><path d="m120 144h56v16h-56z"/><path d="m120 112h104v16h-104z"/><path d="m120 176h240v16h-240z"/><path d="m176 272h24v16h-24z"/><path d="m120 208h80v16h-80z"/><path d="m240 208h120v16h-120z"/><path d="m240 240h72v16h-72z"/><path d="m328 240h32v16h-32z"/><path d="m240 272h96v16h-96z"/><path d="m240 304h88v16h-88z"/><path d="m120 240h24v16h-24z"/><path d="m184 304h16v16h-16z"/><path d="m160 240h40v16h-40z"/><path d="m240 336h96v16h-96z"/><path d="m240 368h120v16h-120z"/><path d="m176 336h24v16h-24z"/><path d="m152 368h48v16h-48z"/><path d="m192 144h32v16h-32z"/></g></svg>