<svg xmlns="http://www.w3.org/2000/svg" height="616pt" version="1.1" viewBox="1 -9 616.608 616" width="616pt">
<g id="surface1">
<path d="M 49.757812 10.261719 L 487.628906 10.261719 C 509.613281 10.261719 527.433594 28.085938 527.433594 50.066406 L 527.433594 487.9375 C 527.433594 509.921875 509.613281 527.746094 487.628906 527.746094 L 49.757812 527.746094 C 27.773438 527.746094 9.953125 509.921875 9.953125 487.9375 L 9.953125 50.066406 C 9.953125 28.085938 27.773438 10.261719 49.757812 10.261719 Z M 49.757812 10.261719 " style=" stroke:none;fill-rule:nonzero;fill:rgb(52.941176%,80.784314%,85.098039%);fill-opacity:1;" />
<path d="M 69.660156 527.746094 L 487.628906 527.746094 C 509.613281 527.746094 527.433594 509.921875 527.433594 487.9375 L 527.433594 69.96875 Z M 69.660156 527.746094 " style=" stroke:none;fill-rule:nonzero;fill:rgb(44.313725%,76.862745%,81.960784%);fill-opacity:1;" />
<path d="M 39.804688 40.117188 L 59.710938 40.117188 L 59.710938 60.019531 L 39.804688 60.019531 Z M 39.804688 40.117188 " style=" stroke:none;fill-rule:nonzero;fill:rgb(36.862745%,70.196078%,81.960784%);fill-opacity:1;" />
<path d="M 79.613281 40.117188 L 99.515625 40.117188 L 99.515625 60.019531 L 79.613281 60.019531 Z M 79.613281 40.117188 " style=" stroke:none;fill-rule:nonzero;fill:rgb(36.862745%,70.196078%,81.960784%);fill-opacity:1;" />
<path d="M 119.417969 40.117188 L 139.324219 40.117188 L 139.324219 60.019531 L 119.417969 60.019531 Z M 119.417969 40.117188 " style=" stroke:none;fill-rule:nonzero;fill:rgb(36.862745%,70.196078%,81.960784%);fill-opacity:1;" />
<path d="M 39.804688 79.921875 L 497.582031 79.921875 L 497.582031 99.828125 L 39.804688 99.828125 Z M 39.804688 79.921875 " style=" stroke:none;fill-rule:nonzero;fill:rgb(36.862745%,70.196078%,81.960784%);fill-opacity:1;" />
<path d="M 169.175781 159.535156 L 338.355469 159.535156 L 338.355469 179.4375 L 169.175781 179.4375 Z M 169.175781 159.535156 " style=" stroke:none;fill-rule:nonzero;fill:rgb(36.862745%,70.196078%,81.960784%);fill-opacity:1;" />
<path d="M 169.175781 199.339844 L 238.839844 199.339844 L 238.839844 219.246094 L 169.175781 219.246094 Z M 169.175781 199.339844 " style=" stroke:none;fill-rule:nonzero;fill:rgb(36.862745%,70.196078%,81.960784%);fill-opacity:1;" />
<path d="M 258.742188 199.339844 L 398.066406 199.339844 L 398.066406 219.246094 L 258.742188 219.246094 Z M 258.742188 199.339844 " style=" stroke:none;fill-rule:nonzero;fill:rgb(36.862745%,70.196078%,81.960784%);fill-opacity:1;" />
<path d="M 358.257812 159.535156 L 457.773438 159.535156 L 457.773438 179.4375 L 358.257812 179.4375 Z M 358.257812 159.535156 " style=" stroke:none;fill-rule:nonzero;fill:rgb(36.862745%,70.196078%,81.960784%);fill-opacity:1;" />
<path d="M 89.566406 239.148438 C 62.089844 239.148438 39.808594 216.867188 39.808594 189.390625 C 39.808594 161.914062 62.089844 139.632812 89.566406 139.632812 C 117.039062 139.632812 139.324219 161.914062 139.324219 189.390625 C 139.292969 216.855469 117.03125 239.117188 89.566406 239.148438 Z M 89.566406 159.535156 C 73.074219 159.535156 59.710938 172.902344 59.710938 189.390625 C 59.710938 205.878906 73.074219 219.246094 89.566406 219.246094 C 106.054688 219.246094 119.417969 205.878906 119.417969 189.390625 C 119.417969 172.902344 106.054688 159.535156 89.566406 159.535156 Z M 89.566406 159.535156 " style=" stroke:none;fill-rule:nonzero;fill:rgb(36.862745%,70.196078%,81.960784%);fill-opacity:1;" />
<path d="M 169.175781 278.953125 L 338.355469 278.953125 L 338.355469 298.859375 L 169.175781 298.859375 Z M 169.175781 278.953125 " style=" stroke:none;fill-rule:nonzero;fill:rgb(36.862745%,70.196078%,81.960784%);fill-opacity:1;" />
<path d="M 169.175781 318.761719 L 238.839844 318.761719 L 238.839844 338.664062 L 169.175781 338.664062 Z M 169.175781 318.761719 " style=" stroke:none;fill-rule:nonzero;fill:rgb(36.862745%,70.196078%,81.960784%);fill-opacity:1;" />
<path d="M 258.742188 318.761719 L 398.066406 318.761719 L 398.066406 338.664062 L 258.742188 338.664062 Z M 258.742188 318.761719 " style=" stroke:none;fill-rule:nonzero;fill:rgb(36.862745%,70.196078%,81.960784%);fill-opacity:1;" />
<path d="M 358.257812 278.953125 L 457.773438 278.953125 L 457.773438 298.859375 L 358.257812 298.859375 Z M 358.257812 278.953125 " style=" stroke:none;fill-rule:nonzero;fill:rgb(36.862745%,70.196078%,81.960784%);fill-opacity:1;" />
<path d="M 89.566406 358.566406 C 62.089844 358.566406 39.808594 336.285156 39.808594 308.808594 C 39.808594 281.332031 62.089844 259.050781 89.566406 259.050781 C 117.039062 259.050781 139.324219 281.335938 139.324219 308.808594 C 139.292969 336.277344 117.03125 358.539062 89.566406 358.566406 Z M 89.566406 278.953125 C 73.074219 278.953125 59.710938 292.320312 59.710938 308.808594 C 59.710938 325.296875 73.074219 338.664062 89.566406 338.664062 C 106.054688 338.664062 119.417969 325.296875 119.417969 308.808594 C 119.417969 292.320312 106.054688 278.953125 89.566406 278.953125 Z M 89.566406 278.953125 " style=" stroke:none;fill-rule:nonzero;fill:rgb(36.862745%,70.196078%,81.960784%);fill-opacity:1;" />
<path d="M 169.175781 398.375 L 338.355469 398.375 L 338.355469 418.277344 L 169.175781 418.277344 Z M 169.175781 398.375 " style=" stroke:none;fill-rule:nonzero;fill:rgb(36.862745%,70.196078%,81.960784%);fill-opacity:1;" />
<path d="M 169.175781 438.179688 L 238.839844 438.179688 L 238.839844 458.085938 L 169.175781 458.085938 Z M 169.175781 438.179688 " style=" stroke:none;fill-rule:nonzero;fill:rgb(36.862745%,70.196078%,81.960784%);fill-opacity:1;" />
<path d="M 258.742188 438.179688 L 398.066406 438.179688 L 398.066406 458.085938 L 258.742188 458.085938 Z M 258.742188 438.179688 " style=" stroke:none;fill-rule:nonzero;fill:rgb(36.862745%,70.196078%,81.960784%);fill-opacity:1;" />
<path d="M 358.257812 398.375 L 457.773438 398.375 L 457.773438 418.277344 L 358.257812 418.277344 Z M 358.257812 398.375 " style=" stroke:none;fill-rule:nonzero;fill:rgb(36.862745%,70.196078%,81.960784%);fill-opacity:1;" />
<path d="M 89.566406 477.988281 C 62.089844 477.988281 39.808594 455.707031 39.808594 428.230469 C 39.808594 400.753906 62.089844 378.472656 89.566406 378.472656 C 117.039062 378.472656 139.324219 400.753906 139.324219 428.230469 C 139.292969 455.695312 117.03125 477.957031 89.566406 477.988281 Z M 89.566406 398.375 C 73.074219 398.375 59.710938 411.738281 59.710938 428.230469 C 59.710938 444.71875 73.074219 458.085938 89.566406 458.085938 C 106.054688 458.085938 119.417969 444.71875 119.417969 428.230469 C 119.417969 411.738281 106.054688 398.375 89.566406 398.375 Z M 89.566406 398.375 " style=" stroke:none;fill-rule:nonzero;fill:rgb(36.862745%,70.196078%,81.960784%);fill-opacity:1;" />
<path d="M 82.53125 182.355469 L 142.238281 122.648438 L 156.3125 136.722656 L 96.605469 196.429688 Z M 82.53125 182.355469 " style=" stroke:none;fill-rule:nonzero;fill:rgb(89.019608%,29.411765%,52.941176%);fill-opacity:1;" />
<path d="M 82.519531 301.765625 L 142.226562 242.0625 L 156.296875 256.132812 L 96.589844 315.839844 Z M 82.519531 301.765625 " style=" stroke:none;fill-rule:nonzero;fill:rgb(89.019608%,29.411765%,52.941176%);fill-opacity:1;" />
<path d="M 82.515625 421.1875 L 142.222656 361.480469 L 156.296875 375.554688 L 96.589844 435.261719 Z M 82.515625 421.1875 " style=" stroke:none;fill-rule:nonzero;fill:rgb(89.019608%,29.411765%,52.941176%);fill-opacity:1;" />
<path d="M 607.046875 448.132812 C 607.046875 525.078125 544.671875 587.453125 467.726562 587.453125 C 390.78125 587.453125 328.402344 525.078125 328.402344 448.132812 C 328.402344 371.1875 390.78125 308.808594 467.726562 308.808594 C 544.671875 308.808594 607.046875 371.1875 607.046875 448.132812 Z M 607.046875 448.132812 " style=" stroke:none;fill-rule:nonzero;fill:rgb(89.019608%,29.411765%,52.941176%);fill-opacity:1;" />
<path d="M 417.96875 507.839844 C 417.429688 507.839844 416.902344 507.800781 416.375 507.710938 C 413.210938 507.207031 410.492188 505.207031 409.0625 502.339844 L 389.15625 462.53125 L 406.96875 453.636719 L 420.695312 481.09375 L 530.351562 371.4375 L 544.421875 385.507812 L 425.003906 504.925781 C 423.144531 506.796875 420.605469 507.839844 417.96875 507.839844 Z M 417.96875 507.839844 " style=" stroke:none;fill-rule:nonzero;fill:rgb(74.901961%,23.921569%,45.882353%);fill-opacity:1;" />
<path d="M 397.367188 568.25 C 463.605469 607.199219 548.890625 585.078125 587.84375 518.839844 C 613.449219 475.300781 613.449219 421.3125 587.84375 377.773438 Z M 397.367188 568.25 " style=" stroke:none;fill-rule:nonzero;fill:rgb(85.098039%,28.235294%,50.588235%);fill-opacity:1;" />
<path d="M 49.757812 537.695312 L 308.5 537.695312 L 308.5 517.792969 L 49.757812 517.792969 C 33.269531 517.792969 19.902344 504.425781 19.902344 487.9375 L 19.902344 50.066406 C 19.902344 33.578125 33.269531 20.214844 49.757812 20.214844 L 487.628906 20.214844 C 504.117188 20.214844 517.484375 33.578125 517.484375 50.066406 L 517.484375 278.957031 L 537.386719 278.957031 L 537.386719 50.066406 C 537.355469 22.601562 515.097656 0.339844 487.628906 0.308594 L 49.757812 0.308594 C 22.292969 0.339844 0.03125 22.601562 0 50.066406 L 0 487.9375 C 0.03125 515.40625 22.292969 537.667969 49.757812 537.695312 Z M 49.757812 537.695312 " style=" stroke:none;fill-rule:nonzero;fill:rgb(0%,0%,0%);fill-opacity:1;" />
<path d="M 39.804688 40.117188 L 59.710938 40.117188 L 59.710938 60.019531 L 39.804688 60.019531 Z M 39.804688 40.117188 " style=" stroke:none;fill-rule:nonzero;fill:rgb(0%,0%,0%);fill-opacity:1;" />
<path d="M 79.613281 40.117188 L 99.515625 40.117188 L 99.515625 60.019531 L 79.613281 60.019531 Z M 79.613281 40.117188 " style=" stroke:none;fill-rule:nonzero;fill:rgb(0%,0%,0%);fill-opacity:1;" />
<path d="M 119.417969 40.117188 L 139.324219 40.117188 L 139.324219 60.019531 L 119.417969 60.019531 Z M 119.417969 40.117188 " style=" stroke:none;fill-rule:nonzero;fill:rgb(0%,0%,0%);fill-opacity:1;" />
<path d="M 39.804688 79.921875 L 497.582031 79.921875 L 497.582031 99.828125 L 39.804688 99.828125 Z M 39.804688 79.921875 " style=" stroke:none;fill-rule:nonzero;fill:rgb(0%,0%,0%);fill-opacity:1;" />
<path d="M 142.238281 122.644531 L 116.960938 147.921875 C 93.972656 132.707031 63.015625 139.003906 47.796875 161.992188 C 32.582031 184.984375 38.878906 215.941406 61.871094 231.15625 C 84.859375 246.375 115.816406 240.074219 131.035156 217.085938 C 142.089844 200.386719 142.089844 178.691406 131.035156 161.992188 L 156.308594 136.71875 Z M 89.566406 219.246094 C 73.074219 219.246094 59.710938 205.878906 59.710938 189.390625 C 59.710938 172.902344 73.074219 159.535156 89.566406 159.535156 C 93.992188 159.554688 98.371094 160.570312 102.351562 162.519531 L 82.53125 182.34375 L 96.601562 196.417969 L 116.433594 176.601562 C 118.386719 180.582031 119.402344 184.960938 119.421875 189.390625 C 119.417969 205.878906 106.054688 219.246094 89.566406 219.246094 Z M 89.566406 219.246094 " style=" stroke:none;fill-rule:nonzero;fill:rgb(0%,0%,0%);fill-opacity:1;" />
<path d="M 169.175781 159.535156 L 338.355469 159.535156 L 338.355469 179.4375 L 169.175781 179.4375 Z M 169.175781 159.535156 " style=" stroke:none;fill-rule:nonzero;fill:rgb(0%,0%,0%);fill-opacity:1;" />
<path d="M 169.175781 199.339844 L 238.839844 199.339844 L 238.839844 219.246094 L 169.175781 219.246094 Z M 169.175781 199.339844 " style=" stroke:none;fill-rule:nonzero;fill:rgb(0%,0%,0%);fill-opacity:1;" />
<path d="M 258.742188 199.339844 L 398.066406 199.339844 L 398.066406 219.246094 L 258.742188 219.246094 Z M 258.742188 199.339844 " style=" stroke:none;fill-rule:nonzero;fill:rgb(0%,0%,0%);fill-opacity:1;" />
<path d="M 358.257812 159.535156 L 457.773438 159.535156 L 457.773438 179.4375 L 358.257812 179.4375 Z M 358.257812 159.535156 " style=" stroke:none;fill-rule:nonzero;fill:rgb(0%,0%,0%);fill-opacity:1;" />
<path d="M 142.238281 242.0625 L 116.960938 267.339844 C 93.972656 252.125 63.015625 258.425781 47.796875 281.414062 C 32.582031 304.402344 38.878906 335.359375 61.871094 350.578125 C 84.859375 365.792969 115.816406 359.492188 131.035156 336.503906 C 142.089844 319.804688 142.089844 298.113281 131.035156 281.414062 L 156.308594 256.136719 Z M 89.566406 338.664062 C 73.074219 338.664062 59.710938 325.296875 59.710938 308.808594 C 59.710938 292.320312 73.074219 278.953125 89.566406 278.953125 C 93.992188 278.972656 98.371094 279.988281 102.351562 281.941406 L 82.53125 301.765625 L 96.601562 315.835938 L 116.433594 296.023438 C 118.386719 300.003906 119.402344 304.382812 119.421875 308.808594 C 119.417969 325.300781 106.054688 338.664062 89.566406 338.664062 Z M 89.566406 338.664062 " style=" stroke:none;fill-rule:nonzero;fill:rgb(0%,0%,0%);fill-opacity:1;" />
<path d="M 169.175781 278.953125 L 338.355469 278.953125 L 338.355469 298.859375 L 169.175781 298.859375 Z M 169.175781 278.953125 " style=" stroke:none;fill-rule:nonzero;fill:rgb(0%,0%,0%);fill-opacity:1;" />
<path d="M 169.175781 318.761719 L 238.839844 318.761719 L 238.839844 338.664062 L 169.175781 338.664062 Z M 169.175781 318.761719 " style=" stroke:none;fill-rule:nonzero;fill:rgb(0%,0%,0%);fill-opacity:1;" />
<path d="M 258.742188 318.761719 L 338.355469 318.761719 L 338.355469 338.664062 L 258.742188 338.664062 Z M 258.742188 318.761719 " style=" stroke:none;fill-rule:nonzero;fill:rgb(0%,0%,0%);fill-opacity:1;" />
<path d="M 358.257812 278.953125 L 398.066406 278.953125 L 398.066406 298.859375 L 358.257812 298.859375 Z M 358.257812 278.953125 " style=" stroke:none;fill-rule:nonzero;fill:rgb(0%,0%,0%);fill-opacity:1;" />
<path d="M 142.238281 361.484375 L 116.960938 386.761719 C 93.972656 371.546875 63.015625 377.84375 47.796875 400.832031 C 32.582031 423.820312 38.878906 454.78125 61.871094 469.996094 C 84.859375 485.210938 115.816406 478.914062 131.035156 455.925781 C 142.089844 439.226562 142.089844 417.53125 131.035156 400.832031 L 156.308594 375.554688 Z M 89.566406 458.085938 C 73.074219 458.085938 59.710938 444.71875 59.710938 428.230469 C 59.710938 411.738281 73.074219 398.375 89.566406 398.375 C 93.992188 398.394531 98.371094 399.410156 102.351562 401.359375 L 82.53125 421.183594 L 96.601562 435.253906 L 116.433594 415.441406 C 118.386719 419.421875 119.402344 423.800781 119.421875 428.230469 C 119.417969 444.71875 106.054688 458.085938 89.566406 458.085938 Z M 89.566406 458.085938 " style=" stroke:none;fill-rule:nonzero;fill:rgb(0%,0%,0%);fill-opacity:1;" />
<path d="M 169.175781 398.375 L 298.546875 398.375 L 298.546875 418.277344 L 169.175781 418.277344 Z M 169.175781 398.375 " style=" stroke:none;fill-rule:nonzero;fill:rgb(0%,0%,0%);fill-opacity:1;" />
<path d="M 169.175781 438.179688 L 238.839844 438.179688 L 238.839844 458.085938 L 169.175781 458.085938 Z M 169.175781 438.179688 " style=" stroke:none;fill-rule:nonzero;fill:rgb(0%,0%,0%);fill-opacity:1;" />
<path d="M 258.742188 438.179688 L 298.546875 438.179688 L 298.546875 458.085938 L 258.742188 458.085938 Z M 258.742188 438.179688 " style=" stroke:none;fill-rule:nonzero;fill:rgb(0%,0%,0%);fill-opacity:1;" />
<path d="M 467.726562 597.40625 C 550.164062 597.40625 617 530.570312 617 448.132812 C 617 365.695312 550.164062 298.859375 467.726562 298.859375 C 385.289062 298.859375 318.453125 365.695312 318.453125 448.132812 C 318.542969 530.53125 385.328125 597.316406 467.726562 597.40625 Z M 467.726562 318.761719 C 539.179688 318.761719 597.097656 376.679688 597.097656 448.132812 C 597.097656 519.585938 539.179688 577.503906 467.726562 577.503906 C 396.273438 577.503906 338.355469 519.585938 338.355469 448.132812 C 338.433594 376.71875 396.3125 318.839844 467.726562 318.761719 Z M 467.726562 318.761719 " style=" stroke:none;fill-rule:nonzero;fill:rgb(0%,0%,0%);fill-opacity:1;" />
<path d="M 407.019531 453.636719 L 389.207031 462.53125 L 409.109375 502.339844 C 410.542969 505.203125 413.261719 507.203125 416.425781 507.710938 C 416.933594 507.792969 417.449219 507.839844 417.96875 507.839844 C 420.605469 507.839844 423.144531 506.796875 425.003906 504.925781 L 544.425781 385.503906 L 530.351562 371.433594 L 420.695312 481.089844 Z M 407.019531 453.636719 " style=" stroke:none;fill-rule:nonzero;fill:rgb(0%,0%,0%);fill-opacity:1;" />
</g>
</svg>