<svg height="512" viewBox="0 0 512 512" width="512" xmlns="http://www.w3.org/2000/svg"><g id="Filled_outline" data-name="Filled outline"><path d="m328 260.5v43.5h-144v-43.5l24-4.5v-72h96v72z" fill="#fec9a3"/><path d="m432 319.83v136.17h-352v-136.16a48 48 0 0 1 39.15-47.18l88.85-16.66 48 16 48-16 88.85 16.66a47.956 47.956 0 0 1 39.15 47.17z" fill="#4d5e78"/><path d="m432 319.83v136.17h-232.87c84.16-39.67 158.8-97.01 210.05-177.04a48 48 0 0 1 22.82 40.87z" fill="#44546c"/><path d="m208 256 48 184 48-184.003-48 16.003z" fill="#b0b0ae"/><path d="m304 255.997-48 16.003 36.258 29.007z" fill="#e0e0de"/><path d="m256 272-48-16 11.741 45.007z" fill="#e0e0de"/><path d="m272 378.666v-93.866l-16-12.8-16 12.8v93.867l16 61.333z" fill="#348fd9"/><path d="m192 328-8 32 72 80-48-184-32 6-24 58z" fill="#556a8a"/><path d="m320 328 8 32-72 80 48-184 32 6 24 58z" fill="#556a8a"/><path d="m384 368h48v72l-40-.003-48.161 6.88-7.839-54.877z" fill="#fec9a3"/><path d="m298.818 394.32 9.192 59.761-156.01 33.919h-48a24 24 0 0 1 -24-24v-56z" fill="#404f66"/><path d="m343.839 446.877-7.839 1.123-27.99 6.081-9.192-59.761 37.182-2.32z" fill="#e0e0de"/><path d="m128 368h-48v72l40-.003 48.161 6.88 7.839-54.877z" fill="#fec9a3"/><path d="m230.61 395.41-4.53 63.48-50.08-10.89-7.84-1.12 7.84-54.88z" fill="#e0e0de"/><path d="m213.181 394.324-5.181 69.676 152 24h48a24 24 0 0 0 24-24v-56z" fill="#4d5e78"/><g fill="#feb784"><path d="m304 229.567v-45.567h-48-48v45.567a71.687 71.687 0 0 0 96 0z"/><path d="m328 104v48a24 24 0 0 0 0-48z"/><path d="m184.405 104h-.4a24 24 0 0 0 -.005 48v-48z"/></g><path d="m328 96v64a72.01 72.01 0 0 1 -71.56 72h-.44a72.006 72.006 0 0 1 -72-72v-64c0-39.76 32.24-64 72-64h.44c19.71.09 37.54 6.14 50.47 17.09 13.03 11.03 21.09 27.03 21.09 46.91z" fill="#fec9a3"/><path d="m328 96v64a72.01 72.01 0 0 1 -71.56 72 83.279 83.279 0 0 0 34.44-67.52v-64.97a83.26 83.26 0 0 0 -34.44-67.51c19.71.09 37.54 6.14 50.47 17.09 13.03 11.03 21.09 27.03 21.09 46.91z" fill="#fec093"/><path d="m328 120v-32c0-26.51-17.909-48-40-48l1.408 5.068c7.842 28.232 21.055 53.888 38.592 74.932z" fill="#6e3c24"/><path d="m184 120v-55.015a25.754 25.754 0 0 1 32-24.985v24s-14.463 34.956-32 56z" fill="#6e3c24"/><path d="m216 64h112a40 40 0 0 0 -40-40h-33.373a54.626 54.626 0 0 0 -38.627 16z" fill="#7a432a"/><path d="m261.584 24-31.04 40h20.26l31.04-40z" fill="#6e3c24"/><path d="m317.826 37.584a39.9 39.9 0 0 0 -12.926-9.721l-36.777 36.137h22.824z" fill="#6e3c24"/><path d="m117.641 264.781a56.014 56.014 0 0 0 -45.641 55.063v144.156a32.032 32.032 0 0 0 32 32h48a8.293 8.293 0 0 0 1.7-.18l86.02-18.73 119.03 18.81a7.355 7.355 0 0 0 1.25.1h48a32.032 32.032 0 0 0 32-32v-144.156a56.028 56.028 0 0 0 -45.648-55.071l-82.352-15.414v-32.441a79.833 79.833 0 0 0 24-56.918v-.008a32 32 0 1 0 0-64v-7.992a64.626 64.626 0 0 0 -2.66-18.127 7.9 7.9 0 0 0 2.66-5.873 48.052 48.052 0 0 0 -48-48h-33.375a120.9 120.9 0 0 0 -12.4 1.219l.01.047a63.178 63.178 0 0 0 -28.89 14.362 33.428 33.428 0 0 0 -37.345 33.356v31.008a32 32 0 0 0 0 64v.008a79.819 79.819 0 0 0 24 56.918v32.441zm138.359-24.781a79.671 79.671 0 0 0 40-10.807v21.044l-40 13.333-40-13.333v-21.048a79.644 79.644 0 0 0 40 10.811zm56.242 89.938 6.961 27.874-25.94 28.824-15.278.948 31.878-122.349 20.4 3.827 18.617 45-30.453 6.094a7.994 7.994 0 0 0 -6.188 9.782zm73.649 46.062h38.109v23.483l-75.6-4.737zm-203.014 24.445 21.747 1.356-3.251 43.552-24.146-5.253zm15.881-76.726a8 8 0 0 0 -5.188-3.563l-30.453-6.094 18.617-45 20.4-3.827 31.877 122.343-15.292-.958-25.919-28.808 6.961-27.874a8 8 0 0 0 -1.003-6.219zm30.026-19.695 3.216-2.573v14.917zm19.216 73.601v-88.975l8-6.4 8 6.4v88.975l-2.842 11h-10.315zm32-76.174 3.216 2.573-3.216 12.344zm7.633-14.389-15.149-12.127 20.052-6.676zm-63.266 0-4.9-18.8 20.052 6.676zm-103.781-6.554 42.382-7.938-18.359 44.368a8 8 0 0 0 5.821 10.906l31.77 6.356-5.961 23.859a7.983 7.983 0 0 0 1.813 7.29l17.89 19.877-17.82-1.112-18.122-9.059v-23.055h-16v15.055l-12.422-6.211a8 8 0 0 0 -3.578-.844h-40v-40.156a40 40 0 0 1 32.586-39.336zm-32.586 95.492h38.109l41.155 20.577-5.9 41.251-40.234-5.75a7.846 7.846 0 0 0 -1.13-.078h-32zm63.141 104h-47.141a16.021 16.021 0 0 1 -16-16v-16h31.43l80.741 13.457-.148 1.981a7.969 7.969 0 0 0 1.717 5.542zm272.859-16a16.021 16.021 0 0 1 -16 16h-47.375l-144.133-22.758 4.093-54.447 203.415 12.721zm0-144.156v40.156h-40a8 8 0 0 0 -3.578.844l-12.422 6.211v-15.055h-16v23.055l-18.124 9.061-17.815 1.106 17.884-19.87a7.983 7.983 0 0 0 1.813-7.29l-5.958-23.862 31.773-6.359a8 8 0 0 0 5.821-10.906l-18.364-44.368 42.376 7.933a40.013 40.013 0 0 1 32.594 39.344zm-106.685-247.844a48.227 48.227 0 0 1 2.685 16v7.273a193.343 193.343 0 0 1 -12.12-23.273zm34.685 55.992a16.021 16.021 0 0 1 -16 16v-32a16.021 16.021 0 0 1 16 16zm-52.688-71.992 12.855-12.854c.053.062.1.131.151.193l-9.177 9.434 9.234-9.362a31.817 31.817 0 0 1 6.609 12.589zm-.512-22.109-22.112 22.109h-20.038l19.2-24h12.15a31.817 31.817 0 0 1 10.8 1.891zm-43.45-1.891-19.2 24h-12.15v-12.523a46.966 46.966 0 0 1 30.616-11.477zm-63.35 32.984a17.787 17.787 0 0 1 16-17.679v15.062a313.581 313.581 0 0 1 -16 31.766zm-32 63.008a16.077 16.077 0 0 1 16-15.961v31.961a16.021 16.021 0 0 1 -16-16zm32 32.008v-37.206c13.5-17.081 24.724-40.654 29.245-50.794h69.155a203.6 203.6 0 0 0 29.6 50.686v37.314a64 64 0 0 1 -128 0z"/><path d="m220 128a12 12 0 1 0 -12-12 12.013 12.013 0 0 0 12 12z"/><path d="m292 128a12 12 0 1 0 -12-12 12.013 12.013 0 0 0 12 12z"/><path d="m232 176h14.891c13.906 0 27.093-3.227 37.14-9.094l-8.062-13.812c-7.524 4.39-18.125 6.906-29.078 6.906h-14.891z"/><path d="m240 432h16v16h-16z"/><path d="m272 432h16v16h-16z"/></g></svg>