<?xml version="1.0" encoding="iso-8859-1"?>
<!-- Generator: Adobe Illustrator 19.0.0, SVG Export Plug-In . SVG Version: 6.00 Build 0)  -->
<svg version="1.1" id="Capa_1" xmlns="http://www.w3.org/2000/svg" xmlns:xlink="http://www.w3.org/1999/xlink" x="0px" y="0px"
	 viewBox="0 0 512 512" style="enable-background:new 0 0 512 512;" xml:space="preserve">
<g>
	<path style="fill:#EF2648;" d="M114.157,371.527l-61.193,78.68l70.621-8.828l17.655,61.793l61.793-79.448l0.282-0.362
		c-12.235-12.35-25.635-23.481-40.007-33.262C147.561,382.34,131.097,376.126,114.157,371.527z"/>
	<path style="fill:#EF2648;" d="M397.84,371.527c-16.94,4.59-33.404,10.796-49.152,18.538
		c-14.371,9.772-27.763,20.913-39.998,33.262l62.067,79.846l17.655-61.793l70.621,8.828L397.84,371.527z"/>
</g>
<path style="fill:#FFA511;" d="M441.378,229.517c0-36.988,23.049-80.508,5.764-110.345c-17.823-30.817-67.646-32.388-98.454-50.211
	c-29.864-17.311-55.702-60.134-92.69-60.134s-62.826,42.831-92.69,60.107c-30.817,17.832-80.631,19.421-98.454,50.211
	c-17.284,29.864,5.764,73.384,5.764,110.371s-23.049,80.508-5.764,110.345c17.823,30.817,67.646,32.388,98.454,50.211
	c29.864,17.311,55.702,60.134,92.69,60.134s62.826-42.831,92.69-60.107c30.817-17.832,80.631-19.421,98.454-50.211
	C464.427,310.025,441.378,266.505,441.378,229.517z"/>
<circle style="fill:#FFDC13;" cx="255.999" cy="229.517" r="150.069"/>
<path style="fill:#EF2648;" d="M343.586,194.207h-60.495l-18.697-57.529c-1.518-4.634-6.515-7.15-11.14-5.632
	c-2.666,0.874-4.758,2.966-5.632,5.632l-18.714,57.529h-60.495c-4.873,0-8.828,3.955-8.828,8.828c0,2.825,1.351,5.482,3.637,7.142
	l48.94,35.566l-18.697,57.538c-1.51,4.634,1.033,9.613,5.667,11.123c2.692,0.874,5.632,0.406,7.918-1.254l48.949-35.566
	l48.94,35.558c3.946,2.869,9.463,1.995,12.332-1.951c1.66-2.286,2.127-5.235,1.253-7.918l-18.697-57.538l48.94-35.566
	c3.937-2.869,4.802-8.395,1.933-12.332C349.041,195.558,346.402,194.216,343.586,194.207z"/>
<path style="fill:#F08015;" d="M447.142,119.172c-0.38-0.662-0.883-1.227-1.262-1.854c-12.994,24.735-28.398,48.119-45.992,69.826
	c23.428,79.448-21.99,162.851-101.438,186.28c-52.206,15.386-108.659,1.289-147.5-36.846c-26.474,5.102-53.372,7.68-80.331,7.698
	c-0.953,0-1.88-0.062-2.834-0.071c19.836,26.642,66.207,28.946,95.523,45.903c29.864,17.267,55.702,60.098,92.69,60.098
	s62.826-42.831,92.69-60.107c30.817-17.832,80.631-19.421,98.454-50.211c17.284-29.864-5.764-73.384-5.764-110.371
	S464.427,149.01,447.142,119.172z"/>
<path style="fill:#E5AF17;" d="M308.187,271.439l10.346,31.832c1.51,4.634-1.033,9.613-5.667,11.123
	c-2.692,0.874-5.632,0.406-7.918-1.254l-29.661-21.557c-38.824,21.469-80.799,36.661-124.363,45.021
	c59.03,58.094,153.971,57.335,212.056-1.695c38.259-38.877,52.392-95.462,36.908-147.765
	C373.617,219.586,342.721,247.985,308.187,271.439z"/>
<g>
	<path style="fill:#B20D24;" d="M318.533,303.272l-10.346-31.832c-10.628,7.212-21.592,13.93-32.9,20.145l29.661,21.557
		c3.946,2.869,9.463,1.995,12.332-1.951C318.939,308.904,319.407,305.964,318.533,303.272z"/>
	<path style="fill:#B20D24;" d="M383.999,423.724c22.881,0.018,45.48,5.146,66.127,15.007l-52.286-67.222
		c-16.94,4.59-33.404,10.796-49.152,18.538c-14.371,9.772-27.763,20.913-39.998,33.262l11.202,14.415
		C340.002,428.491,361.868,423.715,383.999,423.724z"/>
	<path style="fill:#B20D24;" d="M163.309,390.1c-15.748-7.742-32.212-13.948-49.152-18.538l-2.728,3.531
		c29.793,21.513,47.448,56.02,47.466,92.769c-0.018,4.608-0.318,9.198-0.883,13.771l45.021-57.909l0.282-0.362
		C191.081,411.012,177.68,399.881,163.309,390.1z"/>
</g>
<path d="M454.787,114.759c-13.1-22.634-39.477-31.011-64.989-39.097c-12.703-3.496-25-8.316-36.696-14.371
	c-10.611-6.886-20.471-14.874-29.405-23.834C304.771,19.889,283.311,0,255.999,0s-48.772,19.889-67.708,37.447
	c-8.934,8.96-18.785,16.958-29.396,23.843c-11.697,6.047-23.993,10.849-36.687,14.336c-25.512,8.086-51.889,16.463-64.989,39.097
	c-12.65,21.866-6.93,48.552-1.395,74.328c3.346,13.25,5.35,26.809,5.967,40.466c-0.627,13.656-2.631,27.215-5.976,40.466
	c-5.5,25.794-11.255,52.462,1.395,74.293c10.063,15.13,25.123,26.262,42.54,31.453l-53.76,69.058
	c-2.993,3.849-2.295,9.393,1.554,12.385c1.845,1.439,4.193,2.083,6.515,1.792l63.117-7.883l15.581,54.519
	c0.909,3.196,3.54,5.605,6.806,6.241c0.556,0.106,1.112,0.159,1.677,0.159c2.728,0,5.297-1.254,6.974-3.407l56.373-72.51
	c13.877,13.506,32.097,21.636,51.412,22.952c19.315-1.315,37.535-9.446,51.412-22.952l56.373,72.483
	c1.668,2.163,4.246,3.425,6.974,3.434c0.565,0,1.121-0.053,1.677-0.159c3.266-0.636,5.897-3.046,6.806-6.241l15.581-54.51
	l63.117,7.883c4.837,0.609,9.251-2.825,9.86-7.662c0.291-2.322-0.353-4.67-1.792-6.515l-53.716-69.058
	c17.408-5.199,32.441-16.331,42.496-31.461c12.65-21.866,6.93-48.552,1.395-74.328c-3.346-13.241-5.35-26.783-5.976-40.43
	c0.627-13.656,2.631-27.215,5.976-40.466C461.681,163.257,467.437,136.589,454.787,114.759z M144.948,484.025l-12.879-45.074
	c-1.201-4.184-5.261-6.868-9.578-6.329l-49.434,6.179l44.306-56.956l4.882,1.562c12.685,3.487,24.964,8.298,36.652,14.336
	c10.611,6.886,20.471,14.875,29.405,23.835l3.037,2.807L144.948,484.025z M438.986,438.802l-49.434-6.179
	c-4.317-0.538-8.377,2.145-9.578,6.329l-12.924,45.074l-46.38-59.63l3.037-2.807c8.934-8.96,18.785-16.958,29.396-23.843
	c11.697-6.047,23.993-10.849,36.687-14.336l4.882-1.562L438.986,438.802z M438.915,273.655c5.058,23.561,9.825,45.815,0.591,61.793
	c-9.71,16.719-31.717,23.711-55.049,31.117c-13.921,3.866-27.383,9.19-40.183,15.89c-11.758,7.539-22.678,16.313-32.556,26.191
	c-18.176,16.843-35.328,32.733-55.72,32.733s-37.544-15.89-55.711-32.733c-9.887-9.878-20.798-18.653-32.565-26.191
	c-12.8-6.7-26.271-12.023-40.192-15.89c-23.331-7.406-45.374-14.398-55.049-31.117c-9.234-15.969-4.467-38.223,0.591-61.793
	c3.637-14.451,5.773-29.246,6.374-44.138c-0.591-14.892-2.728-29.687-6.365-44.138c-5.058-23.561-9.825-45.815-0.591-61.793
	c9.71-16.719,31.718-23.711,55.049-31.117c13.921-3.866,27.383-9.19,40.183-15.89c11.758-7.539,22.678-16.313,32.556-26.191
	c18.176-16.843,35.328-32.733,55.72-32.733s37.544,15.89,55.711,32.733c9.887,9.878,20.798,18.653,32.565,26.191
	c12.8,6.7,26.271,12.023,40.192,15.89c23.331,7.406,45.374,14.398,55.049,31.117c9.234,15.969,4.467,38.223-0.591,61.793
	c-3.637,14.451-5.773,29.246-6.374,44.138C433.142,244.409,435.278,259.204,438.915,273.655z"/>
<path d="M255.999,70.621c-87.755,0-158.897,71.142-158.897,158.897s71.142,158.897,158.897,158.897s158.897-71.142,158.897-158.897
	C414.789,141.806,343.71,70.727,255.999,70.621z M255.999,370.759c-78.009,0-141.241-63.232-141.241-141.241
	S177.989,88.276,255.999,88.276S397.24,151.508,397.24,229.517C397.152,307.482,333.964,370.67,255.999,370.759z"/>
<path d="M343.586,185.379h-54.043l-16.772-51.438c-3.046-9.26-13.021-14.301-22.281-11.255c-5.332,1.748-9.507,5.932-11.255,11.255
	l-16.737,51.438h-54.087c-9.754-0.009-17.655,7.892-17.664,17.646c0,5.65,2.701,10.955,7.265,14.283l43.75,31.779l-16.711,51.438
	c-3.01,9.269,2.057,19.235,11.335,22.246c5.376,1.748,11.264,0.812,15.837-2.507l43.776-31.771l43.758,31.779
	c6.162,4.582,14.601,4.582,20.762,0c6.259-4.449,8.863-12.465,6.409-19.738l-16.711-51.447l43.75-31.779
	c7.883-5.738,9.622-16.781,3.884-24.664C354.532,188.081,349.227,185.379,343.586,185.379z M343.586,203.034l-48.94,35.549
	c-3.098,2.251-4.387,6.241-3.204,9.878l18.697,57.538l-48.949-35.557c-3.09-2.242-7.283-2.242-10.372,0l-48.949,35.557
	l18.688-57.538c1.183-3.637-0.115-7.618-3.204-9.869l-48.94-35.558h60.495c3.822,0,7.212-2.463,8.395-6.1l18.697-57.538
	l18.697,57.529c1.183,3.637,4.573,6.1,8.395,6.1L343.586,203.034z"/>
<g>
</g>
<g>
</g>
<g>
</g>
<g>
</g>
<g>
</g>
<g>
</g>
<g>
</g>
<g>
</g>
<g>
</g>
<g>
</g>
<g>
</g>
<g>
</g>
<g>
</g>
<g>
</g>
<g>
</g>
</svg>
