<svg height="512" viewBox="0 0 512 512" width="512" xmlns="http://www.w3.org/2000/svg"><g id="Filledoutline"><path d="m328 448h-144v-48-35.58h136.4l3.24 35.58z" fill="#cacac9"/><path d="m323.64 400h-139.64v-35.58h136.4z" fill="#b3b1b3"/><rect fill="#0093b9" height="320" rx="24" width="464" x="24" y="64"/><path d="m24 64h464a0 0 0 0 1 0 0v40a24 24 0 0 1 -24 24h-416a24 24 0 0 1 -24-24v-40a0 0 0 0 1 0 0z" fill="#cacac9" transform="matrix(-1 0 0 -1 512 192)"/><path d="m40 144h432v224h-432z" fill="#2da4c4"/><rect fill="#686869" height="192" rx="16" width="128" x="88" y="288"/><g fill="#f8bc1e"><rect height="32" rx="16" width="32" x="272" y="320"/><rect height="32" rx="16" width="32" x="336" y="320"/><rect height="32" rx="16" width="32" x="400" y="320"/></g><path d="m464 56h-416a32.036 32.036 0 0 0 -32 32v272a32.036 32.036 0 0 0 32 32h16v-16h-16a16.019 16.019 0 0 1 -16-16v-224h448v224a16.019 16.019 0 0 1 -16 16h-224v16h74.874l4.365 48h-79.239v16h120v-16h-24.694l-4.365-48h133.059a32.036 32.036 0 0 0 32-32v-272a32.036 32.036 0 0 0 -32-32zm-432 64v-32a16.019 16.019 0 0 1 16-16h416a16.019 16.019 0 0 1 16 16v32z"/><path d="m200 280h-96a24.028 24.028 0 0 0 -24 24v160a24.028 24.028 0 0 0 24 24h96a24.028 24.028 0 0 0 24-24v-160a24.028 24.028 0 0 0 -24-24zm-96 16h96a8.009 8.009 0 0 1 8 8v40h-112v-40a8.009 8.009 0 0 1 8-8zm56 64h48v48h-48zm-16 48h-48v-48h48zm-48 56v-40h48v48h-40a8.009 8.009 0 0 1 -8-8zm104 8h-40v-48h48v40a8.009 8.009 0 0 1 -8 8z"/><path d="m112 376h16v16h-16z"/><path d="m176 376h16v16h-16z"/><path d="m112 440h16v16h-16z"/><path d="m176 440h16v16h-16z"/><path d="m143.465 248h16v16h-16z"/><path d="m175.164 252.175 15.8-2.526a40.006 40.006 0 0 0 -78.995 0l15.8 2.524a24.006 24.006 0 0 1 47.4 0z"/><path d="m215.062 222.217a72.024 72.024 0 0 0 -127.193 0l14.124 7.517a56.024 56.024 0 0 1 98.945 0z"/><path d="m104 24h256v16h-256z"/><path d="m376 24h16v16h-16z"/><path d="m264 336a24 24 0 1 0 24-24 24.027 24.027 0 0 0 -24 24zm32 0a8 8 0 1 1 -8-8 8.009 8.009 0 0 1 8 8z"/><path d="m328 336a24 24 0 1 0 24-24 24.027 24.027 0 0 0 -24 24zm32 0a8 8 0 1 1 -8-8 8.009 8.009 0 0 1 8 8z"/><path d="m392 336a24 24 0 1 0 24-24 24.027 24.027 0 0 0 -24 24zm32 0a8 8 0 1 1 -8-8 8.009 8.009 0 0 1 8 8z"/><path d="m256 232h192v16h-192z"/><path d="m256 264h160v16h-160z"/><path d="m256 200h192v16h-192z"/><path d="m304 168h144v16h-144z"/><path d="m272 168h16v16h-16z"/><path d="m48 88h16v16h-16z"/><path d="m80 88h16v16h-16z"/><path d="m112 88h16v16h-16z"/></g></svg>