<?xml version="1.0" encoding="iso-8859-1"?>
<!-- Generator: Adobe Illustrator 19.0.0, SVG Export Plug-In . SVG Version: 6.00 Build 0)  -->
<svg version="1.1" id="Capa_1" xmlns="http://www.w3.org/2000/svg" xmlns:xlink="http://www.w3.org/1999/xlink" x="0px" y="0px"
	 viewBox="0 0 512 512" style="enable-background:new 0 0 512 512;" xml:space="preserve">
<path style="fill:#4398D1;" d="M196.267,196.267h119.467c56.55,0,102.4,45.85,102.4,102.4V384l0,0H93.867l0,0v-85.333
	C93.867,242.116,139.716,196.267,196.267,196.267z"/>
<path style="fill:#3E8FC9;" d="M418.133,298.667c-0.017-40.627-24.047-77.406-61.244-93.73
	C327.091,280.09,273.015,343.125,203.264,384h214.869V298.667z"/>
<path style="fill:#FEC9A3;" d="M256,8.533L256,8.533c47.13,0,85.333,38.204,85.333,85.333v51.2c0,47.13-38.204,85.333-85.333,85.333
	l0,0c-47.13,0-85.333-38.204-85.333-85.333v-51.2C170.667,46.737,208.87,8.533,256,8.533z"/>
<path style="fill:#FABD91;" d="M293.7,17.399c6.724,14.037,10.223,29.397,10.24,44.962v63.01
	c-0.009,46.396-30.464,87.296-74.914,100.599c44.621,14.967,92.919-9.079,107.887-53.7c2.935-8.764,4.429-17.954,4.42-27.204v-51.2
	C341.325,61.38,322.85,31.735,293.7,17.399z"/>
<path style="fill:#E8594A;" d="M170.667,256h-102.4v204.8h96.751c29.978,0,57.754,15.727,73.173,41.429l0.742,1.237V290.133
	C222.814,268.646,197.53,256,170.667,256z"/>
<path style="fill:#D65245;" d="M341.333,256c-26.863,0-52.147,12.646-68.267,34.133v213.333l0.742-1.237
	c15.42-25.702,43.196-41.429,73.173-41.429h96.751V256H341.333z"/>
<path style="fill:#FEC9A3;" d="M25.6,290.133h51.2c9.429,0,17.067,7.637,17.067,17.067v102.4c0,9.429-7.637,17.067-17.067,17.067
	H25.6c-9.429,0-17.067-7.637-17.067-17.067V307.2C8.533,297.771,16.171,290.133,25.6,290.133z"/>
<g>
	<rect x="42.667" y="315.733" style="fill:#EBAB7C;" width="51.2" height="17.067"/>
	<rect x="42.667" y="349.867" style="fill:#EBAB7C;" width="51.2" height="17.067"/>
	<rect x="42.667" y="384" style="fill:#EBAB7C;" width="51.2" height="17.067"/>
</g>
<rect x="238.933" y="290.133" style="fill:#ED6051;" width="34.133" height="213.333"/>
<path style="fill:#FEC9A3;" d="M435.2,290.133h51.2c9.429,0,17.067,7.637,17.067,17.067v102.4c0,9.429-7.637,17.067-17.067,17.067
	h-51.2c-9.429,0-17.067-7.637-17.067-17.067V307.2C418.133,297.771,425.771,290.133,435.2,290.133z"/>
<g>
	<rect x="418.133" y="384" style="fill:#EBAB7C;" width="51.2" height="17.067"/>
	<rect x="418.133" y="349.867" style="fill:#EBAB7C;" width="51.2" height="17.067"/>
	<rect x="418.133" y="315.733" style="fill:#EBAB7C;" width="51.2" height="17.067"/>
</g>
<g>
	<rect x="145.067" y="128" style="fill:#F0E4D6;" width="221.867" height="17.067"/>
	<circle style="fill:#F0E4D6;" cx="204.8" cy="136.533" r="34.133"/>
	<circle style="fill:#F0E4D6;" cx="307.2" cy="136.533" r="34.133"/>
</g>
<path style="fill:#91562F;" d="M340.898,85.205c-4.745-46.891-46.601-81.058-93.483-76.314
	c-37.188,3.763-67.601,31.283-75.042,67.908c10.411-0.179,71.083-2.244,117.76-25.6C302.711,67.959,320.614,79.957,340.898,85.205z"
	/>
<path d="M486.4,281.6h-34.133V256c0-4.71-3.823-8.533-8.533-8.533h-102.4c-27.938,0.111-54.383,12.612-72.201,34.133h-26.266
	c-17.818-21.521-44.262-34.022-72.201-34.133h-102.4c-4.71,0-8.533,3.823-8.533,8.533v25.6H25.6C11.46,281.6,0,293.06,0,307.2v102.4
	c0,14.14,11.46,25.6,25.6,25.6h34.133v25.6c0,4.71,3.823,8.533,8.533,8.533h96.751c26.957,0.077,51.917,14.208,65.852,37.282
	l0.742,1.237c0.333,0.529,0.725,1.024,1.169,1.468c0.06,0.068,0.102,0.145,0.162,0.213c0.7,0.666,1.51,1.212,2.389,1.604
	c0.213,0.102,0.427,0.179,0.657,0.265c0.939,0.375,1.937,0.58,2.944,0.597h34.133c1.007-0.017,2.005-0.222,2.944-0.597
	c0.23-0.085,0.444-0.162,0.657-0.265c0.879-0.393,1.69-0.939,2.389-1.604c0.06-0.068,0.102-0.145,0.162-0.213
	c0.444-0.444,0.836-0.939,1.169-1.468l0.734-1.229c13.935-23.074,38.903-37.214,65.86-37.291h96.751c4.71,0,8.533-3.823,8.533-8.533
	v-25.6H486.4c14.14,0,25.6-11.46,25.6-25.6V307.2C512,293.06,500.54,281.6,486.4,281.6z M17.067,409.6V307.2
	c0-4.71,3.823-8.533,8.533-8.533h51.2c4.71,0,8.533,3.823,8.533,8.533v8.533H42.667V332.8h42.667v17.067H42.667v17.067h42.667V384
	H42.667v17.067h42.667v8.533c0,4.71-3.823,8.533-8.533,8.533H25.6C20.89,418.133,17.067,414.31,17.067,409.6z M165.018,452.267H76.8
	V435.2c14.14,0,25.6-11.46,25.6-25.6V307.2c0-14.14-11.46-25.6-25.6-25.6v-17.067h93.867c23.185,0.06,45.116,10.53,59.733,28.527
	v185.771C212.864,461.858,189.423,452.335,165.018,452.267z M247.467,298.667h17.067v196.267h-17.067V298.667z M435.2,452.267
	h-88.218c-24.405,0.068-47.846,9.591-65.382,26.564V293.06c14.618-17.997,36.548-28.467,59.733-28.527H435.2V281.6
	c-14.14,0-25.6,11.46-25.6,25.6v102.4c0,14.14,11.46,25.6,25.6,25.6V452.267z M494.933,409.6c0,4.71-3.823,8.533-8.533,8.533h-51.2
	c-4.71,0-8.533-3.823-8.533-8.533v-8.533h42.667V384h-42.667v-17.067h42.667v-17.067h-42.667V332.8h42.667v-17.067h-42.667V307.2
	c0-4.71,3.823-8.533,8.533-8.533h51.2c4.71,0,8.533,3.823,8.533,8.533V409.6z"/>
<path d="M184.422,205.653c33.314,39.535,92.373,44.57,131.908,11.255c4.062-3.422,7.834-7.194,11.255-11.255
	c22.417,2.782,43.068,13.602,58.112,30.447l12.715-11.383c-15.804-17.69-36.881-29.807-60.109-34.577
	c7.603-13.807,11.58-29.312,11.563-45.073h17.067V128h-17.067V93.867C349.867,42.027,307.84,0,256,0s-93.867,42.027-93.867,93.867
	V128h-17.067v17.067h17.067c-0.017,15.761,3.968,31.258,11.563,45.065c-23.484,4.821-44.749,17.161-60.587,35.157l12.8,11.29
	C140.979,219.469,161.792,208.469,184.422,205.653z M256,221.867c-31.189-0.034-59.273-18.918-71.074-47.787
	c6.101,3.319,12.928,5.077,19.874,5.12c20.267-0.026,37.734-14.285,41.813-34.133h18.773c4.079,19.849,21.547,34.108,41.813,34.133
	c6.946-0.043,13.773-1.801,19.874-5.12C315.273,202.948,287.189,221.833,256,221.867z M307.2,162.133c-14.14,0-25.6-11.46-25.6-25.6
	s11.46-25.6,25.6-25.6s25.6,11.46,25.6,25.6S321.34,162.133,307.2,162.133z M332.8,93.867v8.755
	c-7.339-5.649-16.341-8.721-25.6-8.755c-20.267,0.026-37.734,14.285-41.813,34.133h-18.773
	c-4.079-19.849-21.547-34.108-41.813-34.133c-9.259,0.034-18.261,3.106-25.6,8.755v-8.755c0.017-2.935,0.196-5.871,0.546-8.789
	c37.06-1.331,73.591-9.199,107.904-23.253c12.1,13.756,27.648,24.038,45.039,29.781C332.706,92.365,332.8,93.107,332.8,93.867z
	 M230.4,136.533c0,14.14-11.46,25.6-25.6,25.6c-14.14,0-25.6-11.46-25.6-25.6s11.46-25.6,25.6-25.6
	C218.94,110.933,230.4,122.394,230.4,136.533z M256,17.067c34.039,0.051,64,22.485,73.634,55.134
	c-12.774-5.769-23.91-14.609-32.427-25.737c-2.389-3.575-7.066-4.821-10.914-2.893c-35.652,17.826-80.572,22.767-102.4,24.149
	C194.901,37.367,223.71,17.126,256,17.067z"/>
<g>
</g>
<g>
</g>
<g>
</g>
<g>
</g>
<g>
</g>
<g>
</g>
<g>
</g>
<g>
</g>
<g>
</g>
<g>
</g>
<g>
</g>
<g>
</g>
<g>
</g>
<g>
</g>
<g>
</g>
</svg>
