<svg height="444pt" viewBox="0 -6 444.20133 444" width="444pt" xmlns="http://www.w3.org/2000/svg"><path d="m278.800781 289 .300781 1.902344-54.800781 8 52.5 51.199218-10.5 61-.398437-.101562-256 .5c-.203125-95.699219 71.097656-166 159.199218-166.097656 42.5-.203125 81.097657 16 109.699219 43.597656zm0 0" fill="#e48e66"/><path d="m169.300781 10.101562c52.851563 0 95.699219 42.84375 95.699219 95.699219s-42.847656 95.699219-95.699219 95.699219c-52.855469 0-95.699219-42.84375-95.699219-95.699219s42.84375-95.699219 95.699219-95.699219zm0 0" fill="#f8ec7d"/><path d="m169.300781 245.300781h-.199219c-88 .199219-159.300781 70.5-159.101562 166.101563l159.300781-.300782zm0 0" fill="#d18162"/><path d="m169.300781 10.101562c-52.855469 0-95.699219 42.84375-95.699219 95.699219s42.84375 95.699219 95.699219 95.699219zm0 0" fill="#e2d574"/><path d="m434.300781 298.800781-52.5 51.199219 12.398438 72.300781-64.898438-34.199219-64.898437 34.199219 2-11.300781 10.398437-61-52.5-51.199219 54.800781-7.898437 17.800782-2.601563 32.398437-65.800781 32.5 65.800781zm0 0" fill="#f8ec7d"/><g fill="#63316d"><path d="m435.699219 288.902344-67.296875-9.800782-30.101563-61c-1.6875-3.429687-5.179687-5.601562-9-5.601562-3.820312 0-7.3125 2.171875-9 5.601562l-30.101562 61-6.296875.898438c-31.039063-28.953125-71.957032-44.976562-114.402344-44.800781h-.398438c-45.800781.101562-88.300781 17.902343-119.800781 50.300781-31.898437 32.800781-49.3984372 77.5-49.300781 126 .0195312 2.652344 1.058594 5.195312 2.902344 7.101562 1.878906 1.878907 4.4375 2.925782 7.097656 2.898438l244.5-.5c-.503906 3.632812 1.035156 7.246094 4 9.402344 3.082031 2.191406 7.121094 2.5 10.5.796875l60.199219-31.699219 60.203125 31.699219c3.40625 1.714843 7.484375 1.410156 10.597656-.796875 3.089844-2.242188 4.640625-6.039063 4-9.800782l-11.5-67.101562 48.699219-47.5c2.722656-2.679688 3.691406-6.667969 2.5-10.300781-1.136719-3.613281-4.246094-6.257813-8-6.796875zm-177.796875 112.097656-237.703125.5c2.101562-39.300781 17.402343-75.199219 43.402343-101.898438 27.699219-28.5 65.199219-44.199218 105.5-44.199218h.300782c31.597656-.09375 62.402344 9.929687 87.898437 28.597656l-34.5 5c-3.777343.53125-6.921875 3.171875-8.101562 6.800781-1.175781 3.628907-.210938 7.613281 2.5 10.300781l48.703125 47.5zm116.898437-58.199219c-2.367187 2.3125-3.449219 5.636719-2.898437 8.898438l9 52.300781-47-24.699219c-1.453125-.75-3.066406-1.128906-4.703125-1.101562-1.628907.019531-3.230469.394531-4.699219 1.101562l-47 24.699219 9-52.300781c.582031-3.261719-.503906-6.605469-2.898438-8.898438l-38-37 52.5-7.601562c3.265626-.449219 6.085938-2.515625 7.5-5.5l23.5-47.597657 23.5 47.597657c1.457032 2.945312 4.253907 4.996093 7.5 5.5l52.5 7.601562zm0 0"/><path d="m169.300781 211.5c58.375 0 105.699219-47.324219 105.699219-105.699219s-47.324219-105.699219-105.699219-105.699219-105.699219 47.324219-105.699219 105.699219c.054688 58.355469 47.34375 105.644531 105.699219 105.699219zm0-191.398438c47.332031 0 85.699219 38.367188 85.699219 85.699219s-38.367188 85.699219-85.699219 85.699219-85.699219-38.367188-85.699219-85.699219c.054688-47.308593 38.390626-85.644531 85.699219-85.699219zm0 0"/></g></svg>