<svg height="496pt" viewBox="-32 0 496 496.00763" width="496pt" xmlns="http://www.w3.org/2000/svg"><path d="m424.003906 184.007812c0-134.214843-150.238281-233.34375-291.71875-138.382812-9 6.039062-16.769531 13.847656-22.800781 22.855469-69.265625 103.457031-34.90625 211.390625 40.984375 262 26.511719 17.679687 41.535156 48.238281 41.535156 80.109375v29.417968h112v-30.503906c0-31.398437 14.960938-61.410156 41.128906-78.761718 47.527344-31.503907 78.871094-85.445313 78.871094-146.734376zm0 0" fill="#599072"/><path d="m96.003906 88.007812c0-22.089843-17.910156-40-40-40 22.089844 0 40-17.914062 40-40 0 22.085938 17.910156 40 40 40-22.089844 0-40 17.910157-40 40zm0 0" fill="#f8cf6a"/><path d="m48.003906 168.007812c0-22.089843-17.910156-40-40-40 22.089844 0 40-17.914062 40-40 0 22.085938 17.910156 40 40 40-22.089844 0-40 17.910157-40 40zm0 0" fill="#f8cf6a"/><path d="m208.003906 440.007812v8c0 22.085938 17.910156 40 40 40s40-17.914062 40-40v-8" fill="#999"/><path d="m236.003906 485.976562c16.183594-5.121093 28-20.082031 28-37.96875v-8h-56v8c0 17.878907 11.816406 32.839844 28 37.96875zm0 0" fill="#bab8b9"/><path d="m232.308594 72.007812c0-13.257812-10.746094-24-24-24-12.777344 0-23.121094 10.007813-23.855469 22.59375-4.304687-4.058593-10.066406-6.59375-16.449219-6.59375-13.257812 0-24 10.742188-24 24 0 6.246094 2.449219 11.894532 6.367188 16.167969-16.902344.863281-30.367188 14.71875-30.367188 31.832031 0 9.808594 4.511719 18.480469 11.457032 24.351563-1.136719-.167969-2.273438-.351563-3.457032-.351563-13.257812 0-24 10.742188-24 24 0 13.253907 10.742188 24 24 24 1.183594 0 2.320313-.183593 3.457032-.351562-6.945313 5.871094-11.457032 14.542969-11.457032 24.351562 0 16.808594 13 30.433594 29.464844 31.742188-3.960938 4.28125-6.441406 9.960938-6.441406 16.257812 0 13.253907 10.746094 24 24 24 6.679687 0 12.710937-2.734374 17.054687-7.136718.472657 12.847656 10.960938 23.136718 23.921875 23.136718 13.257813 0 24-10.746093 24-24zm0 0" fill="#dcb29c"/><path d="m263.699219 72.007812c0-13.257812 10.746093-24 24-24 12.777343 0 23.121093 10.007813 23.855469 22.59375 4.304687-4.058593 10.066406-6.59375 16.449218-6.59375 13.257813 0 24 10.742188 24 24 0 6.246094-2.449218 11.894532-6.367187 16.167969 16.902343.863281 30.367187 14.71875 30.367187 31.832031 0 9.808594-4.511718 18.480469-11.457031 24.351563 1.136719-.167969 2.273437-.351563 3.457031-.351563 13.257813 0 24 10.742188 24 24 0 13.253907-10.742187 24-24 24-1.183594 0-2.320312-.183593-3.457031-.351562 6.945313 5.871094 11.457031 14.542969 11.457031 24.351562 0 16.808594-13 30.433594-29.464844 31.742188 3.960938 4.28125 6.441407 9.960938 6.441407 16.257812 0 13.253907-10.746094 24-24 24-6.679688 0-12.710938-2.734374-17.058594-7.136718-.46875 12.847656-10.957031 23.136718-23.917969 23.136718-13.257812 0-24-10.746093-24-24zm0 0" fill="#dcb29c"/><path d="m208.003906 328.007812c-17.648437 0-32-14.351562-32-32h16c0 8.824219 7.175782 16 16 16 8.824219 0 16-7.175781 16-16v-224c0-8.824218-7.175781-16-16-16-8.824218 0-16 7.175782-16 16h-16c0-17.648437 14.351563-32 32-32 17.648438 0 32 14.351563 32 32v224c0 17.648438-14.351562 32-32 32zm0 0"/><path d="m168.003906 120.007812c-17.648437 0-32-14.351562-32-32 0-17.648437 14.351563-32 32-32 17.648438 0 32 14.351563 32 32h-16c0-8.824218-7.175781-16-16-16-8.824218 0-16 7.175782-16 16 0 8.824219 7.175782 16 16 16zm0 0"/><path d="m152.003906 176.007812c-22.054687 0-40-17.945312-40-40 0-22.054687 17.945313-40 40-40v16c-13.230468 0-24 10.769532-24 24 0 13.230469 10.769532 24 24 24 13.230469 0 24-10.769531 24-24h16c0 22.054688-17.945312 40-40 40zm0 0"/><path d="m168.003906 312.007812c-17.648437 0-32-14.351562-32-32 0-17.648437 14.351563-32 32-32v16c-8.824218 0-16 7.175782-16 16 0 8.824219 7.175782 16 16 16 8.824219 0 16-7.175781 16-16h16c0 17.648438-14.351562 32-32 32zm0 0"/><path d="m152.003906 272.007812c-22.054687 0-40-17.945312-40-40 0-22.054687 17.945313-40 40-40 22.054688 0 40 17.945313 40 40h-16c0-13.230468-10.769531-24-24-24-13.230468 0-24 10.769532-24 24 0 13.230469 10.769532 24 24 24zm0 0"/><path d="m128.003906 216.007812c-17.648437 0-32-14.351562-32-32 0-17.648437 14.351563-32 32-32v16c-8.824218 0-16 7.175782-16 16 0 8.824219 7.175782 16 16 16zm0 0"/><path d="m288.003906 328.007812c-17.648437 0-32-14.351562-32-32v-224c0-17.648437 14.351563-32 32-32 17.648438 0 32 14.351563 32 32h-16c0-8.824218-7.175781-16-16-16-8.824218 0-16 7.175782-16 16v224c0 8.824219 7.175782 16 16 16 8.824219 0 16-7.175781 16-16h16c0 17.648438-14.351562 32-32 32zm0 0"/><path d="m328.003906 120.007812v-16c8.824219 0 16-7.175781 16-16 0-8.824218-7.175781-16-16-16-8.824218 0-16 7.175782-16 16h-16c0-17.648437 14.351563-32 32-32 17.648438 0 32 14.351563 32 32 0 17.648438-14.351562 32-32 32zm0 0"/><path d="m344.003906 176.007812c-22.054687 0-40-17.945312-40-40h16c0 13.230469 10.769532 24 24 24 13.230469 0 24-10.769531 24-24 0-13.230468-10.769531-24-24-24v-16c22.054688 0 40 17.945313 40 40 0 22.054688-17.945312 40-40 40zm0 0"/><path d="m328.003906 312.007812c-17.648437 0-32-14.351562-32-32h16c0 8.824219 7.175782 16 16 16 8.824219 0 16-7.175781 16-16 0-8.824218-7.175781-16-16-16v-16c17.648438 0 32 14.351563 32 32 0 17.648438-14.351562 32-32 32zm0 0"/><path d="m344.003906 272.007812v-16c13.230469 0 24-10.769531 24-24 0-13.230468-10.769531-24-24-24-13.230468 0-24 10.769532-24 24h-16c0-22.054687 17.945313-40 40-40 22.054688 0 40 17.945313 40 40 0 22.054688-17.945312 40-40 40zm0 0"/><path d="m368.003906 216.007812v-16c8.824219 0 16-7.175781 16-16 0-8.824218-7.175781-16-16-16v-16c17.648438 0 32 14.351563 32 32 0 17.648438-14.351562 32-32 32zm0 0"/><path d="m304.003906 448.007812h-112c-4.417968 0-8-3.578124-8-8v-29.144531c0-30.28125-14.25-57.878906-38.121094-73.832031-53.199218-35.542969-83.78125-94.945312-81.789062-158.878906l15.988281.496094c-1.8125 58.382812 26.113281 112.613281 74.691407 145.085937 28.328124 18.921875 45.230468 51.496094 45.230468 87.128906v21.144531h96v-22.496093c0-34.9375 16.710938-66.871094 44.710938-85.441407 47.144531-31.238281 75.289062-83.597656 75.289062-140.0625 0-46.855468-18.816406-90.351562-52.984375-122.457031-34.144531-32.078125-78.832031-48.136719-125.785156-45.207031l-.992187-15.96875c51.386718-3.222656 100.34375 14.394531 137.730468 49.519531 36.878906 34.648438 58.03125 83.535157 58.03125 134.113281 0 61.832032-30.824218 119.175782-82.449218 153.40625-23.511719 15.585938-37.550782 42.539063-37.550782 72.097657v30.496093c0 4.421876-3.585937 8-8 8zm0 0"/><path d="m248.003906 496.007812c-26.472656 0-48-21.527343-48-48v-8h16v8c0 17.648438 14.351563 32 32 32 17.648438 0 32-14.351562 32-32v-8h16v8c0 26.472657-21.527344 48-48 48zm0 0"/><path d="m168.003906 400.007812h160v16h-160zm0 0"/><path d="m152.003906 368.007812h192v16h-192zm0 0"/><path d="m96.003906 96.007812c-4.417968 0-8-3.578124-8-8 0-17.648437-14.351562-32-32-32-4.417968 0-8-3.578124-8-8 0-4.425781 3.582032-8 8-8 17.648438 0 32-14.351562 32-32 0-4.425781 3.582032-7.9999995 8-7.9999995 4.414063 0 8 3.5742185 8 7.9999995 0 17.648438 14.351563 32 32 32 4.414063 0 8 3.574219 8 8 0 4.421876-3.585937 8-8 8-17.648437 0-32 14.351563-32 32 0 4.421876-3.585937 8-8 8zm-13.496094-48c5.34375 3.550782 9.945313 8.152344 13.496094 13.496094 3.550782-5.34375 8.152344-9.945312 13.496094-13.496094-5.34375-3.550781-9.945312-8.152343-13.496094-13.496093-3.550781 5.34375-8.152344 9.945312-13.496094 13.496093zm0 0"/><path d="m48.003906 176.007812c-4.417968 0-8-3.578124-8-8 0-17.648437-14.351562-32-32-32-4.417968 0-7.99999975-3.578124-7.99999975-8 0-4.425781 3.58203175-8 7.99999975-8 17.648438 0 32-14.351562 32-32 0-4.425781 3.582032-8 8-8 4.414063 0 8 3.574219 8 8 0 17.648438 14.351563 32 32 32 4.414063 0 8 3.574219 8 8 0 4.421876-3.585937 8-8 8-17.648437 0-32 14.351563-32 32 0 4.421876-3.585937 8-8 8zm-13.496094-48c5.34375 3.550782 9.9375 8.152344 13.496094 13.496094 3.550782-5.34375 8.152344-9.9375 13.496094-13.496094-5.34375-3.550781-9.9375-8.152343-13.496094-13.496093-3.550781 5.34375-8.152344 9.945312-13.496094 13.496093zm0 0"/></svg>