<svg height="480pt" viewBox="0 0 480 480" width="480pt" xmlns="http://www.w3.org/2000/svg"><path d="m256 272h-80l32-64h80zm0 0" fill="#4398d1"/><path d="m408 64c17.671875 0 32 14.328125 32 32v16c0 17.671875-14.328125 32-32 32s-32-14.328125-32-32v-16c0-17.671875 14.328125-32 32-32zm0 0" fill="#4398d1"/><path d="m376 208v96h-40c-26.507812 0-48 21.492188-48 48v96l-16 24h64v-120h56c26.507812 0 48-21.492188 48-48v-96c0-17.671875-14.328125-32-32-32s-32 14.328125-32 32zm0 0" fill="#4398d1"/><path d="m376 480h-16v-104c0-17.671875 14.328125-32 32-32h80v16h-80c-8.835938 0-16 7.164062-16 16zm0 0" fill="#c7cacc"/><path d="m72 144c-17.671875 0-32-14.328125-32-32v-16c0-17.671875 14.328125-32 32-32s32 14.328125 32 32v16c0 17.671875-14.328125 32-32 32zm0 0" fill="#4398d1"/><path d="m104 208v96h40c26.507812 0 48 21.492188 48 48v96l16 24h-64v-120h-56c-26.507812 0-48-21.492188-48-48v-96c0-17.671875 14.328125-32 32-32s32 14.328125 32 32zm0 0" fill="#4398d1"/><g fill="#c7cacc"><path d="m120 480h-16v-104c0-8.835938-7.164062-16-16-16h-80v-16h80c17.671875 0 32 14.328125 32 32zm0 0"/><path d="m464 192h16v288h-16zm0 0"/><path d="m336 264h-192v16h88v200h16v-200h88zm0 0"/><path d="m0 192h16v288h-16zm0 0"/></g><path d="m320 104h-16v32l-32-32h-48c-13.253906 0-24-10.746094-24-24v-48c0-13.253906 10.746094-24 24-24h96c13.253906 0 24 10.746094 24 24v48c0 13.253906-10.746094 24-24 24zm0 0" fill="#fdb62f"/><path d="m160 136h16v32l32-32h16c13.253906 0 24-10.746094 24-24v-32c0-13.253906-10.746094-24-24-24h-64c-13.253906 0-24 10.746094-24 24v32c0 13.253906 10.746094 24 24 24zm0 0" fill="#e3584b"/><path d="m160 88h16v16h-16zm0 0" fill="#c9473a"/><path d="m192 88h32v16h-32zm0 0" fill="#c9473a"/><path d="m256 32h32v16h-32zm0 0" fill="#f28e13"/><path d="m304 32h16v16h-16zm0 0" fill="#f28e13"/><path d="m272 64h48v16h-48zm0 0" fill="#f28e13"/><path d="m408 152c22.082031-.027344 39.972656-17.917969 40-40v-16c0-22.089844-17.910156-40-40-40s-40 17.910156-40 40v16c.027344 22.082031 17.917969 39.972656 40 40zm-24-56c0-13.253906 10.746094-24 24-24s24 10.746094 24 24v16c0 13.253906-10.746094 24-24 24s-24-10.746094-24-24zm0 0"/><path d="m72 152c22.082031-.027344 39.972656-17.917969 40-40v-16c0-22.089844-17.910156-40-40-40s-40 17.910156-40 40v16c.027344 22.082031 17.917969 39.972656 40 40zm-24-56c0-13.253906 10.746094-24 24-24s24 10.746094 24 24v16c0 13.253906-10.746094 24-24 24s-24-10.746094-24-24zm0 0"/><path d="m200 445.601562v-93.601562c-.039062-30.910156-25.089844-55.960938-56-56h-32v-88c0-22.089844-17.910156-40-40-40s-40 17.910156-40 40v96c-.003906 15.066406 6.085938 29.496094 16.886719 40h-32.886719v-152h-16v288h16v-120h72c8.835938 0 16 7.164062 16 16v104h16v-104c-.03125-5.632812-1.570312-11.15625-4.449219-16h20.449219v112c0 4.417969 3.582031 8 8 8h64c2.949219 0 5.664062-1.625 7.054688-4.226562 1.390624-2.601563 1.238281-5.757813-.398438-8.214844zm-48 18.398438v-112c0-4.417969-3.582031-8-8-8h-56c-22.082031-.027344-39.972656-17.917969-40-40v-96c0-13.253906 10.746094-24 24-24s24 10.746094 24 24v96c0 4.417969 3.582031 8 8 8h40c22.082031.027344 39.972656 17.917969 40 40v96c.003906 1.578125.46875 3.125 1.34375 4.441406l7.710938 11.558594zm0 0"/><path d="m464 344h-32.886719c10.800781-10.503906 16.890625-24.933594 16.886719-40v-96c0-22.089844-17.910156-40-40-40s-40 17.910156-40 40v88h-32c-30.910156.039062-55.960938 25.089844-56 56v93.601562l-14.65625 21.984376c-1.625 2.453124-1.769531 5.601562-.378906 8.195312s4.09375 4.214844 7.035156 4.21875h64c4.417969 0 8-3.582031 8-8v-112h20.449219c-2.878907 4.84375-4.417969 10.367188-4.449219 16v104h16v-104c0-8.835938 7.164062-16 16-16h72v120h16v-288h-16zm-72 0h-56c-4.417969 0-8 3.582031-8 8v112h-41.054688l7.710938-11.558594c.875-1.316406 1.339844-2.863281 1.34375-4.441406v-96c.027344-22.082031 17.917969-39.972656 40-40h40c4.417969 0 8-3.582031 8-8v-96c0-13.253906 10.746094-24 24-24s24 10.746094 24 24v96c-.027344 22.082031-17.917969 39.972656-40 40zm0 0"/><path d="m336 264h-67.054688l26.253907-52.425781c1.242187-2.484375 1.105469-5.4375-.363281-7.800781-1.46875-2.359376-4.054688-3.789063-6.835938-3.773438h-80c-3.03125 0-5.804688 1.710938-7.160156 4.425781l-29.785156 59.574219h-27.054688v16h88v200h16v-200h88zm-84.945312 0h-62.109376l24-48h62.109376zm0 0"/><path d="m304 144c1.050781.003906 2.09375-.203125 3.0625-.609375 2.988281-1.238281 4.9375-4.15625 4.9375-7.390625v-24h8c17.671875 0 32-14.328125 32-32v-48c0-17.671875-14.328125-32-32-32h-96c-17.671875 0-32 14.328125-32 32h16c0-8.835938 7.164062-16 16-16h96c8.835938 0 16 7.164062 16 16v48c0 8.835938-7.164062 16-16 16h-16c-4.417969 0-8 3.582031-8 8v12.6875l-18.34375-18.34375-11.3125 11.3125 32 32c1.5 1.5 3.535156 2.34375 5.65625 2.34375zm0 0"/><path d="m128 80v32c0 17.671875 14.328125 32 32 32h8v24c0 3.234375 1.949219 6.152344 4.9375 7.390625.96875.40625 2.011719.613281 3.0625.609375 2.121094 0 4.15625-.84375 5.65625-2.34375l29.65625-29.65625h12.6875c17.671875 0 32-14.328125 32-32v-32c0-17.671875-14.328125-32-32-32h-64c-17.671875 0-32 14.328125-32 32zm112 0v32c0 8.835938-7.164062 16-16 16h-16c-2.121094 0-4.15625.84375-5.65625 2.34375l-18.34375 18.34375v-12.6875c0-4.417969-3.582031-8-8-8h-16c-8.835938 0-16-7.164062-16-16v-32c0-8.835938 7.164062-16 16-16h64c8.835938 0 16 7.164062 16 16zm0 0"/><path d="m160 88h16v16h-16zm0 0"/><path d="m192 88h32v16h-32zm0 0"/><path d="m256 32h32v16h-32zm0 0"/><path d="m304 32h16v16h-16zm0 0"/><path d="m272 64h48v16h-48zm0 0"/></svg>