<svg xmlns="http://www.w3.org/2000/svg" viewBox="0 0 90 92"><defs><style>.cls-1{fill:#fff;fill-rule:evenodd;}</style></defs><title>Asset 2</title><g id="Layer_2" data-name="Layer 2"><g id="Layer_1-2" data-name="Layer 1"><g id="Page-1"><g id="bubbles"><path id="Combined-Shape" class="cls-1" d="M7,18a7,7,0,1,0-7-7A7,7,0,0,0,7,18ZM55,43a7,7,0,1,0-7-7A7,7,0,0,0,55,43ZM12,36a3,3,0,1,0-3-3A3,3,0,0,0,12,36ZM75,67a3,3,0,1,0-3-3A3,3,0,0,0,75,67ZM30,90a3,3,0,1,0-3-3A3,3,0,0,0,30,90ZM86,14a3,3,0,1,0-3-3A3,3,0,0,0,86,14ZM8,86a4,4,0,1,0-4-4A4,4,0,0,0,8,86ZM36,21a4,4,0,1,0-4-4A4,4,0,0,0,36,21ZM59,10a5,5,0,1,0-5-5A5,5,0,0,0,59,10ZM53,70a4,4,0,1,0-4-4A4,4,0,0,0,53,70ZM82,92a5,5,0,1,0-5-5A5,5,0,0,0,82,92ZM28,63a5,5,0,1,0-5-5A5,5,0,0,0,28,63ZM85,50a5,5,0,1,0-5-5A5,5,0,0,0,85,50ZM76,29a2,2,0,1,0-2-2A2,2,0,0,0,76,29ZM56,91a2,2,0,1,0-2-2A2,2,0,0,0,56,91ZM31,41a2,2,0,1,0-2-2A2,2,0,0,0,31,41ZM8,60a2,2,0,1,0-2-2A2,2,0,0,0,8,60Z"/></g></g></g></g></svg>