<svg xmlns="http://www.w3.org/2000/svg" viewBox="0 0 1600 803.05"><defs><style>.cls-1{fill:#4c4c4c;}.cls-2{fill:#ff7;}.cls-2,.cls-3,.cls-4{opacity:0.1;}.cls-2,.cls-3{isolation:isolate;}.cls-3{fill:#5ff;}.cls-5{fill:#fff;}</style></defs><title>Asset 5</title><g id="Layer_2" data-name="Layer 2"><g id="Layer_1-2" data-name="Layer 1"><rect class="cls-1" width="1600" height="800"/><path class="cls-2" d="M1149.77,746.65c2.5-1.2,24.8-8.6,25.6-7.5.5.7-3.9,23.8-4.6,24.5C1170.57,764,1154.77,751.35,1149.77,746.65ZM1273.57,241c0-.1-4.9-9.4-7-14.2-.1-.3-.3-1.1-.4-1.6a1.46,1.46,0,0,0-.6-.9.61.61,0,0,0-.8.1l-13.1,12.3h0a2,2,0,0,0-.4.8,1.8,1.8,0,0,0,.2,1c.1.1,1.4,2.5,2.1,3.6,2.4,3.7,6.5,12.1,6.5,12.2a1.34,1.34,0,0,0,.7.6.91.91,0,0,0,.7-.3s1.8-2.5,2.69-3.6c1.5-1.6,3-3.2,4.6-4.7a5.66,5.66,0,0,1,2.1-1.6,8.92,8.92,0,0,0,2.5-1.9A1.68,1.68,0,0,0,1273.57,241ZM80.27,782.15h0a1.16,1.16,0,0,0-1.2-1.2.6.6,0,0,0-.4.1c-1.6.2-14.3.1-22.2,0a1.22,1.22,0,0,0-.9.4,1.27,1.27,0,0,0-.4.9c0,.2,0,4.9.1,5.9l.4,13.6a1.8,1.8,0,0,0,.4.9,1.14,1.14,0,0,0,.8.3H57a161.7,161.7,0,0,1,22-.6,1.4,1.4,0,0,0,.9-.3,1.49,1.49,0,0,0,.4-.9C80.17,795.15,80.17,788.05,80.27,782.15Z"/><path class="cls-3" d="M218.37,395.25c1.3-2.5,14.3-22,15.6-21.6.8.3,11.5,21.2,11.5,22.1C245.37,396.05,225.17,395.85,218.37,395.25Zm425.3,328.4c-.1-.1-6.7-8.2-9.7-12.5a10.74,10.74,0,0,1-.7-1.5c-.2-.4-.4-.7-.7-.8a.67.67,0,0,0-.8.3l-10.5,14.7h0c-.2.2-.2.5-.2.9a1.49,1.49,0,0,0,.4.9c.1.1,1.8,2.2,2.8,3.1,3.1,3.1,8.8,10.5,8.9,10.6a.91.91,0,0,0,.8.4.63.63,0,0,0,.6-.5,43.66,43.66,0,0,1,2-4.1c1.1-1.9,2.3-3.7,3.5-5.5a6.24,6.24,0,0,1,1.7-2,7.6,7.6,0,0,0,2.1-2.4C644.17,725,644.07,724.15,643.67,723.65Zm131.1-531.9h0a1.1,1.1,0,0,0,1.4-.8v-.4c.2-1.4,2.8-12.6,4.5-19.5a.78.78,0,0,0-.2-.8,1.37,1.37,0,0,0-.8-.5c-.2,0-4.7-1.1-5.7-1.3l-13.4-2.7a1,1,0,0,0-.9.2,2.65,2.65,0,0,0-.5.6v.1a141.77,141.77,0,0,1-3.9,19.4,1,1,0,0,0,.2.9,1.37,1.37,0,0,0,.8.5C762.07,188.75,769,190.35,774.77,191.75Zm1-1.8a.52.52,0,0,0-.4-.2A.52.52,0,0,1,775.77,190Z"/><g class="cls-4"><path class="cls-5" d="M746.87,484.55a3.77,3.77,0,0,1-3.5-2.3,3.82,3.82,0,0,1,1.9-5,16.23,16.23,0,0,0,8.4-8.5,15.81,15.81,0,0,0,.2-11.9c-.3-.9-.8-1.8-1.2-2.8a29,29,0,0,1-2.3-5.9,18.91,18.91,0,0,1,2-12.8,32.54,32.54,0,0,1,7.6-9.1,3.76,3.76,0,1,1,4.9,5.7,25.49,25.49,0,0,0-5.9,7,10.64,10.64,0,0,0-1.3,7.6,21.29,21.29,0,0,0,1.7,4.3l1.5,3.3a24.3,24.3,0,0,1-.3,17.6,23.85,23.85,0,0,1-12.3,12.5A3.19,3.19,0,0,1,746.87,484.55Zm40.8-51.3a3.78,3.78,0,0,1,3.8,1.9,3.92,3.92,0,0,1-1.4,5.3,16.61,16.61,0,0,0-7.6,9.5,16.38,16.38,0,0,0,1.1,12.1,27.09,27.09,0,0,0,1.6,2.7,33.76,33.76,0,0,1,3,5.7,18.91,18.91,0,0,1-.6,13.2,32.63,32.63,0,0,1-6.8,10.1,3.84,3.84,0,0,1-5.5.2,3.72,3.72,0,0,1-.2-5.4,26.64,26.64,0,0,0,5.3-7.7,11.51,11.51,0,0,0,.5-7.9,23.66,23.66,0,0,0-2.2-4.1c-.6-1-1.3-2.1-1.9-3.2a24.39,24.39,0,0,1-1.7-17.8,24,24,0,0,1,11.2-14A2,2,0,0,1,787.67,433.25Zm-479.1,169.5c5.7,6.8,9,15.7,9.4,22.4.5,7.3-2.4,16.4-10.2,20.4a24.85,24.85,0,0,1-11.2,2.2c-7.9-.1-12.9-2.9-15.4-8.4-2.1-4.7-2.3-11.4,1.8-15.9,3.2-3.5,7.8-4.1,11.2-1.6a2.79,2.79,0,0,1-3.3,4.5c-1.8-1.3-3.6.6-3.8.8-2.4,2.6-2.1,7-.8,9.9,1.5,3.4,4.7,5,10.4,5.1a19.13,19.13,0,0,0,8.6-1.6c4.7-2.4,7.7-8.6,7.2-15-.5-7.3-5.3-18.2-13-23.9-4.2-3.1-8.5-4.1-12.9-3.1-3.1.7-6.2,2.4-9.7,5a42.13,42.13,0,0,0-14.2,19c-2.7,7.7-2.1,15.8,1.9,23.9a2.77,2.77,0,0,1-5,2.4c-4.6-9.4-5.4-19.2-2.2-28.2a47.64,47.64,0,0,1,16.1-21.6,32.19,32.19,0,0,1,11.8-6c6-1.4,12,0,17.5,4A39.08,39.08,0,0,1,308.57,602.75Z"/><circle class="cls-5" cx="1060.97" cy="165.75" r="7.1"/><circle class="cls-5" cx="1071.57" cy="143.95" r="7.1"/><circle class="cls-5" cx="1084.57" cy="160.75" r="7.1"/><path class="cls-5" d="M1556,309.05c-4.8-5.4-9.7-10.8-14.8-16.2a123.78,123.78,0,0,0,15.6-18.2,3.74,3.74,0,1,0-6.2-4.2,110.71,110.71,0,0,1-14.5,16.9c-4.8-5-9.7-10-14.7-14.9a3.75,3.75,0,1,0-5.3,5.3c4.9,4.8,9.7,9.8,14.5,14.8-1.1,1.1-2.3,2.2-3.5,3.2-4.1,3.8-8.4,7.8-12.4,12a3.87,3.87,0,0,0,0,5.3h0a3.77,3.77,0,0,0,5.3-.1c3.9-4,8.1-7.9,12.1-11.7,1.2-1.1,2.3-2.2,3.5-3.3,4.9,5.3,9.8,10.6,14.6,15.9l.2.2a3.85,3.85,0,0,0,5.2.2A3.49,3.49,0,0,0,1556,309.05Zm-1181.1-48.6-.4-2.6a292.23,292.23,0,0,1-2.3-37c0-5.5,0-11.5.2-18.5v-2.3c0-5,0-11.2,3.9-13.5,2.2-1.3,5.1-1,8.5.9,5.7,3.1,13.2,8.7,17.5,14.9a30.58,30.58,0,0,1,5,25.7c-3.2,12.3-15,31-30,32.1Zm4.5-69.4c-.2,0-.3,0-.4.1s-.7.5-1.1,2.7a42.93,42.93,0,0,0-.3,6.3v2.4c-.2,6.9-.2,12.8-.2,18.3a284.3,284.3,0,0,0,2,33.7c11-2.7,20.4-18.1,23-27.8a25.34,25.34,0,0,0-4.2-21.3h0c-3.9-5.5-10.9-10.6-15.9-13.3A7,7,0,0,0,379.37,191.05Zm184.2-118.4a.76.76,0,0,1-.4-.1,16.5,16.5,0,0,0-6.7-.7,1.3,1.3,0,1,1-.2-2.6,19,19,0,0,1,7.6.8,1.28,1.28,0,0,1,.9,1.6A1.36,1.36,0,0,1,563.57,72.65Zm-10.2,9.7a1.3,1.3,0,0,1-1.2-.8,20.93,20.93,0,0,1-1.3-6.6,1.25,1.25,0,0,1,2.5-.1,22.88,22.88,0,0,0,1.1,5.8,1.23,1.23,0,0,1-.8,1.6C553.67,82.35,553.47,82.35,553.37,82.35Zm-12-6.1a1.23,1.23,0,0,1-1-.5,1.36,1.36,0,0,1,.2-1.8,31.28,31.28,0,0,1,5.8-3.6,1.27,1.27,0,1,1,1.1,2.3,26.18,26.18,0,0,0-5.3,3.3A1.14,1.14,0,0,1,541.37,76.25Zm6.4-9.1a1.52,1.52,0,0,1-1.2-.7,20,20,0,0,0-2.4-3.4c-.3-.4-.7-.9-1.1-1.4a1.28,1.28,0,1,1,2-1.6c.4.5.8,1,1.1,1.4a18.41,18.41,0,0,1,2.7,3.9,1.32,1.32,0,0,1-.6,1.7A.75.75,0,0,1,547.77,67.15Zm6.2-.3a2.35,2.35,0,0,1-.8-.2,1.28,1.28,0,0,1-.3-1.8,56.88,56.88,0,0,0,3.3-5.2,1.25,1.25,0,0,1,2.2,1.2,47.34,47.34,0,0,1-3.5,5.6A1.27,1.27,0,0,1,554,66.85Zm522.6,327.8a.76.76,0,0,1-.4-.1,16.5,16.5,0,0,0-6.7-.7,1.3,1.3,0,1,1-.2-2.6,19,19,0,0,1,7.6.8,1.28,1.28,0,0,1,.9,1.6A1.36,1.36,0,0,1,1076.57,394.65Zm-10.2,9.7a1.3,1.3,0,0,1-1.2-.8,20.93,20.93,0,0,1-1.3-6.6,1.25,1.25,0,1,1,2.5-.1,22.88,22.88,0,0,0,1.1,5.8,1.23,1.23,0,0,1-.8,1.6C1066.67,404.35,1066.47,404.35,1066.37,404.35Zm-12-6.1a1.23,1.23,0,0,1-1-.5,1.36,1.36,0,0,1,.2-1.8,31.28,31.28,0,0,1,5.8-3.6,1.27,1.27,0,1,1,1.1,2.3,26.18,26.18,0,0,0-5.3,3.3A1.14,1.14,0,0,1,1054.37,398.25Zm6.4-9.1a1.52,1.52,0,0,1-1.2-.7,20,20,0,0,0-2.4-3.4c-.3-.4-.7-.9-1.1-1.4a1.28,1.28,0,0,1,2-1.6c.4.5.8,1,1.1,1.4a18.41,18.41,0,0,1,2.7,3.9,1.32,1.32,0,0,1-.6,1.7A.75.75,0,0,1,1060.77,389.15Zm6.2-.3a2.35,2.35,0,0,1-.8-.2,1.28,1.28,0,0,1-.3-1.8,56.88,56.88,0,0,0,3.3-5.2,1.25,1.25,0,0,1,2.2,1.2,47.34,47.34,0,0,1-3.5,5.6A1.27,1.27,0,0,1,1067,388.85Zm310,196.4a15,15,0,0,1-4.5-.7c-8.4-2.7-16.6-12.7-18.7-20a31.17,31.17,0,0,1-.9-4.4c-8.1,3.3-15.5,10.6-15.4,21a2.84,2.84,0,0,1-2.7,2.8h0a2.69,2.69,0,0,1-2.7-2.7,26,26,0,0,1,7-18,31.5,31.5,0,0,1,13.7-8.8,28.64,28.64,0,0,1,7.4-17.4c7-7.4,18.2-8.9,27.3-10.1l.7-.1a2.73,2.73,0,0,1,.8,5.4l-.7.1c-8.6,1.2-18.4,2.5-24,8.4a23.35,23.35,0,0,0-5.7,12.4,38.43,38.43,0,0,1,24.3,5.7,16.18,16.18,0,0,1,7.2,12.7,13.31,13.31,0,0,1-5.2,11.1A14.07,14.07,0,0,1,1377,585.25Zm-18.7-26.7a21.35,21.35,0,0,0,.8,4.4c1.7,5.8,8.7,14.2,15.1,16.3a7.34,7.34,0,0,0,7.2-1.1,7.67,7.67,0,0,0,3.1-6.6,10.81,10.81,0,0,0-4.8-8.3A32.34,32.34,0,0,0,1358.27,558.55Z"/></g></g></g></svg>