<svg xmlns="http://www.w3.org/2000/svg" viewBox="0 0 981.02 90.22"><defs><style>.cls-1{fill:#141825;opacity:0.89;}</style></defs><title>Asset 2</title><g id="Layer_2" data-name="Layer 2"><g id="Layer_1-2" data-name="Layer 1"><path class="cls-1" d="M979.32,0H2.22V7.07a15.73,15.73,0,0,1-.33,2.15L.08,11l2,2.41C1.42,14.16.72,15,0,15.82v6.81c.69.81,2,2.52,2,2.52v6.69s1.84,1.77,2.49,2.49c.39,1.94-.79,4,1.21,5.6,2.15,0,4.44-.12,6.71.06a1,1,0,0,1,1,1,1,1,0,0,1-.1.47c-.17.32-.5.72-.81.76a17,17,0,0,1-2.26,0L7,45.51c0,.74-.11,1.48-.17,2.33L4.59,50.28l4.34,4.49c-.74,1.75-2.08,1-3.1,1.3s-1.2,1-.89,1.48c.17.32.52.74.81.75,2.29.06,4.58,0,6.8,0,1,.59,1.14,1.12.66,1.68-.85,1-2.22.26-3.08.85-1.2.81-1.91,2.29-3.75,2.14-.58,0-1.22.69-2.37,1.07v2.24a6.66,6.66,0,0,1-1.69,2.43,2.41,2.41,0,0,0,1.91,1.12c3.1.56,3.49,1.92,1.53,4.49-.23.31-.62.51-.79.83a2.67,2.67,0,0,0,.57,3.73l.17.12c1.12.18,2.66-.43,3,.94C9,81,7.61,81.55,7,82.35c0,.75-.09,1.49-.14,2.32L6.55,85h876L889,78.79l3,1.13v2.16l-2.27,2.49.13.15c1.55,1.74,3.62.59,5.54,1L897.92,88H916.7l2.46-2.23L921.65,88c.89.07,1.64.15,2.27.21l2,1.72a9.27,9.27,0,0,0,1.08.25,6.29,6.29,0,0,1,.71-.48,34,34,0,0,1,6.86-2.86,3.58,3.58,0,0,1-.25-1.48,3.11,3.11,0,0,1,.11-.68,2.36,2.36,0,0,1,1.19-1.4h6.77c.8,0,1.59-1.75,1.4-2.83-.22-1.28-1.36-1.81-2-2.73a1,1,0,0,1,.45-1.34,1,1,0,0,1,.55-.1c1.84.07,3.91-.86,5.71,1.07a32.91,32.91,0,0,0,.07,4.44,2.28,2.28,0,0,0,1.52,1.44,2.69,2.69,0,0,0,3-1.06c.26-1.07-.4-2.38,1-3.3,1.66-.7,3.62-.2,5.53-.29s3.94.08,5.89-.07c.6,0,1.14-.78,1.66-1.16L965,74.94c.66-.65,1.58-1.14,1.7-1.77A8.67,8.67,0,0,1,970.92,67l2.34,2h1.79A39.23,39.23,0,0,0,979,66.4c-2.3-1.15-11.74-1.42-11.74-1.42h-.86c-.76.69-1.61,1.43-2.45,2.18-1.77-2.07-1.77-2.07,0-4.53h6.92c.27,0,.54-.51,1-.94l-2.17-2.6a33.64,33.64,0,0,0,0-4.26,1.18,1.18,0,0,0-1.25-1.1l-.17,0L966.6,55.4c-2.25-.31-1.33-2-1.39-3.14l2-2.37-2.1-2.55c-.18-2.54.35-4.85-.44-7.06-.12-.31-.55-.51-.82-.76-1.09-.11-2.36.4-3.24-1.13,0-.87-.15-2-.15-3.12,0-2.07.27-2.39,2.6-2.69a2.24,2.24,0,0,0,1.89-1c0-.75.09-1.51.14-2.33.74-.8,1.51-1.64,2.32-2.49a24.06,24.06,0,0,0-.4-5.29l-.1-.41v.55h-.18a1.56,1.56,0,0,1-1.09-.6c-.16-.19-.36-.55-.29-.71.44-.85.89-.92,1.44-.45a1.48,1.48,0,0,1,.59,1.79V22H971a11.57,11.57,0,0,0,1.12-2.29c.34-1.8-.3-2.53-2.43-2.75a2.14,2.14,0,0,1-2-1.1l2.15-2.48A31.58,31.58,0,0,1,969.9,9a1.08,1.08,0,0,1,1.15-1,1.16,1.16,0,0,1,.31.07L973,9.71a1.19,1.19,0,0,0,1.39-.94.69.69,0,0,0,0-.13c.22-1.48.11-3,.23-4.51,0-.29.51-.55,1-1a38.56,38.56,0,0,0,4.3-.06c.45,0,.81-.86,1.1-1.19Z"/></g></g></svg>