<svg id="Layer_1" enable-background="new 0 0 512 512" height="512" viewBox="0 0 512 512" width="512" xmlns="http://www.w3.org/2000/svg"><g id="XMLID_2160_"><g id="XMLID_2144_"><g id="XMLID_2191_"><path id="XMLID_1240_" d="m232.848 502h-34.084c-2.639 0-5.169-1.048-7.035-2.914l-63.916-63.916 31.113-31.113 80.958 80.958c6.267 6.268 1.828 16.985-7.036 16.985z" fill="#91def5"/></g><g id="XMLID_2184_"><path id="XMLID_1239_" d="m170.037 382.886h40v48h-40z" fill="#f5737f" transform="matrix(.707 -.707 .707 .707 -232.051 253.551)"/></g><g id="XMLID_2175_"><path id="XMLID_1238_" d="m185.088 83.738c-8.592 8.592-8.592 22.521 0 31.113l166.877 166.877c8.592 8.592 22.521 8.592 31.113 0 8.592-8.592 8.592-22.521 0-31.113l-166.878-166.877c-8.591-8.591-22.521-8.591-31.112 0z" fill="#91def5"/></g><g id="XMLID_2174_"><path id="XMLID_1216_" d="m327.923 195.461c15.621-15.621 15.621-40.948 0-56.569s-40.948-15.621-56.569 0z" fill="#f5737f"/></g><g id="XMLID_2161_"><path id="XMLID_1214_" d="m178.628 108.391c-.436 68.482-27.812 134.07-76.271 182.529l73.539 73.539c48.46-48.46 114.048-75.836 182.53-76.271z" fill="#dff6fc"/></g><g id="XMLID_2170_"><path id="XMLID_275_" d="m79.729 290.92-65.054 65.054c-6.248 6.248-6.248 16.379 0 22.627l73.539 73.539c6.248 6.248 16.379 6.248 22.627 0l65.054-65.054c6.248-6.248 6.248-16.379 0-22.627l-73.539-73.539c-6.248-6.248-16.379-6.248-22.627 0z" fill="#91def5"/></g><g id="XMLID_2157_"><path id="XMLID_268_" d="m433.229 117.466-30.442 22.219c-7.779 5.678-18.271-1.945-15.275-11.098l11.725-35.818-30.631-22.153c-7.795-5.637-3.807-17.956 5.813-17.956h37.802l11.57-35.793c2.96-9.158 15.916-9.158 18.876 0l11.57 35.793h37.802c9.62 0 13.608 12.319 5.813 17.956l-30.632 22.154 11.724 35.818c2.996 9.153-7.495 16.776-15.275 11.098z" fill="#ffcb7c"/></g></g><g id="XMLID_280_"><path id="XMLID_1243_" d="m341.354 194.75c12.833-19.403 10.714-45.854-6.359-62.928-9.444-9.443-22-14.645-35.355-14.645-9.958 0-19.469 2.895-27.579 8.279l-48.789-48.789c-6.044-6.044-14.08-9.373-22.627-9.373s-16.583 3.329-22.627 9.373c-6.046 6.046-9.153 13.929-9.339 21.868-.029.392-.041.789-.023 1.191 3.009 66.172-21.663 130.998-67.759 178.448-9.405-3.837-20.617-1.946-28.238 5.675l-65.056 65.054c-10.137 10.138-10.137 26.632 0 36.77l73.54 73.539c5.069 5.068 11.727 7.603 18.385 7.603s13.316-2.534 18.384-7.603l9.9-9.9 56.844 56.844c3.767 3.769 8.777 5.844 14.107 5.844h34.084c8.098 0 15.333-4.834 18.431-12.315s1.401-16.015-4.325-21.74l-39.946-39.946 21.213-21.214c1.875-1.876 2.929-4.419 2.929-7.071s-1.054-5.196-2.929-7.071l-33.941-33.94c-1.58-1.579-3.557-2.508-5.61-2.81 47.447-46.077 112.269-70.734 178.419-67.731.418.021.829.006 1.236-.024 7.924-.197 15.791-3.305 21.824-9.338 6.044-6.044 9.373-14.079 9.373-22.627s-3.328-16.583-9.373-22.628zm-41.715-57.573c8.013 0 15.547 3.12 21.213 8.787 9.218 9.218 11.166 22.99 5.855 34.139l-40.006-40.006c3.988-1.91 8.385-2.92 12.938-2.92zm-204.354 307.892-73.539-73.539c-1.133-1.133-1.757-2.64-1.757-4.242s.624-3.109 1.757-4.242l65.054-65.055c2.339-2.341 6.146-2.339 8.485 0l73.539 73.54c1.133 1.133 1.757 2.64 1.757 4.242 0 1.6-.623 3.105-1.752 4.237l-65.059 65.059c-2.339 2.34-6.146 2.34-8.485 0zm103.514 46.946-56.845-56.844 16.97-16.97 73.793 73.8zm8.209-82.301-14.142 14.142-19.799-19.799 9.899-9.899c.005-.005.01-.011.016-.017l4.226-4.226zm168.998-135.058c-4.679 4.681-12.291 4.681-16.971 0l-51.619-51.618c-3.905-3.904-10.237-3.904-14.142 0-3.905 3.905-3.905 10.237 0 14.143l41.623 41.623c-59.288 4.895-115.675 30.067-158.959 71.557l-59.483-59.484c41.489-43.285 66.656-99.674 71.554-158.962l41.625 41.626c3.906 3.904 10.238 3.905 14.142 0 3.905-3.905 3.906-10.237 0-14.143l-51.619-51.619c-4.679-4.679-4.679-12.291 0-16.97 2.266-2.267 5.28-3.516 8.485-3.516s6.219 1.249 8.485 3.516l166.877 166.877c2.267 2.267 3.515 5.28 3.515 8.485s-1.246 6.22-3.513 8.485z"/><path id="XMLID_1249_" d="m109.428 357.389c-3.905-3.903-10.236-3.904-14.142 0l-14.143 14.141c-3.905 3.905-3.906 10.236 0 14.143 1.953 1.952 4.512 2.929 7.071 2.929s5.118-.977 7.071-2.929l14.143-14.142c3.904-3.905 3.905-10.236 0-14.142z"/><path id="XMLID_1255_" d="m510.99 56.444c-2.711-8.373-10.15-13.784-18.951-13.784h-30.525l-9.332-28.868c-2.708-8.379-10.148-13.793-18.954-13.792-8.805 0-16.245 5.414-18.953 13.792l-9.332 28.868h-30.525c-8.801 0-16.24 5.411-18.951 13.784-2.71 8.374.146 17.117 7.278 22.276l24.717 17.875-9.454 28.881c-2.741 8.374.094 17.132 7.222 22.312 7.129 5.181 16.334 5.17 23.452-.025l24.546-17.916 24.546 17.916c3.565 2.603 7.653 3.903 11.742 3.903 4.075 0 8.151-1.293 11.709-3.878 7.128-5.18 9.963-13.938 7.222-22.311l-9.454-28.882 24.717-17.876c7.134-5.157 9.991-13.901 7.28-22.275zm-49.629 28.222c-3.524 2.549-4.997 7.082-3.644 11.214l11.646 35.58-30.239-22.071c-3.512-2.564-8.279-2.564-11.791 0l-30.238 22.071 11.646-35.58c1.353-4.132-.12-8.665-3.644-11.214l-30.43-22.006h37.553c4.338 0 8.181-2.797 9.515-6.924l11.493-35.554 11.493 35.554c1.334 4.127 5.177 6.924 9.515 6.924h37.553z"/><path id="XMLID_1256_" d="m284.082 74c5.523 0 10-4.478 10-10v-54c0-5.522-4.477-10-10-10s-10 4.478-10 10v54c0 5.522 4.478 10 10 10z"/><path id="XMLID_1257_" d="m474.977 197h-54c-5.523 0-10 4.478-10 10s4.477 10 10 10h54c5.523 0 10-4.478 10-10s-4.477-10-10-10z"/><path id="XMLID_1260_" d="m268.523 188.29c-2.63 0-5.21 1.069-7.07 2.93-1.86 1.86-2.93 4.44-2.93 7.07s1.07 5.21 2.93 7.069c1.86 1.86 4.44 2.931 7.07 2.931 2.64 0 5.21-1.07 7.08-2.931 1.86-1.859 2.92-4.439 2.92-7.069s-1.06-5.21-2.92-7.07c-1.87-1.861-4.44-2.93-7.08-2.93z"/></g></g></svg>