<svg xmlns="http://www.w3.org/2000/svg" viewBox="0 0 492 492"><defs><style>.cls-1{fill:#dda817;}.cls-2{fill:#fff;}</style></defs><title>Asset 3</title><g id="Layer_2" data-name="Layer 2"><g id="Layer_1-2" data-name="Layer 1"><path class="cls-1" d="M144.84,389.59a240.34,240.34,0,0,1-42.43-42.43L8.75,440.83a30,30,0,0,0,42.43,42.42Z"/><path class="cls-2" d="M102.41,347.16a240.34,240.34,0,0,0,42.43,42.43L173.38,361A201.19,201.19,0,0,1,131,318.62Z"/><path class="cls-2" d="M131,318.61A201,201,0,0,0,173.39,361h0A199.1,199.1,0,0,0,292,400c110.46,0,200-89.54,200-200S402.46,0,292,0,92,89.54,92,200a199.08,199.08,0,0,0,39,118.62Z"/><circle class="cls-1" cx="293" cy="200" r="164"/></g></g></svg>