<?xml version="1.0"?>
<svg xmlns="http://www.w3.org/2000/svg" id="Layer_3" enable-background="new 0 0 64 64" height="512px" viewBox="0 0 64 64" width="512px"><g><g><path d="m62 39h-7c-.266 0-.52.105-.707.293l-7.707 7.707h-12.586c-.552 0-1-.449-1-1s.448-1 1-1h5c.266 0 .52-.105.707-.293l4-4c.286-.286.372-.716.217-1.09-.154-.373-.52-.617-.924-.617h-14c-.245 0-.481.09-.664.252l-8.716 7.748h-2.62v-1c0-.552-.447-1-1-1h-3v-1c0-.552-.447-1-1-1h-10c-.553 0-1 .448-1 1v18c0 .552.447 1 1 1h10c.553 0 1-.448 1-1v-1h3c.553 0 1-.448 1-1v-1h27c.266 0 .52-.105.707-.293l18-18c.286-.286.372-.716.217-1.09-.154-.373-.52-.617-.924-.617zm-51 22h-8v-16h8v1 14zm4-2h-2v-12h2zm28.586-2h-26.586v-8h3c.245 0 .481-.09.664-.252l8.716-7.748h11.206l-2 2h-4.586c-1.654 0-3 1.346-3 3s1.346 3 3 3h13c.266 0 .52-.105.707-.293l7.707-7.707h4.172z" data-original="#000000" class="active-path" data-old_color="#000000" fill="#EBBC3B"/><path d="m36 32c4.963 0 9-4.038 9-9s-4.037-9-9-9-9 4.038-9 9 4.037 9 9 9zm0-16c3.859 0 7 3.14 7 7s-3.141 7-7 7-7-3.14-7-7 3.141-7 7-7z" data-original="#000000" class="active-path" data-old_color="#000000" fill="#EBBC3B"/><path d="m34 25h-2c0 1.654 1.346 3 3 3v1h2v-1c1.654 0 3-1.346 3-3s-1.346-3-3-3v-2c.552 0 1 .449 1 1h2c0-1.654-1.346-3-3-3v-1h-2v1c-1.654 0-3 1.346-3 3s1.346 3 3 3v2c-.552 0-1-.449-1-1zm0-4c0-.551.448-1 1-1v2c-.552 0-1-.449-1-1zm3 3c.552 0 1 .449 1 1s-.448 1-1 1z" data-original="#000000" class="active-path" data-old_color="#000000" fill="#EBBC3B"/><path d="m62 11h-3v-3c0-.552-.447-1-1-1h-3v-5c0-.552-.447-1-1-1h-52c-.553 0-1 .448-1 1v22c0 .552.447 1 1 1h3v5c0 .552.447 1 1 1h3v3c0 .552.447 1 1 1h52c.553 0 1-.448 1-1v-22c0-.552-.447-1-1-1zm-57-3v15h-2v-20h50v4h-47c-.553 0-1 .448-1 1zm4 4v17h-2v-20h50v2h-47c-.553 0-1 .448-1 1zm52 21h-50v-20h50z" data-original="#000000" class="active-path" data-old_color="#000000" fill="#EBBC3B"/><path d="m59 30v-14c0-.552-.447-1-1-1h-12v2h11v12h-11v2h12c.553 0 1-.448 1-1z" data-original="#000000" class="active-path" data-old_color="#000000" fill="#EBBC3B"/><path d="m14 31h12v-2h-11v-12h11v-2h-12c-.553 0-1 .448-1 1v14c0 .552.447 1 1 1z" data-original="#000000" class="active-path" data-old_color="#000000" fill="#EBBC3B"/><path d="m18 20c-.553 0-1 .448-1 1v4c0 .552.447 1 1 1h6c.553 0 1-.448 1-1v-4c0-.552-.447-1-1-1zm5 4h-4v-2h4z" data-original="#000000" class="active-path" data-old_color="#000000" fill="#EBBC3B"/><path d="m54 26c.553 0 1-.448 1-1v-4c0-.552-.447-1-1-1h-6c-.553 0-1 .448-1 1v4c0 .552.447 1 1 1zm-5-4h4v2h-4z" data-original="#000000" class="active-path" data-old_color="#000000" fill="#EBBC3B"/></g></g> </svg>
