<svg height="472pt" viewBox="0 -37 472 472" width="472pt" xmlns="http://www.w3.org/2000/svg"><path d="m464 109.269531v248.191407c0 18.21875-14.078125 32.988281-31.449219 32.988281h-393.101562c-17.371094 0-31.449219-14.769531-31.449219-32.988281v-248.191407zm-241.941406 225.492188v-171.523438h-167.027344v171.523438zm0 0" fill="#00efd1"/><path d="m464 40.539062v68.730469h-456v-68.730469c0-18.21875 14.078125-32.988281 31.449219-32.988281h393.101562c17.371094 0 31.449219 14.769531 31.449219 32.988281zm-251.589844 16.5c0-12.148437-9.378906-22-20.960937-22-11.578125 0-20.96875 9.851563-20.96875 22 0 12.152344 9.390625 21.992188 20.96875 21.992188 11.582031 0 20.960937-9.851562 20.960937-21.992188zm-68.128906 0c0-12.148437-9.390625-22-20.972656-22-11.578125 0-20.96875 9.851563-20.96875 22 0 12.152344 9.390625 21.992188 20.96875 21.992188 11.582031 0 20.972656-9.851562 20.972656-21.992188zm-68.140625 0c0-12.148437-9.390625-22-20.96875-22-11.582031 0-20.960937 9.851563-20.960937 22 0 12.152344 9.378906 21.992188 20.960937 21.992188 11.578125 0 20.96875-9.851562 20.96875-21.992188zm0 0" fill="#00acea"/><path d="m222.058594 163.238281v171.523438h-167.027344v-171.523438zm-36.957032 146.28125v-34.121093c.003907-12.394532-10.042968-22.449219-22.441406-22.449219-5.636718 7.683593-14.59375 12.222656-24.121094 12.222656-9.527343 0-18.484374-4.539063-24.117187-12.222656-12.398437.003906-22.445313 10.054687-22.441406 22.449219v34.121093zm-21.621093-96.097656c0-13.777344-11.167969-24.941406-24.941407-24.941406-13.773437 0-24.9375 11.164062-24.9375 24.941406 0 13.773437 11.164063 24.9375 24.9375 24.9375 13.777344.003906 24.945313-11.164063 24.941407-24.9375zm0 0" fill="#00acea"/><path d="m191.449219 35.039062c11.582031 0 20.960937 9.851563 20.960937 22 0 12.152344-9.378906 21.992188-20.960937 21.992188-11.578125 0-20.96875-9.851562-20.96875-21.992188 0-12.140624 9.390625-22 20.96875-22zm0 0" fill="#fedb41"/><path d="m185.101562 275.398438v34.121093h-93.121093v-34.121093c-.003907-12.394532 10.042969-22.445313 22.441406-22.449219 5.632813 7.683593 14.589844 12.222656 24.117187 12.222656 9.527344 0 18.484376-4.539063 24.121094-12.222656 12.398438 0 22.445313 10.054687 22.441406 22.449219zm0 0" fill="#fedb41"/><path d="m163.480469 213.421875c0 13.773437-11.167969 24.9375-24.941407 24.9375-13.773437 0-24.9375-11.164063-24.9375-24.9375 0-13.777344 11.164063-24.941406 24.9375-24.941406 13.773438 0 24.941407 11.164062 24.941407 24.941406zm0 0" fill="#fedb41"/><path d="m123.308594 35.039062c11.582031 0 20.972656 9.851563 20.972656 22 0 12.152344-9.390625 21.992188-20.972656 21.992188-11.578125 0-20.96875-9.851562-20.96875-21.992188 0-12.140624 9.390625-22 20.96875-22zm0 0" fill="#fedb41"/><path d="m55.171875 35.039062c11.578125 0 20.96875 9.851563 20.96875 22 0 12.152344-9.390625 21.992188-20.96875 21.992188-11.582031 0-20.960937-9.851562-20.960937-21.992188 0-12.140624 9.378906-22 20.960937-22zm0 0" fill="#fedb41"/><g fill="#083863"><path d="m432.550781 0h-393.101562c-21.75 0-39.449219 17.9375-39.449219 40.539062v316.921876c0 22.601562 17.699219 40.539062 39.449219 40.539062h393.101562c21.75 0 39.449219-17.9375 39.449219-40.539062v-316.921876c0-22.601562-17.699219-40.539062-39.449219-40.539062zm-393.101562 16h393.101562c12.929688 0 23.449219 10.761719 23.449219 24.539062v60.460938h-440v-60.460938c0-13.777343 10.519531-24.539062 23.449219-24.539062zm393.101562 366h-393.101562c-12.929688 0-23.449219-10.761719-23.449219-24.539062v-240.460938h440v240.460938c0 13.777343-10.519531 24.539062-23.449219 24.539062zm0 0"/><path d="m123.308594 87.03125c15.976562 0 28.972656-13.453125 28.972656-29.992188 0-16.535156-13-30-28.972656-30-15.96875 0-28.96875 13.457032-28.96875 30 0 16.542969 12.996094 29.992188 28.96875 29.992188zm0-43.992188c7.152344 0 12.972656 6.28125 12.972656 14 0 7.722657-5.820312 13.992188-12.972656 13.992188s-12.96875-6.277344-12.96875-13.992188c0-7.714843 5.816406-14 12.96875-14zm0 0"/><path d="m191.449219 87.03125c15.96875 0 28.960937-13.453125 28.960937-29.992188 0-16.535156-12.992187-30-28.960937-30s-28.96875 13.457032-28.96875 30c0 16.542969 12.996093 29.992188 28.96875 29.992188zm0-43.992188c7.148437 0 12.960937 6.28125 12.960937 14 0 7.722657-5.8125 13.992188-12.960937 13.992188-7.144531 0-12.96875-6.277344-12.96875-13.992188 0-7.714843 5.820312-14 12.96875-14zm0 0"/><path d="m55.171875 87.03125c15.972656 0 28.96875-13.453125 28.96875-29.992188 0-16.535156-13-30-28.96875-30-15.972656 0-28.960937 13.457032-28.960937 30 0 16.542969 12.988281 29.992188 28.960937 29.992188zm0-43.992188c7.148437 0 12.96875 6.28125 12.96875 14 0 7.722657-5.820313 13.992188-12.96875 13.992188-7.152344 0-12.960937-6.277344-12.960937-13.992188 0-7.714843 5.8125-14 12.960937-14zm0 0"/><path d="m138.539062 246.359375c18.191407 0 32.941407-14.746094 32.941407-32.9375 0-18.195313-14.75-32.941406-32.941407-32.941406-18.191406 0-32.9375 14.746093-32.9375 32.941406.019532 18.183594 14.753907 32.917969 32.9375 32.9375zm0-49.878906c9.355469 0 16.941407 7.582031 16.941407 16.941406 0 9.355469-7.585938 16.9375-16.941407 16.9375-9.355468 0-16.9375-7.582031-16.9375-16.9375.007813-9.351563 7.585938-16.929687 16.9375-16.941406zm0 0"/><path d="m91.980469 318h93.121093c4.417969 0 7.898438-4.0625 7.898438-8.480469v-34.121093c.007812-16.796876-13.59375-30.421876-30.390625-30.449219-2.539063 0-4.929687 1.214843-6.425781 3.269531-4.121094 5.632812-10.683594 8.960938-17.664063 8.960938s-13.539062-3.332032-17.660156-8.96875c-1.5-2.050782-3.890625-3.261719-6.433594-3.261719-16.804687.023437-30.414062 13.648437-30.425781 30.449219v34.121093c0 4.417969 3.5625 8.480469 7.980469 8.480469zm8.019531-42.601562c.003906-6.667969 4.566406-12.472657 11.046875-14.046876 7.125 7.585938 17.066406 11.890626 27.476563 11.890626 10.40625 0 20.347656-4.304688 27.472656-11.890626 6.472656 1.582032 11.019531 7.386719 11.003906 14.046876v26.601562h-77zm0 0"/><path d="m230 163c0-4.417969-3.582031-8-8-8h-167c-4.417969 0-8 3.582031-8 8v172c0 4.417969 3.582031 8 8 8h167c4.417969 0 8-3.582031 8-8zm-16 164h-151v-156h151zm0 0"/><path d="m249.941406 210h88.199219c4.417969 0 8-3.582031 8-8s-3.582031-8-8-8h-88.199219c-4.417968 0-8 3.582031-8 8s3.582032 8 8 8zm0 0"/><path d="m416.96875 241h-167.027344c-4.417968 0-8 3.582031-8 8s3.582032 8 8 8h167.027344c4.417969 0 8-3.582031 8-8s-3.582031-8-8-8zm0 0"/><path d="m416.96875 288h-167.027344c-4.417968 0-8 3.582031-8 8s3.582032 8 8 8h167.027344c4.417969 0 8-3.582031 8-8s-3.582031-8-8-8zm0 0"/></g></svg>