<?xml version="1.0" encoding="iso-8859-1"?>
<!-- Generator: Adobe Illustrator 21.0.0, SVG Export Plug-In . SVG Version: 6.00 Build 0)  -->
<svg version="1.1" id="Capa_1" xmlns="http://www.w3.org/2000/svg" xmlns:xlink="http://www.w3.org/1999/xlink" x="0px" y="0px"
	 viewBox="0 0 602.672 602.672" style="enable-background:new 0 0 602.672 602.672;" xml:space="preserve">
<g>
	<g>
		<g>
			<g id="filled_outline">
				<path style="fill:#75462E;" d="M50.223,130.579h502.226c22.188,0,40.178,17.99,40.178,40.178V532.36
					c0,22.188-17.99,40.178-40.178,40.178H50.223c-22.188,0-40.178-17.99-40.178-40.178V170.757
					C10.045,148.569,28.034,130.579,50.223,130.579z"/>
				<path style="fill:#6E422B;" d="M552.449,130.579h-8.206L50.725,572.538h501.724c22.188,0,40.178-17.99,40.178-40.178V170.757
					C592.627,148.569,574.637,130.579,552.449,130.579z"/>
				<path style="fill:#6B402A;" d="M200.891,70.312v60.267h40.178V70.312h120.534v60.267h40.178V70.312
					c0-22.188-17.99-40.178-40.178-40.178H241.069C218.88,30.134,200.891,48.123,200.891,70.312z"/>
				<path style="fill:#663D28;" d="M592.627,311.38L341.514,421.87h-80.356L10.045,311.38v-110.49
					c0-22.188,17.99-40.178,40.178-40.178h502.226c22.188,0,40.178,17.99,40.178,40.178V311.38z"/>
				<path style="fill:#875339;" d="M592.627,281.247l-251.113,110.49h-80.356L10.045,281.247v-110.49
					c0-22.188,17.99-40.178,40.178-40.178h502.226c22.188,0,40.178,17.99,40.178,40.178V281.247z"/>
				<rect x="200.891" y="110.49" style="fill:#5C3724;" width="40.178" height="20.089"/>
				<rect x="361.603" y="110.49" style="fill:#5C3724;" width="40.178" height="20.089"/>
				<path style="fill:#7D4A32;" d="M552.449,130.579H445.284L179.797,355.948l81.361,35.789h80.356l251.113-110.49v-110.49
					C592.627,148.569,574.637,130.579,552.449,130.579z"/>
				<path style="fill:#FFA230;" d="M261.158,391.737h80.356l0,0v40.178c0,22.188-17.99,40.178-40.178,40.178l0,0
					c-22.188,0-40.178-17.99-40.178-40.178V391.737L261.158,391.737z"/>
				<rect x="291.291" y="421.87" style="fill:#FDB62F;" width="20.089" height="20.089"/>
				<rect x="261.158" y="351.558" style="fill:#FFA230;" width="80.356" height="40.178"/>
				<rect x="261.158" y="351.558" style="fill:#FDB62F;" width="80.356" height="20.089"/>
				<rect x="261.158" y="391.737" style="fill:#F0890C;" width="80.356" height="20.089"/>
				<path d="M552.449,120.534H411.826V70.312c-0.03-27.723-22.5-50.193-50.223-50.223H241.069
					c-27.723,0.03-50.192,22.5-50.223,50.223v50.223H50.223C22.5,120.564,0.03,143.034,0,170.757V532.36
					c0.03,27.723,22.5,50.193,50.223,50.223h502.226c27.723-0.03,50.193-22.5,50.223-50.223V170.757
					C602.641,143.034,580.172,120.564,552.449,120.534z M210.935,70.312c0-16.644,13.49-30.134,30.134-30.134h120.534
					c16.644,0,30.134,13.49,30.134,30.134v50.223h-20.089V70.312c0-5.545-4.5-10.045-10.045-10.045H241.069
					c-5.545,0-10.045,4.5-10.045,10.045v50.223h-20.089V70.312z M251.113,120.534V80.356h100.445v40.178H251.113z M20.089,170.757
					c0-16.644,13.49-30.134,30.134-30.134h502.226c16.644,0,30.134,13.49,30.134,30.134v103.941L351.558,376.338v-24.78
					c0-5.545-4.5-10.045-10.045-10.045h-80.356c-5.545,0-10.045,4.5-10.045,10.045v24.78L20.089,274.698V170.757z M331.469,381.692
					h-60.267v-20.089h60.267V381.692z M271.202,401.781h60.267v30.134c0,16.644-13.49,30.134-30.134,30.134
					s-30.134-13.49-30.134-30.134V401.781z M552.449,562.493H50.223c-16.644,0-30.134-13.49-30.134-30.134l0,0V296.645
					l231.024,101.651v33.619c0,27.733,22.49,50.223,50.223,50.223s50.223-22.49,50.223-50.223v-33.619l231.024-101.651V532.36
					C582.583,549.004,569.093,562.493,552.449,562.493L552.449,562.493z"/>
				<rect x="291.291" y="421.87" width="20.089" height="20.089"/>
			</g>
		</g>
	</g>
</g>
<g>
</g>
<g>
</g>
<g>
</g>
<g>
</g>
<g>
</g>
<g>
</g>
<g>
</g>
<g>
</g>
<g>
</g>
<g>
</g>
<g>
</g>
<g>
</g>
<g>
</g>
<g>
</g>
<g>
</g>
</svg>
