<svg height="498pt" viewBox="0 -16 498.00123 498" width="498pt" xmlns="http://www.w3.org/2000/svg"><path d="m489.992188 31.742188v37.128906c-.003907 13.132812-10.648438 23.777344-23.78125 23.78125h-434.417969c-13.132813-.003906-23.78125-10.648438-23.78125-23.78125v-37.128906c0-13.136719 10.644531-23.78125 23.78125-23.78125h434.417969c13.132812 0 23.78125 10.644531 23.78125 23.78125zm0 0" fill="#00acea"/><path d="m465.25 92.652344v262.167968c.003906 15.761719-12.777344 28.542969-28.539062 28.539063h-375.898438c-15.761719 0-28.539062-12.777344-28.542969-28.539063v-262.167968zm-188.738281 211.457031c22.890625-10.128906 39.089843-32.367187 39.089843-58.308594 0-36.660156-32.121093-66.128906-70.78125-63.859375-34.648437 2.027344-62.300781 30.277344-62.417968 63.640625-.089844 26.039063 15.878906 48.367188 39.089844 58.277344v38.390625c-.003907 7.410156 6 13.417969 13.410156 13.421875h28.199218c7.410157-.003906 13.414063-6.011719 13.410157-13.421875zm0 0" fill="#fedb41"/><path d="m315.601562 245.800781c0 25.941407-16.199218 48.179688-39.089843 58.308594v12.992187h-55.019531v-13.242187c-23.210938-9.910156-39.179688-32.238281-39.089844-58.277344.117187-33.363281 27.769531-61.613281 62.417968-63.640625 38.660157-2.269531 70.78125 27.199219 70.78125 63.859375zm0 0" fill="#00efd1"/><path d="m276.511719 317.101562v25.148438c.003906 7.410156-6 13.417969-13.410157 13.421875h-28.199218c-7.410156-.003906-13.414063-6.011719-13.410156-13.421875v-25.148438zm0 0" fill="#00acea"/><g fill="#083863"><path d="m466.210938 0h-434.417969c-17.539063 0-31.7656252 14.203125-31.792969 31.742188v37.128906c-.128906 14.613281 9.808594 27.394531 24 30.871094v255.078124c0 20.148438 16.664062 36.179688 36.8125 36.179688h172.289062l-68.148437 60.886719c-3.300781 2.976562-3.589844 8.050781-.652344 11.386719 1.511719 1.71875 3.683594 2.710937 5.972657 2.726562 1.960937.011719 3.851562-.699219 5.320312-2l73.167969-65.167969 73.167969 65.1875c3.300781 2.941407 8.359374 2.652344 11.300781-.648437 2.9375-3.367188 2.648437-8.464844-.652344-11.476563l-68.152344-60.894531h172.285157c9.625.0625 18.875-3.726562 25.6875-10.523438 6.816406-6.792968 10.632812-16.03125 10.601562-25.65625v-254.964843c14-3.214844 25-15.878907 25-30.984375v-37.128906c-.027344-17.539063-14.25-31.742188-31.789062-31.742188zm-29.5 375h-375.898438c-11.328125 0-20.8125-8.851562-20.8125-20.179688v-253.820312h417v253.820312c.039062 5.382813-2.09375 10.554688-5.910156 14.347657-3.8125 3.796875-8.996094 5.898437-14.378906 5.832031zm45.289062-305.78125c0 8.71875-7.0625 15.78125-15.777344 15.78125h-434.441406c-8.714844 0-15.78125-7.0625-15.78125-15.78125v-37.4375c0-8.714844 7.066406-15.78125 15.78125-15.78125h434.441406c8.714844 0 15.777344 7.066406 15.777344 15.78125zm0 0"/><path d="m301.136719 194.320312c-15.335938-14.285156-35.863281-21.648437-56.785157-20.367187-18.6875 1.078125-36.300781 9.085937-49.398437 22.460937-13.183594 13.449219-20.726563 30.898438-20.792969 49.136719-.039062 26.761719 14.980469 51.269531 38.839844 63.382813v33.316406c0 11.8125 10.101562 21.75 21.902344 21.75h28.199218c11.800782 0 21.898438-9.9375 21.898438-21.75v-33.132812c23-12.628907 38.847656-36.949219 38.847656-63.316407 0-19.539062-8.222656-37.820312-22.710937-51.480469zm-38.035157 153.679688h-28.199218c-3.152344-.121094-5.699219-2.605469-5.902344-5.75v-17.25h40v17.25c-.203125 3.144531-2.75 5.628906-5.898438 5.75zm10.417969-51.207031c-2.839843 1.3125-4.617187 4.191406-4.519531 7.316406v4.890625h-40v-5.140625c.101562-3.160156-1.722656-6.070313-4.613281-7.355469-20.871094-8.910156-34.183594-28.890625-34.109375-50.894531.167968-14.277344 5.925781-27.917969 16.035156-38 10.332031-10.535156 24.21875-16.839844 38.945312-17.683594 1.207032-.070312 2.425782-.105469 3.625-.105469 15.308594-.058593 30.0625 5.710938 41.269532 16.136719 11.136718 10.265625 17.5 24.699219 17.566406 39.839844 0 21.753906-13.347656 41.769531-34.199219 50.996094zm0 0"/><path d="m249 161.039062c4.417969 0 8-3.582031 8-8v-32.707031c0-4.417969-3.582031-8-8-8s-8 3.582031-8 8v32.707031c0 4.417969 3.582031 8 8 8zm0 0"/><path d="m155.859375 235h-34.039063c-4.417968 0-8 3.582031-8 8s3.582032 8 8 8h34.039063c4.421875 0 8-3.582031 8-8s-3.578125-8-8-8zm0 0"/><path d="m376.179688 235h-34.039063c-4.417969 0-8 3.582031-8 8s3.582031 8 8 8h34.039063c4.417968 0 8-3.582031 8-8s-3.582032-8-8-8zm0 0"/><path d="m177.859375 185.011719c3.207031 3.042969 8.269531 2.914062 11.3125-.292969 3.042969-3.203125 2.914063-8.265625-.289063-11.308594l-24.242187-23.03125c-3.203125-3.042968-8.265625-2.910156-11.308594.292969s-2.914062 8.265625.289063 11.308594zm0 0"/><path d="m314.632812 187.210938c2.050782.003906 4.023438-.785157 5.507813-2.199219l24.242187-23.03125c3.203126-3.042969 3.332032-8.105469.289063-11.308594s-8.105469-3.335937-11.3125-.292969l-24.238281 23.03125c-2.371094 2.253906-3.132813 5.726563-1.917969 8.765625 1.210937 3.042969 4.15625 5.035157 7.429687 5.035157zm0 0"/></g></svg>