<svg height="476pt" viewBox="-47 0 475 476" width="476pt" xmlns="http://www.w3.org/2000/svg"><path d="m370.269531 120.128906v305.75c0 22.09375-17.90625 40-40 40h-279.539062c-22.09375 0-40-17.90625-40-40v-375.757812c0-22.09375 17.90625-40 40-40h212.75l1 1.027344-1 .972656v88.007812c-.003907 11.042969 8.945312 19.996094 19.988281 20h84.800781l1.027344-1zm-152.25 153.699219v-12.648437c.089844-32.589844-26.261719-59.082032-58.851562-59.167969h-20.507813c-32.585937-.101563-59.082031 26.234375-59.179687 58.816406v13zm-29.320312-135.847656c-.035157-18.953125-13.453125-35.242188-32.046875-38.910157-18.59375-3.671874-37.191406 6.296876-44.425782 23.816407-7.234374 17.515625-1.09375 37.703125 14.667969 48.226562 15.765625 10.523438 36.765625 8.449219 50.164063-4.953125 7.472656-7.472656 11.664062-17.613281 11.640625-28.179687zm0 0" fill="#fedb41"/><path d="m369.300781 119.128906-1.03125 1h-84.789062c-11.042969.003906-19.996094-8.945312-20-19.988281v-88.019531l1-.972656zm0 0" fill="#00efd1"/><path d="m218.019531 261.179688v12.648437h-138.539062v-12.648437c-.09375-32.585938 26.242187-59.074219 58.828125-59.167969h20.53125c32.589844-.09375 59.085937 26.25 59.179687 58.839843zm0 0" fill="#00acea"/><path d="m177.058594 109.808594c13.496094 13.449218 15.609375 34.554687 5.050781 50.410156-10.5625 15.855469-30.855469 22.039062-48.464844 14.765625-17.605469-7.273437-27.621093-25.972656-23.914062-44.660156 3.703125-18.6875 20.097656-32.152344 39.148437-32.152344 10.566406-.003906 20.699219 4.183594 28.179688 11.636719zm0 0" fill="#00acea"/><g fill="#083863"><path d="m376.476562 112.167969-104.824218-107.984375-1-1.089844c-1.875-1.957031-4.460938-3.0703125-7.171875-3.09375h-212.75c-27.671875.0703125-50.101563 22.449219-50.230469 50.121094v375.757812c.128906 27.671875 22.558594 50.050782 50.230469 50.121094h279.539062c27.671875-.070312 50.101563-22.449219 50.230469-50.121094v-305.75c-.042969-2.613281-1.097656-5.109375-2.9375-6.960937zm-102.976562-77.390625 73.125 75.222656h-63.144531c-5.460938.054688-9.925781-4.328125-9.980469-9.789062zm56.769531 421.222656h-279.539062c-16.628907-.054688-30.113281-13.492188-30.230469-30.121094v-375.757812c.117188-16.628906 13.601562-30.066406 30.230469-30.121094h202.769531v80.128906c.019531 16.519532 13.425781 29.890625 29.941406 29.871094h77.058594v295.878906c-.117188 16.628906-13.601562 30.066406-30.230469 30.121094zm0 0"/><path d="m302.519531 382h-230.199219c-5.523437 0-10 4.476562-10 10s4.476563 10 10 10h230.199219c5.523438 0 10-4.476562 10-10s-4.476562-10-10-10zm0 0"/><path d="m72.320312 348h137.820313c5.523437 0 10-4.476562 10-10s-4.476563-10-10-10h-137.820313c-5.523437 0-10 4.476562-10 10s4.476563 10 10 10zm0 0"/><path d="m79.480469 284h138.539062c5.523438 0 10.480469-4.648438 10.480469-10.171875v-12.648437c-.136719-38.335938-31.320312-69.308594-69.660156-69.179688h-20.179688c-38.109375-.089844-69.070312 30.730469-69.160156 68.839844v12.988281c-.023438 5.554687 4.429688 10.089844 9.980469 10.171875zm10.019531-22.820312c.023438-27.144532 22.015625-49.144532 49.160156-49.179688h20.179688c27.117187 0 49.660156 22.066406 49.660156 49.179688v2.820312h-119zm0 0"/><path d="m148.878906 187.800781c27.53125.019531 49.863282-22.28125 49.882813-49.8125.019531-27.527343-22.28125-49.859375-49.8125-49.878906-27.527344-.019531-49.859375 22.28125-49.878907 49.8125v.058594c-.171874 27.34375 21.855469 49.648437 49.199219 49.820312zm-21.09375-70.925781c10.058594-10.082031 25.835938-11.652344 37.6875-3.753906 11.847656 7.898437 16.46875 23.066406 11.03125 36.230468-5.4375 13.160157-19.414062 20.648438-33.386718 17.882813-13.96875-2.765625-24.039063-15.019531-24.046876-29.257813-.007812-7.910156 3.128907-15.5 8.714844-21.101562zm0 0"/></g></svg>