<svg height="488pt" viewBox="-25 0 488 488.00237" width="488pt" xmlns="http://www.w3.org/2000/svg"><path d="m404.792969 189.359375c17.140625 13.621094 26.582031 31.8125 26.582031 51.242187 0 19.429688-9.441406 37.621094-26.582031 51.230469-16.03125 12.730469-37.039063 20.007813-59.46875 20.660157-1.109375.039062-2.222657.058593-3.332031.058593-6.480469 0-12.953126-.5625-19.339844-1.679687l-43.71875 18.488281 1.429687-36.617187c-.390625-.300782-.78125-.601563-1.171875-.910157-17.136718-13.609375-26.578125-31.8125-26.578125-51.230469 0-19.421874 9.441407-37.621093 26.578125-51.242187 16.820313-13.359375 39.132813-20.71875 62.800782-20.71875 1.121093 0 2.230468.019531 3.339843.0625 22.429688.648437 43.429688 7.929687 59.460938 20.65625zm0 0" fill="#fedb41"/><path d="m345.332031 389.589844v48.839844c0 24.328124-19.722656 44.042968-44.050781 44.042968h-178.578125c-24.324219 0-44.046875-19.714844-44.050781-44.042968v-48.839844zm0 0" fill="#00acea"/><path d="m345.332031 312.871094v76.71875h-266.679687v-148.757813h.230468c5.289063 0 10.570313-.460937 15.78125-1.371093l35.660157 15.070312-1.171875-29.859375c.320312-.25.640625-.492187.949218-.742187 13.980469-11.097657 21.679688-25.9375 21.679688-41.777344s-7.699219-30.691406-21.679688-41.792969c-13.71875-10.886719-31.910156-16.886719-51.21875-16.886719h-.230468v-50.132812h266.679687v95.363281c-1.109375-.042969-2.21875-.0625-3.339843-.0625-23.667969 0-45.980469 7.359375-62.800782 20.71875-17.136718 13.621094-26.578125 31.8125-26.578125 51.242187 0 19.429688 9.441407 37.621094 26.578125 51.230469.390625.308594.78125.609375 1.171875.910157l-1.429687 36.617187 43.71875-18.488281c6.386718 1.117187 12.859375 1.679687 19.339844 1.679687 1.109374 0 2.222656-.019531 3.332031-.058593zm0 0" fill="#00efd1"/><path d="m345.332031 49.570312v23.769532h-266.679687v-23.769532c.003906-24.324218 19.726562-44.042968 44.050781-44.039062h178.578125c24.328125-.003906 44.050781 19.714844 44.050781 44.039062zm0 0" fill="#00acea"/><path d="m130.101562 140.359375c13.980469 11.101563 21.679688 25.941406 21.679688 41.792969 0 15.847656-7.699219 30.679687-21.679688 41.777344-.308593.25-.628906.492187-.949218.742187l1.171875 29.859375-35.660157-15.070312c-5.210937.910156-10.492187 1.371093-15.78125 1.371093h-.230468c-19.21875-.050781-37.320313-6.039062-50.980469-16.902343-13.980469-11.097657-21.679687-25.9375-21.679687-41.777344s7.699218-30.691406 21.679687-41.792969c13.660156-10.847656 31.761719-16.839844 50.980469-16.886719h.230468c19.308594 0 37.5 6 51.21875 16.886719zm0 0" fill="#fedb41"/><g fill="#083863"><path d="m335.683594 195v6.621094c-12.308594 3.175781-20.332032 15.007812-18.730469 27.621094 1.601563 12.609374 12.328125 22.058593 25.039063 22.058593 7.3125 0 13.242187 5.929688 13.242187 13.242188 0 7.308593-5.929687 13.238281-13.242187 13.238281s-13.238282-5.929688-13.238282-13.238281c0-3.316407-2.6875-6-6-6s-6 2.683593-6 6c.011719 11.503906 7.792969 21.546875 18.929688 24.441406v8.015625c0 3.316406 2.6875 6 6 6s6-2.683594 6-6v-7.875c12.5-2.890625 20.84375-14.703125 19.386718-27.449219-1.457031-12.75-12.246093-22.375-25.078124-22.375-7.3125 0-13.238282-5.925781-13.238282-13.238281s5.925782-13.242188 13.238282-13.242188 13.242187 5.929688 13.242187 13.242188c0 3.3125 2.683594 6 6 6 3.3125 0 6-2.6875 6-6-.019531-11.742188-8.117187-21.925781-19.550781-24.585938v-6.476562c0-3.3125-2.6875-6-6-6s-6 2.6875-6 6zm0 0"/><path d="m122.703125 488h178.578125c27.601562 0 50.402344-21.976562 50.402344-49.570312v-120.273438c21-1.699219 41.449218-9.265625 57.015625-21.625 18.601562-14.773438 28.761719-34.636719 28.761719-55.929688 0-21.292968-10.113282-41.15625-28.71875-55.9375-15.566407-12.363281-36.058594-19.933593-57.058594-21.628906v-113.464844c0-27.589843-22.800782-49.570312-50.402344-49.570312h-178.578125c-13.214844-.0898438-25.921875 5.089844-35.3125 14.390625-9.386719 9.304687-14.679687 21.964844-14.707031 35.179687v68.117188c-18 1.167969-35.460938 7.4375-48.726563 17.976562-15.445312 12.261719-23.957031 28.769532-23.957031 46.488282 0 17.714844 8.515625 34.214844 23.957031 46.476562 13.265625 10.542969 30.726563 16.816406 48.726563 17.984375v191.816407c.027344 13.21875 5.320312 25.878906 14.707031 35.179687 9.390625 9.304687 22.097656 14.484375 35.3125 14.390625zm12.5625-260.535156c14.539063-12.132813 22.515625-28.160156 22.515625-45.3125 0-17.71875-8.488281-34.226563-23.933594-46.488282-13.390625-10.632812-31.164062-16.917968-49.164062-18v-38.664062h255v83.691406c-24 .535156-46.800782 8.277344-64.046875 21.972656-18.601563 14.78125-28.9375 34.648438-28.9375 55.9375 0 20.824219 9.757812 40.285157 27.59375 54.949219l-1.332031 33.578125c-.085938 2.046875.882812 3.996094 2.570312 5.167969 1.6875 1.167969 3.851562 1.390625 5.742188.589844l42.285156-17.808594c5.335937.863281 10.722656 1.339844 16.125 1.421875v65.5h-255v-137.359375c3-.183594 6.1875-.5 9.257812-.976563l34.054688 14.394532c1.890625.796875 4.054687.570312 5.742187-.597656 1.6875-1.167969 2.660157-3.113282 2.582031-5.164063zm166.015625 248.535156h-178.578125c-10.035156.097656-19.691406-3.816406-26.828125-10.871094-7.140625-7.054687-11.167969-16.664062-11.191406-26.699218v-42.429688h255v42.429688c0 20.976562-17.417969 37.570312-38.402344 37.570312zm124.09375-235.398438c0 17.554688-8.636719 34.082032-24.3125 46.53125-14.953125 11.875-34.808594 18.75-55.957031 19.363282-7.171875.234375-14.351563-.28125-21.417969-1.535156-1.136719-.199219-2.308594-.0625-3.371094.382812l-35.019531 14.8125 1.0625-27.179688c.074219-1.945312-.796875-3.804687-2.339844-4.992187-.363281-.28125-.730469-.5625-1.097656-.851563-15.679687-12.449218-24.3125-28.976562-24.3125-46.53125 0-17.558593 8.632813-34.082031 24.3125-46.542968 15.765625-12.519532 36.742187-19.265625 59.066406-19.265625 1.046875 0 2.085938.207031 3.125.207031h.042969c20.257812-.035156 39.941406 6.730469 55.898438 19.210938 15.683593 12.457031 24.320312 28.835937 24.320312 46.390624zm-302.671875-228.601562h178.578125c20.984375 0 38.402344 16.601562 38.402344 37.570312v17.429688h-255v-17.429688c.023437-10.035156 4.050781-19.644531 11.191406-26.699218 7.136719-7.050782 16.792969-10.964844 26.828125-10.871094zm-110.710937 170.152344c0-13.980469 6.894531-27.386719 19.414062-37.328125 12.597656-10.003907 29.375-14.824219 47.246094-15.824219h.230468c17.960938 0 34.824219 5.773438 47.488282 15.828125 12.519531 9.9375 19.410156 23.226563 19.410156 37.207031 0 13.980469-6.890625 27.199219-19.445312 37.167969-.164063.132813-.332032.289063-.5.421875l-.375.300781c-1.519532 1.191407-2.375 3.039063-2.296876 4.96875l.796876 20.425781-26.957032-11.390624c-.738281-.3125-1.535156-.472657-2.335937-.472657-.347657.027344-.695313.085938-1.03125.175781-4.871094.878907-9.804688 1.335938-14.753907 1.367188h-.222656c-17.882812 0-34.664062-5.671875-47.257812-15.683594-12.519532-9.9375-19.410156-23.191406-19.410156-37.164062zm0 0"/><path d="m247.601562 426h-70.679687c-3.3125 0-6 2.6875-6 6 0 3.316406 2.6875 6 6 6h70.679687c3.316407 0 6-2.683594 6-6 0-3.3125-2.683593-6-6-6zm0 0"/><path d="m198.941406 48h26.621094c3.3125 0 6-2.683594 6-6 0-3.3125-2.6875-6-6-6h-26.621094c-3.3125 0-6 2.6875-6 6 0 3.316406 2.6875 6 6 6zm0 0"/></g></svg>