<svg id="Layer_1" enable-background="new 0 0 512.002 512.002" height="512" viewBox="0 0 512.002 512.002" width="512" xmlns="http://www.w3.org/2000/svg"><g><g clip-rule="evenodd" fill-rule="evenodd"><g><path d="m209.37 235.174 20.822-74.043h-42.29c-3.676 0-6.882 2.121-8.58 5.265l-41.556 62.842c-1.181 1.783-1.763 3.863-1.766 5.935h73.37z" fill="#00ccf2"/><path d="m281.786 161.132 20.822 74.043h73.392c-.001-2.296-.719-4.587-2.141-6.467l-41.728-63.103c-1.853-2.798-4.86-4.469-8.055-4.473z" fill="#00ccf2"/><path d="m302.608 235.174-20.822-74.042h-51.594l-20.822 74.042z" fill="#66e0f7"/><path d="m302.608 235.174h-93.238l46.619 134.1z" fill="#00ccf2"/><path d="m255.989 369.274-46.619-134.1h-73.369c-.003 2.562.879 5.111 2.614 7.074l110.168 125.315c3.9 4.421 10.518 4.402 14.414 0 37.148-40.965 73.574-83.69 110.167-125.315 1.765-2.001 2.638-4.54 2.637-7.074h-73.392z" fill="#66e0f7"/></g><path d="m66.001 256.001c0-104.934 85.066-190 190-190s190 85.066 190 190-85.066 190-190 190-190-85.066-190-190zm236.625-227.466-27.164-13.626c-11.694-6.276-26.205-6.782-38.793-.068l-24.38 13.068-30.062-2.175c-13.436-1.51-27.34 3.612-36.539 14.854l-17.738 21.663-26.173 8.688c-13.892 3.238-25.719 13.607-30.14 28.243l-8.08 26.745-23.477 20.311c-9.92 8.434-15.682 21.432-14.311 35.372l2.766 27.765-13.626 27.164c-6.276 11.694-6.782 26.205-.068 38.793l13.068 24.38-2.175 30.062c-1.51 13.436 3.612 27.34 14.854 36.539l21.663 17.738 8.688 26.173c3.238 13.892 13.607 25.719 28.243 30.14l26.745 8.08 20.311 23.478c8.434 9.92 21.432 15.682 35.372 14.311l27.762-2.767 27.165 13.626c11.692 6.277 26.205 6.784 38.793.069l24.381-13.068 30.062 2.175c13.436 1.51 27.34-3.612 36.539-14.854l17.738-21.663 26.173-8.688c13.892-3.238 25.719-13.608 30.141-28.243l8.08-26.745 23.478-20.311c9.92-8.435 15.682-21.432 14.311-35.372l-2.767-27.762 13.626-27.165c6.277-11.692 6.784-26.205.069-38.792l-13.068-24.381 2.175-30.062c1.51-13.436-3.612-27.34-14.854-36.539l-21.663-17.738-8.688-26.173c-3.238-13.892-13.607-25.719-28.243-30.141l-26.745-8.08-20.311-23.479c-8.435-9.92-21.432-15.682-35.372-14.311z" fill="#ffc144"/><path d="m256.001 66.001c-104.934 0-190 85.066-190 190s85.066 190 190 190 190-85.066 190-190-85.066-190-190-190zm-118.234 163.238 41.556-62.842c1.698-3.144 4.904-5.264 8.579-5.264l136.174-.001c3.195.003 6.202 1.674 8.055 4.472l41.728 63.103c2.991 3.954 2.869 9.727-.496 13.541-36.594 41.626-73.019 84.351-110.167 125.315-3.896 4.402-10.514 4.421-14.414 0l-110.167-125.315c-3.138-3.55-3.488-9.023-.848-13.009z" fill="#fff2a0"/></g><g><path d="m303.036 61.58c-5.377-1.295-10.771 2.01-12.065 7.378-1.294 5.369 2.009 10.771 7.378 12.065 81.048 19.541 137.652 91.495 137.652 174.979 0 99.252-80.748 179.999-180 179.999s-180-80.747-180-179.999c0-83.486 56.607-155.44 137.659-174.979 5.369-1.294 8.672-6.696 7.378-12.065-1.294-5.368-6.692-8.673-12.065-7.378-42.882 10.338-81.732 35.124-109.395 69.794-28.509 35.729-43.577 78.826-43.577 124.629 0 110.28 89.72 199.999 200 199.999s200-89.719 200-199.999c0-45.802-15.067-88.896-43.574-124.626-27.661-34.671-66.511-59.459-109.391-69.797z"/><path d="m505.974 231.947-11.698-21.826 1.952-26.984c1.874-17.297-5.025-34.175-18.479-45.184l-19.42-15.902-7.639-23.012c-4.278-17.595-17.642-31.736-34.979-36.973l-23.971-7.242-18.358-21.221c-10.863-12.777-27.305-19.421-43.982-17.785l-24.881 2.479-24.456-12.268c-15.072-8.034-33.042-8.04-48.118-.001l-21.825 11.698-26.983-1.951c-17.296-1.883-34.176 5.024-45.185 18.479l-15.902 19.42-23.012 7.639c-17.595 4.277-31.736 17.64-36.974 34.977l-7.24 23.971-21.223 18.359c-12.775 10.864-19.424 27.302-17.783 43.982l2.479 24.88-12.268 24.458c-8.035 15.071-8.042 33.041-.002 48.115l11.698 21.827-1.951 26.983c-1.876 17.295 5.023 34.174 18.479 45.184l19.42 15.901 7.639 23.014c4.278 17.595 17.641 31.736 34.979 36.974l23.971 7.24 18.358 21.221c10.862 12.776 27.297 19.42 43.983 17.785l24.879-2.48 24.455 12.268c7.539 4.021 15.801 6.031 24.065 6.03 8.258 0 16.518-2.008 24.053-6.027l21.827-11.698 26.981 1.951c17.296 1.879 34.178-5.021 45.186-18.478l15.902-19.421 23.013-7.639c17.595-4.276 31.735-17.64 36.974-34.979l7.24-23.97 21.221-18.358c12.776-10.863 19.426-27.301 17.785-43.983l-2.479-24.879 12.267-24.455c8.037-15.072 8.044-33.042.002-48.119zm-17.693 38.788c-.044.081-.087.163-.128.246l-13.626 27.164c-.849 1.692-1.2 3.591-1.013 5.475l2.766 27.75c.998 10.148-3.053 20.158-10.902 26.832l-23.478 20.311c-1.432 1.238-2.482 2.858-3.03 4.671l-8.079 26.744c-3.221 10.665-11.972 18.863-22.838 21.396-.297.069-.591.152-.88.248l-26.173 8.688c-1.797.597-3.388 1.691-4.587 3.155l-17.742 21.667c-6.737 8.234-17.086 12.444-27.679 11.248-.132-.015-.265-.027-.396-.036l-30.063-2.174c-1.896-.141-3.776.265-5.445 1.16l-24.363 13.058c-9.189 4.898-20.164 4.878-29.357-.056-.081-.044-.163-.087-.245-.128l-27.164-13.627c-1.396-.7-2.932-1.062-4.484-1.062-.33 0-.661.017-.992.049l-27.75 2.767c-10.135.992-20.156-3.053-26.831-10.902l-20.312-23.478c-1.238-1.432-2.858-2.482-4.671-3.03l-26.745-8.079c-10.664-3.221-18.862-11.972-21.396-22.838-.069-.297-.152-.591-.248-.88l-8.688-26.174c-.597-1.797-1.69-3.387-3.155-4.587l-21.666-17.74c-8.235-6.739-12.441-17.087-11.249-27.68.015-.132.027-.265.036-.396l2.174-30.063c.137-1.889-.266-3.777-1.16-5.445l-13.058-24.363c-4.9-9.188-4.879-20.162.057-29.356.043-.081.086-.163.127-.246l13.626-27.165c.849-1.692 1.2-3.591 1.013-5.475l-2.765-27.751c-.998-10.147 3.053-20.157 10.9-26.832l23.478-20.311c1.433-1.238 2.483-2.858 3.031-4.671l8.079-26.745c3.221-10.664 11.972-18.862 22.838-21.396.297-.069.591-.152.88-.248l26.173-8.688c1.797-.597 3.388-1.691 4.587-3.155l17.741-21.666c6.738-8.235 17.086-12.444 27.68-11.249.132.015.265.027.396.036l30.063 2.174c1.892.134 3.777-.265 5.446-1.16l24.361-13.058c9.187-4.9 20.162-4.88 29.358.056.081.043.162.086.244.127l27.164 13.627c1.693.85 3.594 1.196 5.476 1.013l27.752-2.766c10.141-.993 20.157 3.053 26.831 10.902l20.312 23.478c1.238 1.432 2.858 2.482 4.67 3.029l26.745 8.081c10.665 3.221 18.863 11.972 21.396 22.838.069.297.152.591.248.88l8.688 26.173c.597 1.797 1.691 3.388 3.155 4.587l21.666 17.74c8.235 6.738 12.44 17.087 11.249 27.682-.015.132-.027.264-.036.396l-2.175 30.062c-.137 1.889.266 3.777 1.16 5.445l13.059 24.364c4.901 9.187 4.88 20.161-.056 29.357z"/><path d="m170.775 161.193-41.347 62.524c-5.18 7.822-4.482 18.165 1.676 25.133l110.178 125.328c3.748 4.249 9.1 6.688 14.684 6.693h.016c5.565 0 10.905-2.417 14.661-6.634 24.841-27.394 49.703-55.968 73.749-83.603 11.956-13.741 24.319-27.95 36.471-41.771 6.402-7.258 6.881-18.089 1.191-25.896l-41.584-62.884c-3.705-5.599-9.829-8.945-16.394-8.953h-136.174c-7.049.001-13.564 3.843-17.127 10.063zm31.484 83.981 31.238 89.856-78.994-89.856zm71.951-74.043 15.199 54.043h-66.839l15.198-54.043zm14.335 74.043-32.556 93.646-32.556-93.646zm40.759 32.332c-16.74 19.238-33.878 38.927-51.104 58.333l31.519-90.665h47.776c-9.459 10.805-18.946 21.707-28.191 32.332zm30.231-52.332h-49.351l-15.198-54.043h28.811zm-171.403-54.043h28.86l-15.198 54.043h-49.351l35.221-53.262c.165-.248.317-.504.459-.766.003-.005.006-.01.009-.015z"/><path d="m256.008 76.001c5.522 0 10-4.478 10-10s-4.478-10-10-10h-.007c-5.522 0-9.996 4.478-9.996 10s4.48 10 10.003 10z"/></g></g></svg>