<?xml version="1.0" encoding="iso-8859-1"?>
<!-- Generator: Adobe Illustrator 19.0.0, SVG Export Plug-In . SVG Version: 6.00 Build 0)  -->
<svg version="1.1" id="Layer_1" xmlns="http://www.w3.org/2000/svg" xmlns:xlink="http://www.w3.org/1999/xlink" x="0px" y="0px"
	 viewBox="0 0 512.001 512.001" style="enable-background:new 0 0 512.001 512.001;" xml:space="preserve">
<rect x="10.612" y="63.386" style="fill:#2C82C9;" width="456.333" height="42.45"/>
<rect x="10.612" y="105.837" style="fill:#EFEFEF;" width="456.333" height="342.78"/>
<rect x="111.43" y="295.268" style="fill:#D1D5D8;" width="254.697" height="42.45"/>
<g>
	<path style="fill:#FF7D46;" d="M286.534,171.101h-95.511c-20.514,0-37.143,16.63-37.143,37.143l0,0
		c0,20.514,16.63,37.143,37.143,37.143h95.511c20.514,0,37.143-16.63,37.143-37.143l0,0
		C323.678,187.731,307.048,171.101,286.534,171.101z"/>
	
		<rect x="361.916" y="228.445" transform="matrix(-0.866 -0.5 0.5 -0.866 591.2499 752.2149)" style="fill:#FF7D46;" width="68.979" height="136.897"/>
</g>
<rect x="406.751" y="198.008" transform="matrix(-0.866 -0.5 0.5 -0.866 713.7454 629.7177)" style="fill:#5A6B96;" width="68.979" height="42.449"/>
<path style="fill:#EFEFEF;" d="M491.956,162.736l-27.113-15.653c-9.01-5.202-20.53-2.115-25.732,6.895L422,183.616l59.739,34.49
	l17.112-29.639C504.053,179.458,500.966,167.938,491.956,162.736z"/>
<polygon style="fill:#FBC640;" points="392.064,373.429 333.01,406.731 332.326,338.938 "/>
<g>
	<path style="fill:#231F20;" d="M191.023,256h95.511c26.333,0,47.756-21.423,47.756-47.756s-21.423-47.756-47.756-47.756h-95.511
		c-26.333,0-47.756,21.423-47.756,47.756S164.69,256,191.023,256z M191.023,181.714h95.511c14.629,0,26.531,11.902,26.531,26.531
		s-11.902,26.531-26.531,26.531h-95.511c-14.629,0-26.531-11.902-26.531-26.531S176.394,181.714,191.023,181.714z"/>
	<path style="fill:#231F20;" d="M510.984,171.427c-2.035-7.598-6.91-13.949-13.722-17.882l-19.705-11.378V63.386
		c0-5.861-4.751-10.612-10.612-10.612H10.612C4.751,52.773,0,57.524,0,63.386v385.23c0,5.861,4.751,10.612,10.612,10.612h456.333
		c5.861,0,10.612-4.751,10.612-10.612V246.574l30.485-52.801C511.976,186.962,513.021,179.026,510.984,171.427z M370.653,373.32
		l-27.211,15.345l-0.316-31.239l13.763,7.947L370.653,373.32z M326.904,327.103H122.042v-21.225h217.116L326.904,327.103z
		 M388.18,358.931l-41.359-23.878l57.837-100.178l41.359,23.878L388.18,358.931z M425.885,198.113l41.359,23.878l-10.612,18.382
		l-41.359-23.878L425.885,198.113z M489.661,183.161l-11.806,20.449l-41.359-23.878l11.806-20.449
		c2.268-3.927,7.309-5.278,11.235-3.011l27.113,15.653C490.579,174.194,491.929,179.234,489.661,183.161z M21.225,73.998h435.108
		v21.225H21.225V73.998z M21.225,438.003V116.448h435.108v17.519c-10.484-0.306-20.81,5.003-26.411,14.705l-78.509,135.983H111.43
		c-5.861,0-10.612,4.751-10.612,10.612v42.45c0,5.861,4.751,10.612,10.612,10.612h210.377l0.592,58.51
		c0.038,3.754,2.056,7.207,5.306,9.083c1.641,0.948,3.473,1.422,5.306,1.422c1.797,0,3.594-0.456,5.213-1.369l59.049-33.301
		c1.285-0.723,2.423-1.731,3.337-2.978c0.222-0.301,0.437-0.608,0.625-0.931c0.006-0.011,0.015-0.02,0.021-0.031l55.076-95.398
		v154.666H21.225z"/>
	<path style="fill:#231F20;" d="M203.227,372.737h-89.675c-5.861,0-10.612,4.751-10.612,10.612c0,5.861,4.751,10.612,10.612,10.612
		h89.675c5.861,0,10.612-4.751,10.612-10.612C213.84,377.488,209.088,372.737,203.227,372.737z"/>
	<path style="fill:#231F20;" d="M245.677,372.737h-1.061c-5.861,0-10.612,4.751-10.612,10.612c0,5.861,4.751,10.612,10.612,10.612
		h1.061c5.861,0,10.612-4.751,10.612-10.612C256.289,377.488,251.538,372.737,245.677,372.737z"/>
</g>
<g>
</g>
<g>
</g>
<g>
</g>
<g>
</g>
<g>
</g>
<g>
</g>
<g>
</g>
<g>
</g>
<g>
</g>
<g>
</g>
<g>
</g>
<g>
</g>
<g>
</g>
<g>
</g>
<g>
</g>
</svg>
