<svg id="Capa_1" enable-background="new 0 0 512 512" height="512" viewBox="0 0 512 512" width="512" xmlns="http://www.w3.org/2000/svg"><g><g><g><path d="m477.184 500.518-442.646-.427c-14.947-.015-27.052-12.144-27.038-27.091l.226-233.29c.014-14.947 12.143-27.052 27.09-27.038l442.646.427c14.947.014 27.052 12.143 27.038 27.09l-.226 233.29c-.015 14.948-12.143 27.053-27.09 27.039z" fill="#fee07d"/></g><g><path d="m477.462 213.1-145.587.113c14.947.014 27.053 12.143 27.038 27.09-.136 140.054-110.841 254.154-249.467 259.86l367.737.355c14.947.014 27.076-12.091 27.091-27.037l.226-233.29c.015-14.948-12.091-27.076-27.038-27.091z" fill="#ffc269"/></g><g><circle cx="256.003" cy="28.377" fill="#ffc269" r="16.896"/></g></g><g><path d="m501.9 215.747c-5.708-5.719-13.066-9.193-21.002-9.977l-205.672-192.386c-4.469-5.717-11.422-9.402-19.223-9.402-7.976 0-15.07 3.848-19.525 9.785l-204.778 191.551c-17.6 1.568-31.456 16.381-31.474 34.385l-.226 233.29c-.009 9.233 3.578 17.916 10.1 24.451 6.522 6.534 15.198 10.138 24.431 10.146l371.339.363h.007c4.139 0 7.496-3.354 7.5-7.492.004-4.143-3.351-7.504-7.493-7.508l-371.339-.363c-5.226-.005-10.137-2.045-13.829-5.743-3.692-3.699-5.722-8.613-5.717-13.84l.226-233.29c.011-10.781 8.785-19.545 19.564-19.545h.019l442.646.428c5.226.005 10.137 2.045 13.829 5.743 3.692 3.699 5.722 8.614 5.717 13.839l-.226 233.29c-.011 10.782-8.786 19.546-19.565 19.546h-.018l-40.813-.04h-.007c-4.139 0-7.496 3.354-7.5 7.492-.004 4.143 3.351 7.504 7.493 7.508l40.813.04h.032c19.042-.002 34.546-15.484 34.565-34.531l.226-233.289c.009-9.233-3.578-17.916-10.1-24.451zm-245.897-162.974c10.338 0 19.188-6.467 22.735-15.565l180.001 168.375-404.945-.391 179.503-167.91c3.565 9.059 12.396 15.491 22.706 15.491zm9.396-24.396c0 5.181-4.215 9.396-9.396 9.396s-9.396-4.215-9.396-9.396 4.215-9.396 9.396-9.396c5.181.001 9.396 4.216 9.396 9.396z"/><path d="m166.111 338.715c1.278 3.746 5.401 5.885 9.199 4.777 2.447-.714 4.216-2.584 5.058-4.949.858-2.41 18.796-53.163 19.285-55.119.953-3.812-1.312-7.817-5.063-8.977-3.709-1.147-7.766.822-9.194 4.422-1.023 2.581-8.847 25.223-11.887 33.896-.068.193-.136.387-.203.58-1.644-4.819-9.244-27.096-11.4-33.416-.955-2.8-2.56-5.199-5.622-5.99-4.071-1.051-7.755 1.431-9.101 5.209-2.063 5.788-11.8 33.511-12.17 34.148-.049.085-.071.2-.105.294-1.433-4.17-11.624-34.29-12.372-35.613-2.635-4.66-9.443-5.047-12.591-.714-2.817 3.878-.542 8.264.809 12.197 2.052 5.972 15.56 45.341 16.857 49.052 1.264 3.615 4.882 5.927 8.717 5.117 3.108-.656 4.866-2.998 5.868-5.809 1.963-5.508 9.786-27.458 11.734-32.925.11-.307.219-.615.329-.922 1.331 3.903 11.358 33.295 11.852 34.742z"/><path d="m241.931 289.329c4.142 0 7.5-3.357 7.5-7.5s-3.358-7.5-7.5-7.5h-22.684c-4.142 0-7.5 3.357-7.5 7.5v53.834c0 4.143 3.358 7.5 7.5 7.5h22.684c4.142 0 7.5-3.357 7.5-7.5s-3.358-7.5-7.5-7.5h-15.184v-11.917h13.511c4.142 0 7.5-3.357 7.5-7.5s-3.358-7.5-7.5-7.5h-13.511v-11.917z"/><path d="m362.737 343.163h22.684c4.142 0 7.5-3.357 7.5-7.5s-3.358-7.5-7.5-7.5h-15.184v-11.917h13.511c4.142 0 7.5-3.357 7.5-7.5s-3.358-7.5-7.5-7.5h-13.511v-11.917h15.184c4.142 0 7.5-3.357 7.5-7.5s-3.358-7.5-7.5-7.5h-22.684c-4.142 0-7.5 3.357-7.5 7.5v53.834c0 4.142 3.358 7.5 7.5 7.5z"/><path d="m342.051 295.701c0-11.921-10.057-21.62-22.419-21.62h-14.438c-.003 0-.006 0-.009 0s-.006 0-.009 0c-4.142 0-7.5 3.357-7.5 7.5v54.33c0 4.143 3.358 7.5 7.5 7.5s7.5-3.357 7.5-7.5v-13.502l16.245 18.457c1.482 1.685 3.552 2.545 5.633 2.545 1.76 0 3.527-.616 4.952-1.87 3.109-2.736 3.412-7.476.675-10.585l-13.089-14.871c8.705-2.972 14.959-10.985 14.959-20.384zm-22.419-6.62c4.021 0 7.419 3.031 7.419 6.62 0 3.588-3.397 6.619-7.419 6.619-1.625 0-4.286.01-6.879.022-.012-2.518-.022-5.08-.022-6.642 0-1.335-.006-3.977-.013-6.62h6.914z"/><path d="m230.275 392.126c0-14.506-12.279-26.308-27.372-26.308h-19.23c-.004 0-.008.001-.012.001s-.008-.001-.012-.001c-4.142 0-7.5 3.357-7.5 7.5v72.366c0 4.143 3.358 7.5 7.5 7.5s7.5-3.357 7.5-7.5v-24.581l25.996 29.536c1.482 1.685 3.552 2.545 5.633 2.545 1.76 0 3.527-.616 4.952-1.87 3.109-2.736 3.412-7.476.675-10.585l-20.082-22.817c12.505-2.424 21.952-13.063 21.952-25.786zm-27.372 11.306c-2.689 0-7.509.021-11.64.042-.021-4.051-.043-8.744-.043-11.349 0-2.201-.013-7.071-.025-11.308h11.708c6.707 0 12.372 5.179 12.372 11.308s-5.666 11.307-12.372 11.307z"/><path d="m138.624 373.318v72.366c0 4.143 3.358 7.5 7.5 7.5s7.5-3.357 7.5-7.5v-72.366c0-4.143-3.358-7.5-7.5-7.5s-7.5 3.358-7.5 7.5z"/><path d="m260.3 365.818c-4.142 0-7.5 3.357-7.5 7.5v72.366c0 4.143 3.358 7.5 7.5 7.5s7.5-3.357 7.5-7.5v-72.366c0-4.142-3.358-7.5-7.5-7.5z"/><path d="m108.598 453.184c4.142 0 7.5-3.357 7.5-7.5v-72.366c0-4.143-3.358-7.5-7.5-7.5s-7.5 3.357-7.5 7.5v27.442h-35.079v-27.442c0-4.143-3.358-7.5-7.5-7.5s-7.5 3.357-7.5 7.5v72.366c0 4.143 3.358 7.5 7.5 7.5s7.5-3.357 7.5-7.5v-29.924h35.079v29.924c0 4.143 3.358 7.5 7.5 7.5z"/><path d="m290.326 373.454v72.23c0 4.143 3.358 7.5 7.5 7.5s7.5-3.357 7.5-7.5v-48.172l35.169 50.927c2.266 3.271 6.02 4.672 9.564 3.563 3.631-1.134 5.978-4.571 5.977-8.829l-.676-69.928c-.04-4.117-3.39-7.428-7.498-7.428h-.074c-4.142.04-7.467 3.431-7.427 7.572l.476 49.146-36.839-53.344c-1.865-2.701-5.269-3.874-8.403-2.898-3.135.977-5.269 3.879-5.269 7.161z"/><path d="m422.246 453.184c22.807 0 38.736-17.963 38.736-43.683 0-4.143-3.358-7.5-7.5-7.5h-21.648c-4.142 0-7.5 3.357-7.5 7.5s3.358 7.5 7.5 7.5h13.471c-2.025 10.945-8.797 21.183-23.058 21.183-15.816 0-28.684-12.867-28.684-28.683s12.867-28.684 28.684-28.684c5.749 0 11.293 1.692 16.032 4.895 3.434 2.318 8.095 1.415 10.414-2.017s1.416-8.094-2.016-10.413c-7.229-4.884-15.677-7.465-24.43-7.465-24.087 0-43.684 19.597-43.684 43.684s19.595 43.683 43.683 43.683z"/><path d="m273.144 298.01 12.523-27.384c1.723-3.767.065-8.217-3.702-9.939-3.765-1.724-8.217-.066-9.94 3.701l-12.523 27.384c-1.723 3.767-.065 8.217 3.702 9.939 1.011.463 2.071.682 3.115.682 2.844-.001 5.564-1.628 6.825-4.383z"/></g></g></svg>