<svg id="Capa_1" enable-background="new 0 0 512 512" height="512" viewBox="0 0 512 512" width="512" xmlns="http://www.w3.org/2000/svg"><g><g><g><g><path d="m383.628 90.99h-31.664c-21.158 0-38.311 17.152-38.311 38.311v36.953l9.272 5.581h64.382v-74.107z" fill="#efc984"/></g><path d="m453.345 348.387c0-20.941-13.801-39.376-33.894-45.275l-56.038-16.452.036-12.004h-25.063l-54.783 16.079c-19.637 5.764-33.126 23.78-33.126 44.245v87.512h202.873z" fill="#4a80aa"/><g><path d="m478.878 290.734-54.763-16.077h-64.823l-.047 15.779 54.763 16.077c19.635 5.765 33.122 23.78 33.122 44.244v71.735h64.87v-87.514c0-20.463-13.487-38.479-33.122-44.244z" fill="#407093"/></g><path d="m412.226 422.493-20.12-89.712h-21.796l-20.12 89.712z" fill="#dd636e"/><g><g><g><g><g><g><g><g><path d="m411.315 285.688v-48.362h-60.175v48.362c0 16.617 30.087 18.094 30.087 18.094s30.088-1.478 30.088-18.094z" fill="#ffddce"/></g></g></g></g></g></g></g><path d="m385.994 217.747c.939-4.118 1.312-8.344 1.312-12.567v-64.087c-11.598.779-23.311-.676-34.484-4.367l-.022-.007c-7.911-2.614-16.063 3.278-16.063 11.61v6.342c0 6.397-5.186 11.583-11.583 11.583h-11.502v18.941c0 4.84 3.924 8.764 8.764 8.764 1.527 0 2.77 1.196 2.866 2.72 1.57 24.901 19.384 45.392 42.969 50.982 8.724-7.753 15.058-18.136 17.743-29.914z" fill="#ffddce"/><g><path d="m432.156 113.258h-.561c-3.105 0-5.622-2.517-5.622-5.622 0-9.193-7.453-16.646-16.646-16.646h-25.699v80.845h55.902l9.272-5.581v-36.35c0-9.193-7.452-16.646-16.646-16.646z" fill="#eabc6b"/></g><g><path d="m437.3 166.254c-6.397 0-11.583-5.186-11.583-11.583v-6.339c0-8.333-8.153-14.225-16.064-11.61-8.46 2.796-17.229 4.295-26.024 4.527v61.985c0 4.151-.367 8.306-1.29 12.353-2.789 12.235-9.585 22.939-18.925 30.679 5.598 1.876 11.585 2.904 17.815 2.904 29.764 0 54.098-23.194 55.945-52.492.096-1.524 1.339-2.72 2.866-2.72 4.84 0 8.764-3.924 8.764-8.764v-18.941h-11.504z" fill="#ffcbbe"/></g></g><g fill="#365e7d"><path d="m339.411 271.45-8.569 3.847c-4.891 2.196-6.072 8.608-2.284 12.403l23.731 23.768c3.01 2.93 7.748 3.111 10.972.418l18.609-15.544-31.726-23.707c-3.097-2.316-7.206-2.769-10.733-1.185z"/><path d="m412.295 272.782-30.424 23.558 17.49 14.954c3.204 2.74 7.964 2.602 11.005-.319l23.743-23.122c3.881-3.779 2.721-10.282-2.227-12.487l-8.735-3.892c-3.583-1.595-7.752-1.092-10.852 1.308z"/></g></g><path d="m453.357 501.357-.008-98.713h-331.616v108.872h325.155c3.642-1.946 6.186-5.765 6.469-10.159z" fill="#ddb7a0"/><path d="m447.142 402.645v97.601c-.401 6.225-5.447 11.271-11.672 11.271h55.142c11.812 0 21.388-9.576 21.388-21.388v-87.484z" fill="#d6a889"/><g><g><g><g><g><g><g><g><g><g><g><g><g><g><g><path d="m156.415 373.705v-47.032h-58.52v47.032c0 16.16 29.26 17.596 29.26 17.596s29.26-1.436 29.26-17.596z" fill="#ffddce"/></g></g></g></g></g></g></g></g></g></g></g></g></g></g><path d="m128.535 342.789c14.248-4.947 23.799-18.377 23.794-33.46-.003-8.34-1.221-16.635-3.615-24.624-3.937-13.134-5.94-26.773-5.944-40.485v-.034c-.01-31.515-18.223-58.757-44.688-71.831-28.599 11.52-48.788 39.523-48.798 72.245v.033c-.004 13.329-1.95 26.586-5.778 39.353-2.328 7.766-3.512 15.829-3.514 23.936-.005 14.661 9.278 27.715 23.128 32.524 13.066 4.536 26.494 7.643 40.055 9.322 8.559-1.762 17.031-4.087 25.36-6.979z" fill="#407093"/><path d="m210.825 283.987c-3.827-12.768-5.774-26.025-5.778-39.353v-.033c-.013-43.003-34.878-77.857-77.881-77.857-11.638 0-22.67 2.571-32.587 7.147 26.725 12.333 45.285 39.345 45.294 70.71v.033c.004 13.329 1.95 26.586 5.778 39.353 2.328 7.765 3.512 15.828 3.514 23.935.005 14.661-9.278 27.716-23.128 32.524-10.298 3.575-20.822 6.261-31.458 8.061 32.206 5.451 65.448 2.765 96.632-8.061 13.85-4.809 23.133-17.863 23.128-32.524-.003-8.106-1.187-16.169-3.514-23.935z" fill="#365e7d"/></g><g><path d="m222.323 108.2v-85.523c0-20.842-18.141-22.655-30.65-22.666h-133.623c-12.518 0-22.666 10.148-22.666 22.666v85.523c0 12.518 10.148 22.666 22.666 22.666h137.198l5.538-.299c6.761-.365 13.181-3.537 17.178-9.002 2.741-3.747 4.359-8.367 4.359-13.365z" fill="#cbe2ff"/></g><path d="m257.386.011h-65.713c12.518 0 22.666 10.148 22.666 22.666v85.523c0 10.905-7.702 20.009-17.963 22.174-.416.088-.793.262-1.128.492h21.196c.876 0 1.716.348 2.336.968l33.928 33.928c2.519 2.519 6.827.735 6.827-2.828v-29.346c0-1.535 1.052-2.897 2.554-3.214 10.261-2.165 17.964-11.268 17.964-22.174v-85.523c-.001-12.518-10.149-22.666-22.667-22.666z" fill="#bed8fb"/><g><path d="m193.965 433.851c0-19.901-11.193-29.51-32.212-34.023l-11.877-2.261c-8.541-1.626-15.123-8.06-17.197-16.173-13.626 2.332-28.616-4.101-34.716-19.298l-.069-.171-65.68 12.702c-19.096 5.605-32.214 23.126-32.214 43.029v72.945c0 11.829 9.602 21.412 21.431 21.388l167.726-.344 4.7-3.604z" fill="#e28086"/></g><path d="m244.68 511.594c5.343-.042 9.652-4.385 9.652-9.728v-84.213c0-19.901-13.116-37.422-32.212-43.028l-65.705-12.511c-5.269 13.101-17.145 19.676-29.052 19.738 1.191 9.344 8.247 17.04 17.706 18.841l11.877 2.261c21.018 4.514 32.212 14.122 32.212 34.023v74.671z" fill="#dd636e"/><g><path d="m399.361 311.295-17.49-14.954-18.609 15.544c-1.199 1.002-2.609 1.604-4.06 1.817l11.108 19.078h21.796l10.984-19.684c-1.339-.264-2.627-.858-3.729-1.801z" fill="#e28086"/></g></g></g></svg>