<?xml version="1.0" encoding="iso-8859-1"?>
<!-- Generator: Adobe Illustrator 19.0.0, SVG Export Plug-In . SVG Version: 6.00 Build 0)  -->
<svg version="1.1" id="Capa_1" xmlns="http://www.w3.org/2000/svg" xmlns:xlink="http://www.w3.org/1999/xlink" x="0px" y="0px"
	 viewBox="0 0 511.994 511.994" style="enable-background:new 0 0 511.994 511.994;" xml:space="preserve">
<circle style="fill:#4398D1;" cx="256.425" cy="251.384" r="243.525"/>
<path style="fill:#3E8CC7;" d="M422.296,73.15c3.213,18.217,4.845,36.691,4.87,55.19c-0.009,175.073-141.475,317.24-316.548,318.112
	c107.834,80.38,260.409,58.121,340.789-49.705C525.584,297.226,513.049,157.836,422.296,73.15z"/>
<g>
	<polygon style="fill:#C4C4C4;" points="123.982,84.762 106.893,101.851 187,137.637 211.566,111.464 	"/>
	<polygon style="fill:#C4C4C4;" points="233.995,132.023 207.293,157.392 242.592,238.567 260.698,222.554 	"/>
</g>
<g>
	<polygon style="fill:#88B337;" points="303.421,247.112 303.421,315.469 337.6,315.469 337.6,418.006 380.324,418.006 
		414.503,383.827 414.503,349.648 448.682,298.38 414.503,298.38 388.869,247.112 	"/>
	<polygon style="fill:#88B337;" points="132.527,289.835 132.527,349.648 175.251,349.648 175.251,443.64 209.429,418.006 
		209.429,392.372 252.153,358.193 252.153,315.469 200.885,315.469 175.251,289.835 	"/>
	<path style="fill:#88B337;" d="M243.608,33.493l34.179-8.545V8.851c-7.041-0.615-14.159-0.991-21.362-0.991
		C226.63,7.851,197.082,13.319,169.269,24l48.705,26.583L243.608,33.493z"/>
	<path style="fill:#88B337;" d="M371.779,136.03h-51.268v59.813h34.179l17.089-25.634h51.268l34.179,59.813h41.732
		c-4.05-46.705-21.558-91.223-50.414-128.171h-42.587L371.779,136.03z"/>
	<path style="fill:#88B337;" d="M47.08,212.933l25.634-25.634L47.08,144.575h-9.536c-15.603,31.966-23.977,66.974-24.532,102.537
		H47.08V212.933z"/>
</g>
<path style="fill:#CFCFCF;" d="M234.03,85.796l-75.869,75.869l-34.179-8.545l-17.089,17.089l42.724,25.634l25.634,42.724
	l17.089-17.089l-8.545-34.179l77.108-76.108c10.843-11.484,16.884-26.685,16.884-42.484v-1.034
	C261.373,67.672,245.633,74.192,234.03,85.796z"/>
<path style="fill:#FDB62F;" d="M158.067,474.154c-56.617,25.027-100.828,27.394-122.036,6.169
	c-21.208-21.225-18.115-64.256,4.187-116.917c23.831-52.712,55.413-101.563,93.71-144.919l-12.979-11.108
	c-35.931,40.835-66.324,86.233-90.403,135.007c-31.222,66.281-35.196,121.421-6.597,150.02
	c14.663,13.56,34.196,20.584,54.139,19.465c26.608,0,59.258-8.827,96.436-26.42c0.402-0.205,2.427-1.239,5.46-2.854
	C172.508,480.126,165.202,477.315,158.067,474.154z"/>
<path d="M32.075,321.451c-6.597-21.319-10.125-43.476-10.467-65.794H47.08c4.717,0,8.545-3.828,8.545-8.545V216.47l23.131-23.131
	c2.777-2.777,3.298-7.084,1.282-10.442l-25.634-42.724c-0.778-1.282-1.88-2.341-3.196-3.068
	c25.822-46.176,66.393-82.363,115.209-102.759l47.739,23.925c2.743,1.367,5.998,1.162,8.545-0.538L247.103,41.5l32.743-8.186
	c3.837-0.948,6.52-4.409,6.485-8.365v-6.579c55.319,7.101,106.296,33.666,143.799,74.937h-24.173c-2.264,0-4.443,0.897-6.041,2.504
	l-31.675,31.675h-47.731c-4.717,0-8.545,3.828-8.545,8.545v59.813c0,4.717,3.828,8.545,8.545,8.545h34.179
	c2.854,0,5.52-1.427,7.109-3.802l14.552-21.832h41.741l31.718,55.541c1.53,2.649,4.358,4.281,7.417,4.272h33.82
	c0.222,4.272,0.359,8.545,0.359,12.817c0.034,129.777-105.143,235.006-234.92,235.04c-79.697,0.026-153.967-40.348-197.289-107.245
	l-14.33,9.305c25.224,38.93,60.71,70.135,102.537,90.19c-51.465,20.704-91.429,21.516-111.329,1.649
	c-38.793-38.802,3.29-151.361,97.897-261.836l-12.979-11.108C17.173,328.543-22.705,445.751,23.949,492.405
	c14.671,13.569,34.222,20.593,54.174,19.473c31.692-1.581,62.71-9.767,91.061-24.019c130.435,47.927,275.029-18.961,322.956-149.396
	S473.179,63.434,342.744,15.507S67.715,34.468,19.788,164.903C0.682,216.88-0.728,273.711,15.755,326.578L32.075,321.451z
	 M462.182,221.477l-31.718-55.541c-1.53-2.649-4.358-4.281-7.417-4.272h-51.268c-2.854,0-5.52,1.427-7.109,3.802l-14.552,21.832
	h-21.063v-42.724h42.724c2.264,0,4.443-0.897,6.041-2.504l31.675-31.675h34.786c24.455,32.47,40.015,70.759,45.159,111.081
	L462.182,221.477L462.182,221.477z M269.242,16.763v1.512l-27.711,6.93c-0.948,0.239-1.854,0.632-2.666,1.179l-21.507,14.338
	l-28.65-14.33c21.96-6.631,44.774-9.997,67.717-9.989C260.698,16.404,264.97,16.541,269.242,16.763z M61.956,185.974l-20.917,20.917
	c-1.606,1.606-2.504,3.777-2.504,6.041v25.634H21.804c1.581-29.283,8.673-58.01,20.9-84.67L61.956,185.974z"/>
<path d="M286.332,68.706v-1.034c0-4.717-3.828-8.545-8.545-8.545c-18.687-0.051-36.623,7.374-49.799,20.627l-20.994,20.986
	l-80.56-24.164c-3.008-0.897-6.272-0.077-8.493,2.145L100.852,95.81c-3.341,3.332-3.341,8.741-0.009,12.082
	c0.743,0.743,1.615,1.342,2.572,1.769l65.538,29.12l-13.424,13.424l-29.479-7.374c-2.914-0.726-5.998,0.128-8.117,2.247
	l-17.089,17.089c-3.332,3.341-3.332,8.75,0,12.082c0.496,0.496,1.042,0.923,1.641,1.282l40.895,24.54l24.54,40.895
	c1.35,2.256,3.666,3.76,6.28,4.084c2.606,0.308,5.221-0.59,7.084-2.444l17.089-17.089c2.119-2.119,2.974-5.204,2.247-8.117
	l-7.366-29.445l13.372-13.193l28.112,65.222c1.871,4.332,6.896,6.332,11.228,4.46c0.829-0.359,1.598-0.846,2.281-1.444
	l18.115-16.013c2.495-2.196,3.495-5.64,2.563-8.827l-24.062-81.141l22.216-21.96C279.453,104.005,286.349,86.702,286.332,68.706z
	 M121.735,99.1l4.683-4.691l66.854,20.063l-11.364,11.364L121.735,99.1z M250.957,219.769l-5.195,4.589l-26.079-60.48l11.382-11.236
	L250.957,219.769z M177.814,181.215c-2.153,2.128-3.016,5.229-2.281,8.16l7.374,29.479l-5.93,5.93l-20.012-33.324
	c-0.718-1.196-1.726-2.205-2.922-2.922l-33.324-20.012l5.93-5.93l29.479,7.374c2.914,0.726,5.998-0.128,8.117-2.247l75.869-75.869
	c7.742-7.784,17.713-12.962,28.531-14.834c-1.615,10.536-6.383,20.336-13.672,28.104L177.814,181.215z"/>
<path d="M337.6,426.551h42.724c2.264,0,4.443-0.897,6.041-2.504l34.179-34.179c1.606-1.598,2.504-3.777,2.504-6.041v-31.616
	l32.743-49.115c2.606-3.939,1.53-9.237-2.41-11.843c-1.393-0.923-3.025-1.418-4.7-1.418h-28.898l-23.225-46.543
	c-1.453-2.914-4.435-4.742-7.69-4.725h-85.447c-4.717,0-8.545,3.828-8.545,8.545v68.358c0,4.717,3.828,8.545,8.545,8.545h25.634
	v93.992C329.056,422.723,332.875,426.551,337.6,426.551z M311.966,306.925v-51.268h71.622l23.267,46.543
	c1.444,2.897,4.409,4.725,7.648,4.725h18.209l-25.318,37.981c-0.931,1.41-1.436,3.059-1.436,4.742v30.641l-29.172,29.172h-30.641
	v-93.992c0-4.717-3.828-8.545-8.545-8.545H311.966z"/>
<path d="M171.431,451.331c2.905,1.435,6.366,1.102,8.946-0.854l34.179-25.634c2.153-1.615,3.418-4.144,3.418-6.836v-21.533
	l39.519-31.615c2.025-1.624,3.204-4.076,3.204-6.665v-42.724c0-4.717-3.828-8.545-8.545-8.545h-47.731l-23.131-23.131
	c-1.598-1.606-3.777-2.504-6.041-2.504h-42.724c-4.717,0-8.545,3.828-8.545,8.545v59.813c0,4.717,3.828,8.545,8.545,8.545h34.179
	v85.447C166.689,446.896,168.517,449.878,171.431,451.331z M141.072,341.104V298.38h30.641l23.131,23.131
	c1.598,1.606,3.777,2.504,6.041,2.504h42.724v30.077l-39.519,31.616c-2.025,1.623-3.204,4.076-3.204,6.665v21.362l-17.089,12.817
	v-76.903c0-4.717-3.828-8.545-8.545-8.545H141.072z"/>
<g>
</g>
<g>
</g>
<g>
</g>
<g>
</g>
<g>
</g>
<g>
</g>
<g>
</g>
<g>
</g>
<g>
</g>
<g>
</g>
<g>
</g>
<g>
</g>
<g>
</g>
<g>
</g>
<g>
</g>
</svg>
