<svg height="480pt" viewBox="-8 0 480 480.0007" width="480pt" xmlns="http://www.w3.org/2000/svg"><path d="m290.039062 8.003906 165.960938 58.585938-117.175781 331.925781-165.960938-58.585937zm0 0" fill="#f5e7ba"/><path d="m266.066406 75.894531 5.320313-15.089843 7.546875 2.660156-5.320313 15.089844zm0 0" fill="#d3c7a1"/><path d="m410.769531 126.976562-13.714843-4.839843 5.328124-15.089844 13.714844 4.84375zm-27.433593-9.679687-13.734376-4.847656 5.328126-15.089844 13.710937 4.847656zm-27.429688-9.6875-13.714844-4.839844 5.328125-15.089843 13.710938 4.800781zm-27.425781-9.679687-13.71875-4.847657 5.328125-15.082031 13.71875 4.839844zm-27.441407-9.6875-13.710937-4.800782 5.328125-15.089844 13.710938 4.847657zm0 0" fill="#d3c7a1"/><path d="m424.492188 131.808594 5.328124-15.085938 7.542969 2.664063-5.328125 15.085937zm0 0" fill="#d3c7a1"/><path d="m307.320312 319.519531-24.847656-25.734375-35.496094 4.429688 7.984376-22.628906 20.414062-9.761719 39.945312-113.160157 20.417969-9.757812 9.757813 20.414062-39.945313 113.152344 9.761719 20.417969zm0 0" fill="#cdcdcd"/><path d="m353.921875 259.617188-32.394531-28.402344 13.320312-37.71875 27.066406 43.488281zm0 0" fill="#e06661"/><path d="m248.3125 222.335938 43.039062-1.773438 13.320313-37.722656-48.375 16.863281zm0 0" fill="#e06661"/><path d="m204.304688 240c0 39.765625-32.234376 72-72 72-39.765626 0-72-32.234375-72-72s32.234374-72 72-72c39.765624 0 72 32.234375 72 72zm0 0" fill="#c0f5f9"/><path d="m8 120h240c8.835938 0 16 7.164062 16 16v320c0 8.835938-7.164062 16-16 16h-224c-8.835938 0-16-7.164062-16-16zm0 0" fill="#85bc94"/><path d="m132.3125 160c-44.183594 0-80 35.816406-80 80s35.816406 80 80 80 80-35.816406 80-80c-.046875-44.160156-35.835938-79.949219-80-80zm-64 80c.015625-3.269531.28125-6.535156.800781-9.765625l19.78125-4.402344c3.035157-.671875 6.089844-1.230469 9.152344-1.757812-.773437 10.601562-.773437 21.25 0 31.855469-3.0625-.527344-6.117187-1.089844-9.152344-1.761719l-19.78125-4.398438c-.519531-3.230469-.785156-6.496093-.800781-9.769531zm45.96875-18.023438c11.992188-1.070312 24.054688-1.070312 36.046875 0 1.074219 11.992188 1.074219 24.054688 0 36.046876-11.992187 1.074218-24.054687 1.074218-36.046875 0-1.074219-11.992188-1.074219-24.054688 0-36.046876zm52.261719 2.097657c3.066406.527343 6.121093 1.085937 9.152343 1.757812l19.785157 4.402344c1.109375 6.464844 1.109375 13.070313 0 19.535156l-19.785157 4.398438c-3.03125.671875-6.085937 1.234375-9.152343 1.769531.777343-10.609375.777343-21.257812 0-31.863281zm23.539062-11.425781-10.914062-2.398438c-4.800781-1.058594-9.601563-1.898438-14.449219-2.625-.734375-4.847656-1.597656-9.671875-2.628906-14.449219l-2.402344-10.910156c13.316406 6.339844 24.050781 17.066406 30.394531 30.382813zm-48-35.824219 4.398438 19.792969c.671875 3.03125 1.238281 6.085937 1.769531 9.152343-10.609375-.777343-21.257812-.777343-31.867188 0 .53125-3.066406 1.089844-6.121093 1.769532-9.152343l4.398437-19.792969c6.464844-1.097657 13.066407-1.097657 19.53125 0zm-37.121093 5.410156-2.402344 10.910156c-1.054688 4.800781-1.894532 9.601563-2.621094 14.449219-4.847656.726562-9.671875 1.597656-14.449219 2.621094l-10.910156 2.402344c6.339844-13.3125 17.066406-24.039063 30.375-30.382813zm-30.402344 85.117187 10.914062 2.402344c4.800782 1.054688 9.601563 1.894532 14.449219 2.621094.726563 4.851562 1.597656 9.671875 2.621094 14.449219l2.402343 10.914062c-13.324218-6.339843-24.058593-17.070312-30.410156-30.386719zm48 35.824219-4.398438-19.792969c-.679687-3.023437-1.238281-6.085937-1.769531-9.140624 5.296875.382812 10.617187.648437 15.9375.648437s10.625-.265625 15.929687-.648437c-.53125 3.054687-1.097656 6.117187-1.769531 9.140624l-4.398437 19.792969c-6.464844 1.097657-13.066406 1.097657-19.53125 0zm37.121094-5.40625 2.402343-10.914062c1.0625-4.796875 1.894531-9.597657 2.628907-14.445313 4.839843-.730468 9.671874-1.601562 14.449218-2.625l10.914063-2.402344c-6.351563 13.320313-17.085938 24.046876-30.410157 30.386719zm0 0" fill="#fece2f"/><g fill="#55785f"><path d="m68.3125 384h128v16h-128zm0 0"/><path d="m84.3125 416h96v16h-96zm0 0"/><path d="m124.3125 352h16v16h-16zm0 0"/><path d="m92.3125 352h16v16h-16zm0 0"/><path d="m156.3125 352h16v16h-16zm0 0"/></g><path d="m220.304688 120v-35.199219c0-4.964843-2.304688-9.644531-6.234376-12.675781-3.933593-3.027344-9.046874-4.0625-13.847656-2.796875l-192.222656 50.671875zm0 0" fill="#6b9777"/><path d="m463.199219 63.136719c-.914063-1.914063-2.550781-3.386719-4.550781-4.097657l-165.945313-58.582031c-4.164063-1.472656-8.734375.714844-10.207031 4.878907l-37.695313 106.664062h-16.488281v-27.199219c0-7.445312-3.457031-14.46875-9.355469-19.011719-5.902343-4.542968-13.574219-6.089843-20.773437-4.1875l-192.222656 50.664063v.144531c-3.484376.875-5.9335942 3.996094-5.960938 7.589844v336c0 13.253906 10.746094 24 24 24h224c13.253906 0 24-10.746094 24-24v-72.589844l64.160156 22.648438c4.167969 1.46875 8.738282-.714844 10.207032-4.882813l117.175781-331.925781c.703125-2.003906.578125-4.203125-.34375-6.113281zm-260.933594 13.894531c2.398437-.632812 4.960937-.117188 6.925781 1.394531 1.96875 1.515625 3.121094 3.859375 3.121094 6.34375v27.230469h-142.625zm53.734375 378.96875c0 4.417969-3.582031 8-8 8h-224c-4.417969 0-8-3.582031-8-8v-328h232c4.417969 0 8 3.582031 8 8zm65.761719-297.542969 10.238281-4.855469 4.878906 10.207032-38.871094 110.007812c-.703124 2-.585937 4.199219.328126 6.113282l8.328124 17.421874-2.574218 7.304688-15.867188-16.429688c-1.742187-1.820312-4.242187-2.707031-6.742187-2.402343l-9.480469 1.199219v-10.71875l6.824219-3.265626c1.914062-.914062 3.386719-2.550781 4.097656-4.550781l16-45.246093zm15.085937 53.398438 16.242188 26.097656-2.777344 7.863281-19.433594-17.015625zm-64.847656 39.496093v-21.984374l7.871094-.328126zm13.601562-38.558593-13.601562.558593v-10.648437l19.585938-6.832031zm48.335938 175.511719-61.9375-21.863282v-63.289062l7.496094-.9375 22.105468 22.867187c1.515626 1.546875 3.59375 2.410157 5.757813 2.398438.570313.003906 1.140625-.058594 1.695313-.183594 2.710937-.589844 4.917968-2.539063 5.839843-5.152344l8-22.632812c.707031-2 .589844-4.199219-.328125-6.109375l-8.367187-17.402344 10.945312-31 23.503907 20.601562c1.457031 1.277344 3.332031 1.984376 5.273437 1.984376.683594 0 1.363281-.089844 2.023437-.265626 2.566407-.671874 4.632813-2.570312 5.519532-5.070312l8-22.632812c.808594-2.292969.53125-4.824219-.753906-6.886719l-25.039063-40.226563 9.375-26.550781c.707031-2.003906.589844-4.203125-.328125-6.121094l-9.757812-20.40625c-1.90625-3.988281-6.683594-5.675781-10.671876-3.769531l-20.417968 9.761719c-1.910156.914062-3.382813 2.550781-4.085938 4.550781l-9.386718 26.582031-26.398438 9.210938v-49.761719c-.019531-8.324219-4.363281-16.042969-11.472656-20.375l13.074218-37.074219 2.933594-8.316406 18.402344-52 150.871094 53.253906zm0 0"/><path d="m397.054688 122.136719 5.324218-15.089844 13.71875 4.839844-5.324218 15.089843zm0 0"/><path d="m287.328125 83.398438 5.328125-15.085938 13.714844 4.84375-5.328125 15.085938zm0 0"/><path d="m369.621094 112.453125 5.328125-15.089844 13.714843 4.84375-5.328124 15.085938zm0 0"/><path d="m314.761719 93.085938 5.328125-15.085938 13.710937 4.84375-5.328125 15.085938zm0 0"/><path d="m342.191406 102.761719 5.328125-15.085938 13.714844 4.84375-5.328125 15.085938zm0 0"/><path d="m132.3125 160c-44.183594 0-80 35.816406-80 80s35.816406 80 80 80 80-35.816406 80-80c-.046875-44.160156-35.835938-79.949219-80-80zm57.769531 52.648438-10.914062-2.398438c-4.800781-1.058594-9.601563-1.898438-14.449219-2.625-.734375-4.847656-1.597656-9.671875-2.628906-14.449219l-2.402344-10.910156c13.316406 6.339844 24.050781 17.066406 30.394531 30.382813zm-121.769531 27.351562c.015625-3.269531.28125-6.535156.800781-9.765625l19.78125-4.402344c3.035157-.671875 6.089844-1.230469 9.152344-1.757812-.773437 10.601562-.773437 21.25 0 31.855469-3.0625-.527344-6.117187-1.089844-9.152344-1.761719l-19.78125-4.398438c-.519531-3.230469-.785156-6.496093-.800781-9.769531zm45.96875-18.023438c11.992188-1.070312 24.054688-1.070312 36.046875 0 1.074219 11.992188 1.074219 24.054688 0 36.046876-11.992187 1.074218-24.054687 1.074218-36.046875 0-1.074219-11.992188-1.074219-24.054688 0-36.046876zm52.261719 2.097657c3.066406.527343 6.121093 1.085937 9.152343 1.757812l19.785157 4.402344c1.109375 6.464844 1.109375 13.070313 0 19.535156l-19.785157 4.398438c-3.03125.671875-6.085937 1.234375-9.152343 1.769531.777343-10.609375.777343-21.257812 0-31.863281zm-24.46875-47.273438 4.398437 19.792969c.671875 3.03125 1.238282 6.085938 1.769532 9.152344-10.609376-.777344-21.257813-.777344-31.867188 0 .53125-3.066406 1.089844-6.121094 1.769531-9.152344l4.398438-19.792969c6.464843-1.097656 13.066406-1.097656 19.53125 0zm-37.121094 5.40625-2.402344 10.914063c-1.054687 4.800781-1.894531 9.601562-2.621093 14.449218-4.847657.726563-9.671876 1.597657-14.449219 2.621094l-10.914063 2.402344c6.351563-13.304688 17.078125-24.023438 30.386719-30.359375zm-30.402344 85.121094 10.914063 2.402344c4.800781 1.054687 9.597656 1.894531 14.449218 2.621093.726563 4.847657 1.597657 9.671876 2.621094 14.449219l2.402344 10.910157c-13.316406-6.332032-24.046875-17.050782-30.402344-30.359376zm48 35.824219-4.398437-19.792969c-.679688-3.023437-1.238282-6.085937-1.769532-9.144531 5.296876.386718 10.617188.648437 15.9375.648437 5.320313 0 10.625-.261719 15.929688-.648437-.53125 3.058594-1.097656 6.121094-1.769531 9.144531l-4.398438 19.792969c-6.464843 1.097656-13.066406 1.097656-19.53125 0zm37.121094-5.40625 2.402344-10.914063c1.0625-4.800781 1.894531-9.597656 2.628906-14.449219 4.839844-.726562 9.671875-1.597656 14.449219-2.621093l10.910156-2.402344c-6.339844 13.328125-17.074219 24.066406-30.398438 30.410156zm0 0"/><path d="m68.3125 384h128v16h-128zm0 0"/><path d="m84.3125 416h96v16h-96zm0 0"/><path d="m124.3125 352h16v16h-16zm0 0"/><path d="m92.3125 352h16v16h-16zm0 0"/><path d="m156.3125 352h16v16h-16zm0 0"/></svg>